<ttFont>
<head>
    <!-- Most of this table will be recalculated by the compiler -->
    <tableVersion value="1.0"/>
    <fontRevision value="2.00100708008"/>
    <checkSumAdjustment value="0x86277ce1"/>
    <magicNumber value="0x5f0f3cf5"/>
    <flags value="00000000 00011001"/>
    <unitsPerEm value="1000"/>
    <created value="Wed May  5 11:14:50 2004"/>
    <modified value="Wed Mar  8 14:51:18 2006"/>
    <xMin value="-167"/>
    <yMin value="-214"/>
    <xMax value="1000"/>
    <yMax value="928"/>
    <macStyle value="00000000 00000000"/>
    <lowestRecPPEM value="9"/>
    <fontDirectionHint value="2"/>
    <indexToLocFormat value="1"/>
    <glyphDataFormat value="0"/>
  </head>
    <TTGlyph name=".notdef" xMin="0" yMin="0" xMax="512" yMax="718">
      <contour>
        <pt x="222" y="117" on="1"/>
        <pt x="222" y="184" on="1"/>
        <pt x="278" y="184" on="1"/>
        <pt x="278" y="117" on="1"/>
      </contour>
      <contour>
        <pt x="225" y="234" on="1"/>
        <pt x="223" y="251" on="1"/>
        <pt x="223" y="306" on="0"/>
        <pt x="249" y="358" on="0"/>
        <pt x="282" y="391" on="1"/>
        <pt x="314" y="422" on="0"/>
        <pt x="332" y="455" on="0"/>
        <pt x="332" y="474" on="1"/>
        <pt x="332" y="510" on="0"/>
        <pt x="287" y="559" on="0"/>
        <pt x="256" y="559" on="1"/>
        <pt x="225" y="559" on="0"/>
        <pt x="180" y="515" on="0"/>
        <pt x="174" y="464" on="1"/>
        <pt x="124" y="472" on="1"/>
        <pt x="131" y="543" on="0"/>
        <pt x="205" y="609" on="0"/>
        <pt x="259" y="609" on="1"/>
        <pt x="312" y="609" on="0"/>
        <pt x="383" y="537" on="0"/>
        <pt x="383" y="478" on="1"/>
        <pt x="383" y="446" on="0"/>
        <pt x="358" y="393" on="0"/>
        <pt x="320" y="358" on="1"/>
        <pt x="283" y="325" on="0"/>
        <pt x="271" y="287" on="0"/>
        <pt x="271" y="234" on="1"/>
      </contour>
      <contour>
        <pt x="462" y="50" on="1"/>
        <pt x="462" y="667" on="1"/>
        <pt x="50" y="667" on="1"/>
        <pt x="50" y="50" on="1"/>
      </contour>
      <contour>
        <pt x="512" y="718" on="1"/>
        <pt x="512" y="0" on="1"/>
        <pt x="0" y="0" on="1"/>
        <pt x="0" y="718" on="1"/>
      </contour>
    </TTGlyph>
    <TTGlyph name="A" xMin="-1" yMin="0" xMax="501" yMax="714">
      <contour>
        <pt x="210" y="714" on="1"/>
        <pt x="290" y="714" on="1"/>
        <pt x="501" y="0" on="1"/>
        <pt x="433" y="0" on="1"/>
        <pt x="375" y="208" on="1"/>
        <pt x="125" y="208" on="1"/>
        <pt x="67" y="0" on="1"/>
        <pt x="-1" y="0" on="1"/>
      </contour>
      <contour>
        <pt x="361" y="262" on="1"/>
        <pt x="251" y="664" on="1"/>
        <pt x="249" y="664" on="1"/>
        <pt x="139" y="262" on="1"/>
      </contour>
    </TTGlyph>
    <TTGlyph name="AE" xMin="-8" yMin="0" xMax="686" yMax="714">
      <contour>
        <pt x="332" y="262" on="1"/>
        <pt x="332" y="660" on="1"/>
        <pt x="322" y="660" on="1"/>
        <pt x="161" y="262" on="1"/>
      </contour>
      <contour>
        <pt x="332" y="208" on="1"/>
        <pt x="141" y="208" on="1"/>
        <pt x="60" y="0" on="1"/>
        <pt x="-8" y="0" on="1"/>
        <pt x="282" y="714" on="1"/>
        <pt x="677" y="714" on="1"/>
        <pt x="677" y="660" on="1"/>
        <pt x="396" y="660" on="1"/>
        <pt x="396" y="400" on="1"/>
        <pt x="658" y="400" on="1"/>
        <pt x="658" y="346" on="1"/>
        <pt x="396" y="346" on="1"/>
        <pt x="396" y="54" on="1"/>
        <pt x="686" y="54" on="1"/>
        <pt x="686" y="0" on="1"/>
        <pt x="332" y="0" on="1"/>
      </contour>
    </TTGlyph>
    <TTGlyph name="Aacute" xMin="-1" yMin="0" xMax="501" yMax="913">
      <component glyphName="A" x="0" y="0" flags="0x204"/>
      <component glyphName="acute" x="161" y="174" flags="0x4"/>
    </TTGlyph>
    <TTGlyph name="Abreve" xMin="-1" yMin="0" xMax="501" yMax="903">
      <component glyphName="A" x="0" y="0" flags="0x204"/>
      <component glyphName="breve" x="158" y="174" flags="0x4"/>
    </TTGlyph>
    <TTGlyph name="Acircumflex" xMin="-1" yMin="0" xMax="501" yMax="913">
      <component glyphName="A" x="0" y="0" flags="0x204"/>
      <component glyphName="circumflex" x="156" y="174" flags="0x4"/>
    </TTGlyph>
    <TTGlyph name="Adieresis" xMin="-1" yMin="0" xMax="501" yMax="883">
      <component glyphName="A" x="0" y="0" flags="0x204"/>
      <component glyphName="dieresis" x="157" y="164" flags="0x4"/>
    </TTGlyph>
    <TTGlyph name="Agrave" xMin="-1" yMin="0" xMax="501" yMax="903">
      <component glyphName="A" x="0" y="0" flags="0x204"/>
      <component glyphName="grave" x="153" y="164" flags="0x4"/>
    </TTGlyph>
    <TTGlyph name="Amacron" xMin="-1" yMin="0" xMax="501" yMax="864">
      <component glyphName="A" x="0" y="0" flags="0x204"/>
      <component glyphName="macron" x="156" y="174" flags="0x4"/>
    </TTGlyph>
    <TTGlyph name="Aogonek" xMin="-1" yMin="-203" xMax="517" yMax="714">
      <contour>
        <pt x="477" y="0" on="1"/>
        <pt x="432" y="-40" on="0"/>
        <pt x="390" y="-96" on="0"/>
        <pt x="390" y="-120" on="1"/>
        <pt x="390" y="-166" on="0"/>
        <pt x="435" y="-166" on="1"/>
        <pt x="450" y="-166" on="0"/>
        <pt x="489" y="-156" on="0"/>
        <pt x="504" y="-147" on="1"/>
        <pt x="517" y="-174" on="1"/>
        <pt x="497" y="-187" on="0"/>
        <pt x="449" y="-203" on="0"/>
        <pt x="421" y="-203" on="1"/>
        <pt x="376" y="-203" on="0"/>
        <pt x="336" y="-159" on="0"/>
        <pt x="336" y="-131" on="1"/>
        <pt x="336" y="-97" on="0"/>
        <pt x="388" y="-30" on="0"/>
        <pt x="433" y="0" on="1"/>
        <pt x="375" y="208" on="1"/>
        <pt x="125" y="208" on="1"/>
        <pt x="67" y="0" on="1"/>
        <pt x="-1" y="0" on="1"/>
        <pt x="210" y="714" on="1"/>
        <pt x="290" y="714" on="1"/>
        <pt x="501" y="0" on="1"/>
      </contour>
      <contour>
        <pt x="361" y="262" on="1"/>
        <pt x="251" y="664" on="1"/>
        <pt x="249" y="664" on="1"/>
        <pt x="139" y="262" on="1"/>
      </contour>
    </TTGlyph>
    <TTGlyph name="Aring" xMin="-1" yMin="0" xMax="501" yMax="926">
      <component glyphName="A" x="0" y="0" flags="0x204"/>
      <component glyphName="ring" x="157" y="148" flags="0x4"/>
    </TTGlyph>
    <TTGlyph name="Atilde" xMin="-1" yMin="0" xMax="501" yMax="883">
      <component glyphName="A" x="0" y="0" flags="0x204"/>
      <component glyphName="tilde" x="157" y="164" flags="0x4"/>
    </TTGlyph>
    <TTGlyph name="B" xMin="56" yMin="0" xMax="468" yMax="714">
      <contour>
        <pt x="56" y="714" on="1"/>
        <pt x="253" y="714" on="1"/>
        <pt x="305" y="714" on="0"/>
        <pt x="378" y="688" on="0"/>
        <pt x="424" y="641" on="0"/>
        <pt x="445" y="575" on="0"/>
        <pt x="445" y="535" on="1"/>
        <pt x="445" y="482" on="0"/>
        <pt x="389" y="394" on="0"/>
        <pt x="335" y="380" on="1"/>
        <pt x="335" y="378" on="1"/>
        <pt x="401" y="365" on="0"/>
        <pt x="468" y="270" on="0"/>
        <pt x="468" y="200" on="1"/>
        <pt x="468" y="106" on="0"/>
        <pt x="355" y="0" on="0"/>
        <pt x="252" y="0" on="1"/>
        <pt x="56" y="0" on="1"/>
      </contour>
      <contour>
        <pt x="120" y="54" on="1"/>
        <pt x="239" y="54" on="1"/>
        <pt x="404" y="54" on="0"/>
        <pt x="404" y="200" on="1"/>
        <pt x="404" y="346" on="0"/>
        <pt x="239" y="346" on="1"/>
        <pt x="120" y="346" on="1"/>
      </contour>
      <contour>
        <pt x="120" y="400" on="1"/>
        <pt x="221" y="400" on="1"/>
        <pt x="305" y="400" on="0"/>
        <pt x="381" y="467" on="0"/>
        <pt x="381" y="530" on="1"/>
        <pt x="381" y="602" on="0"/>
        <pt x="307" y="660" on="0"/>
        <pt x="232" y="660" on="1"/>
        <pt x="120" y="660" on="1"/>
      </contour>
    </TTGlyph>
    <TTGlyph name="C" xMin="50" yMin="-12" xMax="490" yMax="726">
      <contour>
        <pt x="490" y="242" on="1"/>
        <pt x="483" y="118" on="0"/>
        <pt x="375" y="-12" on="0"/>
        <pt x="278" y="-12" on="1"/>
        <pt x="168" y="-12" on="0"/>
        <pt x="50" y="165" on="0"/>
        <pt x="50" y="357" on="1"/>
        <pt x="50" y="549" on="0"/>
        <pt x="168" y="726" on="0"/>
        <pt x="278" y="726" on="1"/>
        <pt x="332" y="726" on="0"/>
        <pt x="410" y="690" on="0"/>
        <pt x="460" y="630" on="0"/>
        <pt x="483" y="550" on="0"/>
        <pt x="483" y="506" on="1"/>
        <pt x="419" y="506" on="1"/>
        <pt x="419" y="579" on="0"/>
        <pt x="347" y="672" on="0"/>
        <pt x="278" y="672" on="1"/>
        <pt x="240" y="672" on="0"/>
        <pt x="179" y="639" on="0"/>
        <pt x="137" y="564" on="0"/>
        <pt x="114" y="444" on="0"/>
        <pt x="114" y="357" on="1"/>
        <pt x="114" y="270" on="0"/>
        <pt x="137" y="150" on="0"/>
        <pt x="179" y="75" on="0"/>
        <pt x="240" y="42" on="0"/>
        <pt x="278" y="42" on="1"/>
        <pt x="347" y="42" on="0"/>
        <pt x="421" y="148" on="0"/>
        <pt x="426" y="242" on="1"/>
      </contour>
    </TTGlyph>
    <TTGlyph name="Cacute" xMin="50" yMin="-12" xMax="490" yMax="913">
      <component glyphName="C" x="0" y="0" flags="0x204"/>
      <component glyphName="acute" x="202" y="174" flags="0x4"/>
    </TTGlyph>
    <TTGlyph name="Ccaron" xMin="50" yMin="-12" xMax="490" yMax="913">
      <component glyphName="C" x="0" y="0" flags="0x204"/>
      <component glyphName="caron" x="187" y="174" flags="0x4"/>
    </TTGlyph>
    <TTGlyph name="Ccedilla" xMin="50" yMin="-203" xMax="490" yMax="726">
      <contour>
        <pt x="490" y="242" on="1"/>
        <pt x="482" y="118" on="0"/>
        <pt x="429" y="53" on="1"/>
        <pt x="380" y="-5" on="0"/>
        <pt x="298" y="-11" on="1"/>
        <pt x="264" y="-55" on="1"/>
        <pt x="266" y="-56" on="1"/>
        <pt x="273" y="-53" on="0"/>
        <pt x="290" y="-51" on="0"/>
        <pt x="300" y="-51" on="1"/>
        <pt x="332" y="-51" on="0"/>
        <pt x="377" y="-90" on="0"/>
        <pt x="377" y="-118" on="1"/>
        <pt x="377" y="-139" on="0"/>
        <pt x="357" y="-171" on="0"/>
        <pt x="326" y="-192" on="0"/>
        <pt x="288" y="-203" on="0"/>
        <pt x="271" y="-203" on="1"/>
        <pt x="248" y="-203" on="0"/>
        <pt x="197" y="-191" on="0"/>
        <pt x="182" y="-183" on="1"/>
        <pt x="194" y="-152" on="1"/>
        <pt x="206" y="-158" on="0"/>
        <pt x="237" y="-167" on="0"/>
        <pt x="254" y="-167" on="1"/>
        <pt x="290" y="-167" on="0"/>
        <pt x="323" y="-141" on="0"/>
        <pt x="323" y="-123" on="1"/>
        <pt x="323" y="-104" on="0"/>
        <pt x="290" y="-87" on="0"/>
        <pt x="270" y="-87" on="1"/>
        <pt x="242" y="-87" on="0"/>
        <pt x="226" y="-97" on="1"/>
        <pt x="213" y="-80" on="1"/>
        <pt x="262" y="-11" on="1"/>
        <pt x="163" y="-5" on="0"/>
        <pt x="109" y="76" on="1"/>
        <pt x="50" y="165" on="0"/>
        <pt x="50" y="357" on="1"/>
        <pt x="50" y="549" on="0"/>
        <pt x="168" y="726" on="0"/>
        <pt x="278" y="726" on="1"/>
        <pt x="332" y="726" on="0"/>
        <pt x="410" y="690" on="0"/>
        <pt x="460" y="630" on="0"/>
        <pt x="483" y="550" on="0"/>
        <pt x="483" y="506" on="1"/>
        <pt x="419" y="506" on="1"/>
        <pt x="419" y="579" on="0"/>
        <pt x="347" y="672" on="0"/>
        <pt x="278" y="672" on="1"/>
        <pt x="240" y="672" on="0"/>
        <pt x="179" y="639" on="0"/>
        <pt x="137" y="564" on="0"/>
        <pt x="114" y="444" on="0"/>
        <pt x="114" y="357" on="1"/>
        <pt x="114" y="270" on="0"/>
        <pt x="137" y="150" on="0"/>
        <pt x="179" y="75" on="0"/>
        <pt x="240" y="42" on="0"/>
        <pt x="278" y="42" on="1"/>
        <pt x="347" y="42" on="0"/>
        <pt x="421" y="148" on="0"/>
        <pt x="426" y="242" on="1"/>
      </contour>
    </TTGlyph>
    <TTGlyph name="Ccircumflex" xMin="50" yMin="-12" xMax="490" yMax="913">
      <component glyphName="C" x="0" y="0" flags="0x204"/>
      <component glyphName="circumflex" x="187" y="174" flags="0x4"/>
    </TTGlyph>
    <TTGlyph name="Cdotaccent" xMin="50" yMin="-12" xMax="490" yMax="893">
      <component glyphName="C" x="0" y="0" flags="0x204"/>
      <component glyphName="dotaccent" x="186" y="174" flags="0x4"/>
    </TTGlyph>
    <TTGlyph name="D" xMin="56" yMin="0" xMax="487" yMax="714">
      <contour>
        <pt x="120" y="54" on="1"/>
        <pt x="224" y="54" on="1"/>
        <pt x="276" y="54" on="0"/>
        <pt x="352" y="83" on="0"/>
        <pt x="400" y="153" on="0"/>
        <pt x="423" y="269" on="0"/>
        <pt x="423" y="356" on="1"/>
        <pt x="423" y="444" on="0"/>
        <pt x="400" y="561" on="0"/>
        <pt x="352" y="631" on="0"/>
        <pt x="276" y="660" on="0"/>
        <pt x="224" y="660" on="1"/>
        <pt x="120" y="660" on="1"/>
      </contour>
      <contour>
        <pt x="56" y="714" on="1"/>
        <pt x="228" y="714" on="1"/>
        <pt x="306" y="714" on="0"/>
        <pt x="406" y="668" on="0"/>
        <pt x="465" y="578" on="0"/>
        <pt x="487" y="444" on="0"/>
        <pt x="487" y="357" on="1"/>
        <pt x="487" y="270" on="0"/>
        <pt x="465" y="136" on="0"/>
        <pt x="406" y="46" on="0"/>
        <pt x="306" y="0" on="0"/>
        <pt x="228" y="0" on="1"/>
        <pt x="56" y="0" on="1"/>
      </contour>
    </TTGlyph>
    <TTGlyph name="Dcaron" xMin="56" yMin="0" xMax="487" yMax="913">
      <component glyphName="D" x="0" y="0" flags="0x204"/>
      <component glyphName="caron" x="149" y="174" flags="0x4"/>
    </TTGlyph>
    <TTGlyph name="Dcroat" xMin="0" yMin="0" xMax="487" yMax="714">
      <contour>
        <pt x="280" y="400" on="1"/>
        <pt x="280" y="346" on="1"/>
        <pt x="120" y="346" on="1"/>
        <pt x="120" y="54" on="1"/>
        <pt x="224" y="54" on="1"/>
        <pt x="276" y="54" on="0"/>
        <pt x="352" y="83" on="0"/>
        <pt x="400" y="153" on="0"/>
        <pt x="423" y="269" on="0"/>
        <pt x="423" y="356" on="1"/>
        <pt x="423" y="444" on="0"/>
        <pt x="400" y="561" on="0"/>
        <pt x="352" y="631" on="0"/>
        <pt x="276" y="660" on="0"/>
        <pt x="224" y="660" on="1"/>
        <pt x="120" y="660" on="1"/>
        <pt x="120" y="400" on="1"/>
      </contour>
      <contour>
        <pt x="56" y="346" on="1"/>
        <pt x="0" y="346" on="1"/>
        <pt x="0" y="400" on="1"/>
        <pt x="56" y="400" on="1"/>
        <pt x="56" y="714" on="1"/>
        <pt x="228" y="714" on="1"/>
        <pt x="306" y="714" on="0"/>
        <pt x="406" y="668" on="0"/>
        <pt x="465" y="578" on="0"/>
        <pt x="487" y="444" on="0"/>
        <pt x="487" y="357" on="1"/>
        <pt x="487" y="270" on="0"/>
        <pt x="465" y="136" on="0"/>
        <pt x="406" y="46" on="0"/>
        <pt x="306" y="0" on="0"/>
        <pt x="228" y="0" on="1"/>
        <pt x="56" y="0" on="1"/>
      </contour>
    </TTGlyph>
    <TTGlyph name="Delta" xMin="17" yMin="0" xMax="652" yMax="712">
      <contour>
        <pt x="332" y="661" on="1"/>
        <pt x="93" y="52" on="1"/>
        <pt x="572" y="52" on="1"/>
      </contour>
      <contour>
        <pt x="17" y="0" on="1"/>
        <pt x="301" y="712" on="1"/>
        <pt x="364" y="712" on="1"/>
        <pt x="652" y="0" on="1"/>
      </contour>
    </TTGlyph>
    <TTGlyph name="E" xMin="56" yMin="0" xMax="419" yMax="714">
      <contour>
        <pt x="56" y="714" on="1"/>
        <pt x="410" y="714" on="1"/>
        <pt x="410" y="660" on="1"/>
        <pt x="120" y="660" on="1"/>
        <pt x="120" y="400" on="1"/>
        <pt x="391" y="400" on="1"/>
        <pt x="391" y="346" on="1"/>
        <pt x="120" y="346" on="1"/>
        <pt x="120" y="54" on="1"/>
        <pt x="419" y="54" on="1"/>
        <pt x="419" y="0" on="1"/>
        <pt x="56" y="0" on="1"/>
      </contour>
    </TTGlyph>
    <TTGlyph name="Eacute" xMin="56" yMin="0" xMax="419" yMax="903">
      <component glyphName="E" x="0" y="0" flags="0x204"/>
      <component glyphName="acute" x="154" y="164" flags="0x4"/>
    </TTGlyph>
    <TTGlyph name="Ebreve" xMin="56" yMin="0" xMax="419" yMax="903">
      <component glyphName="E" x="0" y="0" flags="0x204"/>
      <component glyphName="breve" x="140" y="174" flags="0x4"/>
    </TTGlyph>
    <TTGlyph name="Ecaron" xMin="56" yMin="0" xMax="419" yMax="913">
      <component glyphName="E" x="0" y="0" flags="0x204"/>
      <component glyphName="caron" x="141" y="174" flags="0x4"/>
    </TTGlyph>
    <TTGlyph name="Ecircumflex" xMin="56" yMin="0" xMax="419" yMax="913">
      <component glyphName="E" x="0" y="0" flags="0x204"/>
      <component glyphName="circumflex" x="141" y="174" flags="0x4"/>
    </TTGlyph>
    <TTGlyph name="Edieresis" xMin="56" yMin="0" xMax="419" yMax="893">
      <component glyphName="E" x="0" y="0" flags="0x204"/>
      <component glyphName="dieresis" x="137" y="174" flags="0x4"/>
    </TTGlyph>
    <TTGlyph name="Edotaccent" xMin="56" yMin="0" xMax="419" yMax="893">
      <component glyphName="E" x="0" y="0" flags="0x204"/>
      <component glyphName="dotaccent" x="142" y="174" flags="0x4"/>
    </TTGlyph>
    <TTGlyph name="Egrave" xMin="56" yMin="0" xMax="419" yMax="913">
      <component glyphName="E" x="0" y="0" flags="0x204"/>
      <component glyphName="grave" x="143" y="174" flags="0x4"/>
    </TTGlyph>
    <TTGlyph name="Emacron" xMin="56" yMin="0" xMax="419" yMax="864">
      <component glyphName="E" x="0" y="0" flags="0x204"/>
      <component glyphName="macron" x="144" y="174" flags="0x4"/>
    </TTGlyph>
    <TTGlyph name="Eogonek" xMin="56" yMin="-203" xMax="420" yMax="714">
      <contour>
        <pt x="380" y="0" on="1"/>
        <pt x="335" y="-40" on="0"/>
        <pt x="293" y="-96" on="0"/>
        <pt x="293" y="-120" on="1"/>
        <pt x="293" y="-166" on="0"/>
        <pt x="338" y="-166" on="1"/>
        <pt x="353" y="-166" on="0"/>
        <pt x="392" y="-156" on="0"/>
        <pt x="407" y="-147" on="1"/>
        <pt x="420" y="-174" on="1"/>
        <pt x="400" y="-187" on="0"/>
        <pt x="352" y="-203" on="0"/>
        <pt x="324" y="-203" on="1"/>
        <pt x="279" y="-203" on="0"/>
        <pt x="239" y="-159" on="0"/>
        <pt x="239" y="-131" on="1"/>
        <pt x="239" y="-97" on="0"/>
        <pt x="291" y="-30" on="0"/>
        <pt x="336" y="0" on="1"/>
        <pt x="56" y="0" on="1"/>
        <pt x="56" y="714" on="1"/>
        <pt x="410" y="714" on="1"/>
        <pt x="410" y="660" on="1"/>
        <pt x="120" y="660" on="1"/>
        <pt x="120" y="400" on="1"/>
        <pt x="391" y="400" on="1"/>
        <pt x="391" y="346" on="1"/>
        <pt x="120" y="346" on="1"/>
        <pt x="120" y="54" on="1"/>
        <pt x="419" y="54" on="1"/>
        <pt x="419" y="0" on="1"/>
      </contour>
    </TTGlyph>
    <TTGlyph name="Eth" xMin="0" yMin="0" xMax="487" yMax="714">
      <contour>
        <pt x="280" y="400" on="1"/>
        <pt x="280" y="346" on="1"/>
        <pt x="120" y="346" on="1"/>
        <pt x="120" y="54" on="1"/>
        <pt x="224" y="54" on="1"/>
        <pt x="276" y="54" on="0"/>
        <pt x="352" y="83" on="0"/>
        <pt x="400" y="153" on="0"/>
        <pt x="423" y="269" on="0"/>
        <pt x="423" y="356" on="1"/>
        <pt x="423" y="444" on="0"/>
        <pt x="400" y="561" on="0"/>
        <pt x="352" y="631" on="0"/>
        <pt x="276" y="660" on="0"/>
        <pt x="224" y="660" on="1"/>
        <pt x="120" y="660" on="1"/>
        <pt x="120" y="400" on="1"/>
      </contour>
      <contour>
        <pt x="56" y="346" on="1"/>
        <pt x="0" y="346" on="1"/>
        <pt x="0" y="400" on="1"/>
        <pt x="56" y="400" on="1"/>
        <pt x="56" y="714" on="1"/>
        <pt x="228" y="714" on="1"/>
        <pt x="306" y="714" on="0"/>
        <pt x="406" y="668" on="0"/>
        <pt x="465" y="578" on="0"/>
        <pt x="487" y="444" on="0"/>
        <pt x="487" y="357" on="1"/>
        <pt x="487" y="270" on="0"/>
        <pt x="465" y="136" on="0"/>
        <pt x="406" y="46" on="0"/>
        <pt x="306" y="0" on="0"/>
        <pt x="228" y="0" on="1"/>
        <pt x="56" y="0" on="1"/>
      </contour>
    </TTGlyph>
    <TTGlyph name="Euro" xMin="14" yMin="-12" xMax="477" yMax="710">
      <contour>
        <pt x="453" y="610" on="1"/>
        <pt x="420" y="630" on="0"/>
        <pt x="359" y="657" on="0"/>
        <pt x="319" y="657" on="1"/>
        <pt x="274" y="657" on="0"/>
        <pt x="214" y="621" on="0"/>
        <pt x="177" y="562" on="0"/>
        <pt x="159" y="488" on="0"/>
        <pt x="155" y="450" on="1"/>
        <pt x="412" y="450" on="1"/>
        <pt x="394" y="396" on="1"/>
        <pt x="151" y="396" on="1"/>
        <pt x="150" y="392" on="0"/>
        <pt x="150" y="384" on="0"/>
        <pt x="150" y="380" on="1"/>
        <pt x="150" y="364" on="1"/>
        <pt x="150" y="332" on="1"/>
        <pt x="379" y="332" on="1"/>
        <pt x="360" y="278" on="1"/>
        <pt x="151" y="278" on="1"/>
        <pt x="154" y="237" on="0"/>
        <pt x="169" y="152" on="0"/>
        <pt x="205" y="82" on="0"/>
        <pt x="268" y="38" on="0"/>
        <pt x="319" y="38" on="1"/>
        <pt x="363" y="38" on="0"/>
        <pt x="424" y="74" on="0"/>
        <pt x="456" y="102" on="1"/>
        <pt x="456" y="29" on="1"/>
        <pt x="422" y="6" on="0"/>
        <pt x="360" y="-12" on="0"/>
        <pt x="318" y="-12" on="1"/>
        <pt x="250" y="-12" on="0"/>
        <pt x="163" y="35" on="0"/>
        <pt x="111" y="115" on="0"/>
        <pt x="87" y="220" on="0"/>
        <pt x="83" y="278" on="1"/>
        <pt x="14" y="278" on="1"/>
        <pt x="32" y="332" on="1"/>
        <pt x="81" y="332" on="1"/>
        <pt x="81" y="364" on="1"/>
        <pt x="81" y="380" on="1"/>
        <pt x="81" y="384" on="0"/>
        <pt x="81" y="392" on="0"/>
        <pt x="82" y="396" on="1"/>
        <pt x="14" y="396" on="1"/>
        <pt x="32" y="450" on="1"/>
        <pt x="86" y="450" on="1"/>
        <pt x="92" y="504" on="0"/>
        <pt x="122" y="598" on="0"/>
        <pt x="178" y="669" on="0"/>
        <pt x="263" y="710" on="0"/>
        <pt x="323" y="710" on="1"/>
        <pt x="366" y="710" on="0"/>
        <pt x="440" y="685" on="0"/>
        <pt x="477" y="665" on="1"/>
      </contour>
    </TTGlyph>
    <TTGlyph name="F" xMin="56" yMin="0" xMax="410" yMax="714">
      <contour>
        <pt x="56" y="714" on="1"/>
        <pt x="410" y="714" on="1"/>
        <pt x="410" y="660" on="1"/>
        <pt x="120" y="660" on="1"/>
        <pt x="120" y="400" on="1"/>
        <pt x="391" y="400" on="1"/>
        <pt x="391" y="346" on="1"/>
        <pt x="120" y="346" on="1"/>
        <pt x="120" y="0" on="1"/>
        <pt x="56" y="0" on="1"/>
      </contour>
    </TTGlyph>
    <TTGlyph name="G" xMin="50" yMin="-12" xMax="487" yMax="726">
      <contour>
        <pt x="258" y="310" on="1"/>
        <pt x="258" y="364" on="1"/>
        <pt x="487" y="364" on="1"/>
        <pt x="487" y="0" on="1"/>
        <pt x="437" y="0" on="1"/>
        <pt x="437" y="118" on="1"/>
        <pt x="435" y="118" on="1"/>
        <pt x="418" y="58" on="0"/>
        <pt x="332" y="-12" on="0"/>
        <pt x="278" y="-12" on="1"/>
        <pt x="168" y="-12" on="0"/>
        <pt x="50" y="165" on="0"/>
        <pt x="50" y="357" on="1"/>
        <pt x="50" y="549" on="0"/>
        <pt x="168" y="726" on="0"/>
        <pt x="278" y="726" on="1"/>
        <pt x="329" y="726" on="0"/>
        <pt x="404" y="694" on="0"/>
        <pt x="453" y="638" on="0"/>
        <pt x="480" y="560" on="0"/>
        <pt x="483" y="514" on="1"/>
        <pt x="419" y="514" on="1"/>
        <pt x="419" y="546" on="0"/>
        <pt x="401" y="604" on="0"/>
        <pt x="366" y="647" on="0"/>
        <pt x="313" y="672" on="0"/>
        <pt x="278" y="672" on="1"/>
        <pt x="240" y="672" on="0"/>
        <pt x="179" y="639" on="0"/>
        <pt x="137" y="564" on="0"/>
        <pt x="114" y="444" on="0"/>
        <pt x="114" y="357" on="1"/>
        <pt x="114" y="270" on="0"/>
        <pt x="137" y="150" on="0"/>
        <pt x="179" y="75" on="0"/>
        <pt x="240" y="42" on="0"/>
        <pt x="278" y="42" on="1"/>
        <pt x="350" y="42" on="0"/>
        <pt x="427" y="168" on="0"/>
        <pt x="427" y="295" on="1"/>
        <pt x="427" y="310" on="1"/>
      </contour>
    </TTGlyph>
    <TTGlyph name="Gbreve" xMin="50" yMin="-12" xMax="487" yMax="903">
      <component glyphName="G" x="0" y="0" flags="0x204"/>
      <component glyphName="breve" x="188" y="174" flags="0x4"/>
    </TTGlyph>
    <TTGlyph name="Gcircumflex" xMin="50" yMin="-12" xMax="487" yMax="913">
      <component glyphName="G" x="0" y="0" flags="0x204"/>
      <component glyphName="circumflex" x="188" y="174" flags="0x4"/>
    </TTGlyph>
    <TTGlyph name="Gcommaaccent" xMin="50" yMin="-203" xMax="487" yMax="726">
      <component glyphName="G" x="0" y="0" flags="0x204"/>
      <component glyphName="commaaccent" x="160" y="0" flags="0x4"/>
    </TTGlyph>
    <TTGlyph name="Gdotaccent" xMin="50" yMin="-12" xMax="487" yMax="893">
      <component glyphName="G" x="0" y="0" flags="0x204"/>
      <component glyphName="dotaccent" x="186" y="174" flags="0x4"/>
    </TTGlyph>
    <TTGlyph name="H" xMin="56" yMin="0" xMax="463" yMax="714">
      <contour>
        <pt x="399" y="356" on="1"/>
        <pt x="120" y="356" on="1"/>
        <pt x="120" y="0" on="1"/>
        <pt x="56" y="0" on="1"/>
        <pt x="56" y="714" on="1"/>
        <pt x="120" y="714" on="1"/>
        <pt x="120" y="410" on="1"/>
        <pt x="399" y="410" on="1"/>
        <pt x="399" y="714" on="1"/>
        <pt x="463" y="714" on="1"/>
        <pt x="463" y="0" on="1"/>
        <pt x="399" y="0" on="1"/>
      </contour>
    </TTGlyph>
    <TTGlyph name="Hbar" xMin="56" yMin="0" xMax="463" yMax="714">
      <contour>
        <pt x="399" y="346" on="1"/>
        <pt x="120" y="346" on="1"/>
        <pt x="120" y="0" on="1"/>
        <pt x="56" y="0" on="1"/>
        <pt x="56" y="714" on="1"/>
        <pt x="120" y="714" on="1"/>
        <pt x="120" y="531" on="1"/>
        <pt x="399" y="531" on="1"/>
        <pt x="399" y="714" on="1"/>
        <pt x="463" y="714" on="1"/>
        <pt x="463" y="0" on="1"/>
        <pt x="399" y="0" on="1"/>
      </contour>
      <contour>
        <pt x="399" y="400" on="1"/>
        <pt x="399" y="487" on="1"/>
        <pt x="120" y="487" on="1"/>
        <pt x="120" y="400" on="1"/>
      </contour>
    </TTGlyph>
    <TTGlyph name="Hcircumflex" xMin="56" yMin="0" xMax="463" yMax="913">
      <component glyphName="H" x="0" y="0" flags="0x204"/>
      <component glyphName="circumflex" x="167" y="174" flags="0x4"/>
    </TTGlyph>
    <TTGlyph name="I" xMin="60" yMin="0" xMax="124" yMax="714">
      <contour>
        <pt x="60" y="714" on="1"/>
        <pt x="124" y="714" on="1"/>
        <pt x="124" y="0" on="1"/>
        <pt x="60" y="0" on="1"/>
      </contour>
    </TTGlyph>
    <TTGlyph name="IJ" xMin="60" yMin="-12" xMax="537" yMax="714">
      <component glyphName="I" x="0" y="0" flags="0x4"/>
      <component glyphName="J" x="186" y="0" flags="0x4"/>
    </TTGlyph>
    <TTGlyph name="Iacute" xMin="60" yMin="0" xMax="207" yMax="913">
      <component glyphName="I" x="0" y="0" flags="0x204"/>
      <component glyphName="acute" x="11" y="174" flags="0x4"/>
    </TTGlyph>
    <TTGlyph name="Icircumflex" xMin="-34" yMin="0" xMax="218" yMax="913">
      <component glyphName="I" x="0" y="0" flags="0x204"/>
      <component glyphName="circumflex" x="-1" y="174" flags="0x4"/>
    </TTGlyph>
    <TTGlyph name="Idieresis" xMin="-12" yMin="0" xMax="198" yMax="893">
      <component glyphName="I" x="0" y="0" flags="0x204"/>
      <component glyphName="dieresis" x="0" y="174" flags="0x4"/>
    </TTGlyph>
    <TTGlyph name="Idotaccent" xMin="60" yMin="0" xMax="124" yMax="893">
      <component glyphName="I" x="0" y="0" flags="0x204"/>
      <component glyphName="dotaccent" x="0" y="174" flags="0x4"/>
    </TTGlyph>
    <TTGlyph name="Igrave" xMin="-23" yMin="0" xMax="124" yMax="913">
      <component glyphName="I" x="0" y="0" flags="0x204"/>
      <component glyphName="grave" x="-13" y="174" flags="0x4"/>
    </TTGlyph>
    <TTGlyph name="Imacron" xMin="-26" yMin="0" xMax="212" yMax="864">
      <component glyphName="I" x="0" y="0" flags="0x204"/>
      <component glyphName="macron" x="0" y="174" flags="0x4"/>
    </TTGlyph>
    <TTGlyph name="Iogonek" xMin="-3" yMin="-203" xMax="160" yMax="714">
      <contour>
        <pt x="124" y="0" on="1"/>
        <pt x="82" y="-40" on="0"/>
        <pt x="45" y="-96" on="0"/>
        <pt x="45" y="-120" on="1"/>
        <pt x="45" y="-166" on="0"/>
        <pt x="86" y="-166" on="1"/>
        <pt x="99" y="-166" on="0"/>
        <pt x="134" y="-156" on="0"/>
        <pt x="148" y="-147" on="1"/>
        <pt x="160" y="-174" on="1"/>
        <pt x="142" y="-187" on="0"/>
        <pt x="98" y="-203" on="0"/>
        <pt x="73" y="-203" on="1"/>
        <pt x="32" y="-203" on="0"/>
        <pt x="-3" y="-159" on="0"/>
        <pt x="-3" y="-131" on="1"/>
        <pt x="-3" y="-97" on="0"/>
        <pt x="44" y="-30" on="0"/>
        <pt x="84" y="0" on="1"/>
        <pt x="60" y="0" on="1"/>
        <pt x="60" y="714" on="1"/>
        <pt x="124" y="714" on="1"/>
      </contour>
    </TTGlyph>
    <TTGlyph name="Itilde" xMin="-42" yMin="0" xMax="226" yMax="893">
      <component glyphName="I" x="0" y="0" flags="0x204"/>
      <component glyphName="tilde" x="-1" y="174" flags="0x4"/>
    </TTGlyph>
    <TTGlyph name="J" xMin="19" yMin="-12" xMax="351" yMax="714">
      <contour>
        <pt x="19" y="209" on="1"/>
        <pt x="83" y="209" on="1"/>
        <pt x="83" y="192" on="1"/>
        <pt x="83" y="119" on="0"/>
        <pt x="124" y="42" on="0"/>
        <pt x="178" y="42" on="1"/>
        <pt x="204" y="42" on="0"/>
        <pt x="245" y="55" on="0"/>
        <pt x="273" y="88" on="0"/>
        <pt x="287" y="143" on="0"/>
        <pt x="287" y="186" on="1"/>
        <pt x="287" y="714" on="1"/>
        <pt x="351" y="714" on="1"/>
        <pt x="351" y="179" on="1"/>
        <pt x="351" y="85" on="0"/>
        <pt x="266" y="-12" on="0"/>
        <pt x="181" y="-12" on="1"/>
        <pt x="104" y="-12" on="0"/>
        <pt x="19" y="76" on="0"/>
        <pt x="19" y="180" on="1"/>
      </contour>
    </TTGlyph>
    <TTGlyph name="Jcircumflex" xMin="19" yMin="-12" xMax="443" yMax="913">
      <component glyphName="J" x="0" y="0" flags="0x204"/>
      <component glyphName="circumflex" x="224" y="174" flags="0x4"/>
    </TTGlyph>
    <TTGlyph name="K" xMin="56" yMin="0" xMax="487" yMax="714">
      <contour>
        <pt x="56" y="714" on="1"/>
        <pt x="120" y="714" on="1"/>
        <pt x="120" y="340" on="1"/>
        <pt x="122" y="340" on="1"/>
        <pt x="395" y="714" on="1"/>
        <pt x="463" y="714" on="1"/>
        <pt x="245" y="416" on="1"/>
        <pt x="487" y="0" on="1"/>
        <pt x="419" y="0" on="1"/>
        <pt x="205" y="362" on="1"/>
        <pt x="120" y="250" on="1"/>
        <pt x="120" y="0" on="1"/>
        <pt x="56" y="0" on="1"/>
      </contour>
    </TTGlyph>
    <TTGlyph name="Kcommaaccent" xMin="56" yMin="-203" xMax="487" yMax="714">
      <component glyphName="K" x="0" y="0" flags="0x204"/>
      <component glyphName="commaaccent" x="129" y="0" flags="0x4"/>
    </TTGlyph>
    <TTGlyph name="L" xMin="56" yMin="0" xMax="416" yMax="714">
      <contour>
        <pt x="56" y="714" on="1"/>
        <pt x="120" y="714" on="1"/>
        <pt x="120" y="54" on="1"/>
        <pt x="416" y="54" on="1"/>
        <pt x="416" y="0" on="1"/>
        <pt x="56" y="0" on="1"/>
      </contour>
    </TTGlyph>
    <TTGlyph name="Lacute" xMin="56" yMin="0" xMax="416" yMax="913">
      <component glyphName="L" x="0" y="0" flags="0x204"/>
      <component glyphName="acute" x="13" y="174" flags="0x4"/>
    </TTGlyph>
    <TTGlyph name="Lcaron" xMin="56" yMin="0" xMax="416" yMax="714">
      <component glyphName="L" x="0" y="0" flags="0x204"/>
      <component glyphName="caron.alt" x="127" y="0" flags="0x4"/>
    </TTGlyph>
    <TTGlyph name="Lcommaaccent" xMin="56" yMin="-203" xMax="416" yMax="714">
      <component glyphName="L" x="0" y="0" flags="0x204"/>
      <component glyphName="commaaccent" x="112" y="0" flags="0x4"/>
    </TTGlyph>
    <TTGlyph name="Ldot" xMin="56" yMin="0" xMax="416" yMax="714">
      <component glyphName="L" x="0" y="0" flags="0x204"/>
      <component glyphName="dotaccent" x="154" y="-187" flags="0x4"/>
    </TTGlyph>
    <TTGlyph name="Lslash" xMin="-14" yMin="0" xMax="416" yMax="714">
      <contour>
        <pt x="56" y="286" on="1"/>
        <pt x="-14" y="238" on="1"/>
        <pt x="-14" y="298" on="1"/>
        <pt x="56" y="346" on="1"/>
        <pt x="56" y="714" on="1"/>
        <pt x="120" y="714" on="1"/>
        <pt x="120" y="390" on="1"/>
        <pt x="306" y="517" on="1"/>
        <pt x="306" y="457" on="1"/>
        <pt x="120" y="330" on="1"/>
        <pt x="120" y="54" on="1"/>
        <pt x="416" y="54" on="1"/>
        <pt x="416" y="0" on="1"/>
        <pt x="56" y="0" on="1"/>
      </contour>
    </TTGlyph>
    <TTGlyph name="M" xMin="62" yMin="0" xMax="624" yMax="714">
      <contour>
        <pt x="62" y="714" on="1"/>
        <pt x="173" y="714" on="1"/>
        <pt x="345" y="80" on="1"/>
        <pt x="347" y="80" on="1"/>
        <pt x="519" y="714" on="1"/>
        <pt x="624" y="714" on="1"/>
        <pt x="624" y="0" on="1"/>
        <pt x="560" y="0" on="1"/>
        <pt x="560" y="654" on="1"/>
        <pt x="558" y="654" on="1"/>
        <pt x="373" y="0" on="1"/>
        <pt x="313" y="0" on="1"/>
        <pt x="128" y="654" on="1"/>
        <pt x="126" y="654" on="1"/>
        <pt x="126" y="0" on="1"/>
        <pt x="62" y="0" on="1"/>
      </contour>
    </TTGlyph>
    <TTGlyph name="N" xMin="56" yMin="0" xMax="481" yMax="714">
      <contour>
        <pt x="56" y="714" on="1"/>
        <pt x="142" y="714" on="1"/>
        <pt x="415" y="92" on="1"/>
        <pt x="417" y="92" on="1"/>
        <pt x="417" y="714" on="1"/>
        <pt x="481" y="714" on="1"/>
        <pt x="481" y="0" on="1"/>
        <pt x="395" y="0" on="1"/>
        <pt x="122" y="622" on="1"/>
        <pt x="120" y="622" on="1"/>
        <pt x="120" y="0" on="1"/>
        <pt x="56" y="0" on="1"/>
      </contour>
    </TTGlyph>
    <TTGlyph name="Nacute" xMin="56" yMin="0" xMax="481" yMax="913">
      <component glyphName="N" x="0" y="0" flags="0x204"/>
      <component glyphName="acute" x="188" y="174" flags="0x4"/>
    </TTGlyph>
    <TTGlyph name="Ncaron" xMin="56" yMin="0" xMax="481" yMax="913">
      <component glyphName="N" x="0" y="0" flags="0x204"/>
      <component glyphName="caron" x="176" y="174" flags="0x4"/>
    </TTGlyph>
    <TTGlyph name="Ncommaaccent" xMin="56" yMin="-203" xMax="481" yMax="714">
      <component glyphName="N" x="0" y="0" flags="0x204"/>
      <component glyphName="commaaccent" x="146" y="0" flags="0x4"/>
    </TTGlyph>
    <TTGlyph name="Ntilde" xMin="56" yMin="0" xMax="481" yMax="883">
      <component glyphName="N" x="0" y="0" flags="0x204"/>
      <component glyphName="tilde" x="173" y="164" flags="0x4"/>
    </TTGlyph>
    <TTGlyph name="O" xMin="50" yMin="-12" xMax="506" yMax="726">
      <contour>
        <pt x="114" y="357" on="1"/>
        <pt x="114" y="270" on="0"/>
        <pt x="137" y="150" on="0"/>
        <pt x="179" y="75" on="0"/>
        <pt x="240" y="42" on="0"/>
        <pt x="278" y="42" on="1"/>
        <pt x="316" y="42" on="0"/>
        <pt x="377" y="75" on="0"/>
        <pt x="419" y="150" on="0"/>
        <pt x="442" y="270" on="0"/>
        <pt x="442" y="357" on="1"/>
        <pt x="442" y="444" on="0"/>
        <pt x="419" y="564" on="0"/>
        <pt x="377" y="639" on="0"/>
        <pt x="316" y="672" on="0"/>
        <pt x="278" y="672" on="1"/>
        <pt x="240" y="672" on="0"/>
        <pt x="179" y="639" on="0"/>
        <pt x="137" y="564" on="0"/>
        <pt x="114" y="444" on="0"/>
      </contour>
      <contour>
        <pt x="50" y="357" on="1"/>
        <pt x="50" y="549" on="0"/>
        <pt x="168" y="726" on="0"/>
        <pt x="278" y="726" on="1"/>
        <pt x="387" y="726" on="0"/>
        <pt x="506" y="549" on="0"/>
        <pt x="506" y="357" on="1"/>
        <pt x="506" y="165" on="0"/>
        <pt x="387" y="-12" on="0"/>
        <pt x="278" y="-12" on="1"/>
        <pt x="168" y="-12" on="0"/>
        <pt x="50" y="165" on="0"/>
      </contour>
    </TTGlyph>
    <TTGlyph name="OE" xMin="42" yMin="-12" xMax="758" yMax="726">
      <contour>
        <pt x="410" y="714" on="1"/>
        <pt x="749" y="714" on="1"/>
        <pt x="749" y="660" on="1"/>
        <pt x="474" y="660" on="1"/>
        <pt x="474" y="400" on="1"/>
        <pt x="730" y="400" on="1"/>
        <pt x="730" y="346" on="1"/>
        <pt x="474" y="346" on="1"/>
        <pt x="474" y="54" on="1"/>
        <pt x="758" y="54" on="1"/>
        <pt x="758" y="0" on="1"/>
        <pt x="410" y="0" on="1"/>
        <pt x="410" y="64" on="1"/>
        <pt x="408" y="64" on="1"/>
        <pt x="392" y="26" on="0"/>
        <pt x="318" y="-12" on="0"/>
        <pt x="270" y="-12" on="1"/>
        <pt x="160" y="-12" on="0"/>
        <pt x="42" y="165" on="0"/>
        <pt x="42" y="357" on="1"/>
        <pt x="42" y="549" on="0"/>
        <pt x="160" y="726" on="0"/>
        <pt x="270" y="726" on="1"/>
        <pt x="327" y="726" on="0"/>
        <pt x="390" y="689" on="0"/>
        <pt x="408" y="656" on="1"/>
        <pt x="410" y="656" on="1"/>
      </contour>
      <contour>
        <pt x="410" y="491" on="1"/>
        <pt x="410" y="543" on="0"/>
        <pt x="394" y="613" on="0"/>
        <pt x="359" y="655" on="0"/>
        <pt x="306" y="672" on="0"/>
        <pt x="270" y="672" on="1"/>
        <pt x="232" y="672" on="0"/>
        <pt x="171" y="639" on="0"/>
        <pt x="129" y="564" on="0"/>
        <pt x="106" y="444" on="0"/>
        <pt x="106" y="357" on="1"/>
        <pt x="106" y="270" on="0"/>
        <pt x="129" y="150" on="0"/>
        <pt x="171" y="75" on="0"/>
        <pt x="232" y="42" on="0"/>
        <pt x="270" y="42" on="1"/>
        <pt x="344" y="42" on="0"/>
        <pt x="410" y="131" on="0"/>
        <pt x="410" y="237" on="1"/>
      </contour>
    </TTGlyph>
    <TTGlyph name="Oacute" xMin="50" yMin="-12" xMax="506" yMax="913">
      <component glyphName="O" x="0" y="0" flags="0x204"/>
      <component glyphName="acute" x="203" y="174" flags="0x4"/>
    </TTGlyph>
    <TTGlyph name="Obreve" xMin="50" yMin="-12" xMax="506" yMax="903">
      <component glyphName="O" x="0" y="0" flags="0x204"/>
      <component glyphName="breve" x="184" y="174" flags="0x4"/>
    </TTGlyph>
    <TTGlyph name="Ocircumflex" xMin="50" yMin="-12" xMax="506" yMax="913">
      <component glyphName="O" x="0" y="0" flags="0x204"/>
      <component glyphName="circumflex" x="185" y="174" flags="0x4"/>
    </TTGlyph>
    <TTGlyph name="Odieresis" xMin="50" yMin="-12" xMax="506" yMax="883">
      <component glyphName="O" x="0" y="0" flags="0x204"/>
      <component glyphName="dieresis" x="184" y="164" flags="0x4"/>
    </TTGlyph>
    <TTGlyph name="Ograve" xMin="50" yMin="-12" xMax="506" yMax="913">
      <component glyphName="O" x="0" y="0" flags="0x204"/>
      <component glyphName="grave" x="166" y="174" flags="0x4"/>
    </TTGlyph>
    <TTGlyph name="Ohungarumlaut" xMin="50" yMin="-12" xMax="506" yMax="913">
      <component glyphName="O" x="0" y="0" flags="0x204"/>
      <component glyphName="hungarumlaut" x="204" y="174" flags="0x4"/>
    </TTGlyph>
    <TTGlyph name="Omacron" xMin="50" yMin="-12" xMax="506" yMax="864">
      <component glyphName="O" x="0" y="0" flags="0x204"/>
      <component glyphName="macron" x="184" y="174" flags="0x4"/>
    </TTGlyph>
    <TTGlyph name="Omega" xMin="47" yMin="0" xMax="681" yMax="721">
      <contour>
        <pt x="436" y="0" on="1"/>
        <pt x="436" y="179" on="1"/>
        <pt x="531" y="196" on="0"/>
        <pt x="626" y="324" on="0"/>
        <pt x="626" y="418" on="1"/>
        <pt x="626" y="474" on="0"/>
        <pt x="585" y="567" on="0"/>
        <pt x="514" y="634" on="0"/>
        <pt x="418" y="671" on="0"/>
        <pt x="363" y="671" on="1"/>
        <pt x="309" y="671" on="0"/>
        <pt x="213" y="634" on="0"/>
        <pt x="142" y="567" on="0"/>
        <pt x="101" y="474" on="0"/>
        <pt x="101" y="419" on="1"/>
        <pt x="101" y="374" on="0"/>
        <pt x="126" y="292" on="0"/>
        <pt x="174" y="228" on="0"/>
        <pt x="245" y="185" on="0"/>
        <pt x="292" y="179" on="1"/>
        <pt x="292" y="0" on="1"/>
        <pt x="47" y="0" on="1"/>
        <pt x="47" y="48" on="1"/>
        <pt x="248" y="48" on="1"/>
        <pt x="248" y="140" on="1"/>
        <pt x="200" y="152" on="0"/>
        <pt x="126" y="206" on="0"/>
        <pt x="74" y="280" on="0"/>
        <pt x="47" y="370" on="0"/>
        <pt x="47" y="418" on="1"/>
        <pt x="47" y="484" on="0"/>
        <pt x="98" y="595" on="0"/>
        <pt x="185" y="676" on="0"/>
        <pt x="300" y="721" on="0"/>
        <pt x="365" y="721" on="1"/>
        <pt x="429" y="721" on="0"/>
        <pt x="543" y="676" on="0"/>
        <pt x="629" y="596" on="0"/>
        <pt x="680" y="485" on="0"/>
        <pt x="680" y="420" on="1"/>
        <pt x="680" y="371" on="0"/>
        <pt x="653" y="281" on="0"/>
        <pt x="602" y="207" on="0"/>
        <pt x="528" y="153" on="0"/>
        <pt x="480" y="140" on="1"/>
        <pt x="480" y="48" on="1"/>
        <pt x="681" y="48" on="1"/>
        <pt x="681" y="0" on="1"/>
      </contour>
    </TTGlyph>
    <TTGlyph name="Oslash" xMin="50" yMin="-42" xMax="506" yMax="756">
      <contour>
        <pt x="96" y="-26" on="1"/>
        <pt x="129" y="52" on="1"/>
        <pt x="90" y="95" on="0"/>
        <pt x="50" y="245" on="0"/>
        <pt x="50" y="357" on="1"/>
        <pt x="50" y="549" on="0"/>
        <pt x="168" y="726" on="0"/>
        <pt x="278" y="726" on="1"/>
        <pt x="350" y="726" on="0"/>
        <pt x="396" y="692" on="1"/>
        <pt x="423" y="756" on="1"/>
        <pt x="460" y="742" on="1"/>
        <pt x="427" y="663" on="1"/>
        <pt x="466" y="618" on="0"/>
        <pt x="506" y="469" on="0"/>
        <pt x="506" y="357" on="1"/>
        <pt x="506" y="165" on="0"/>
        <pt x="387" y="-12" on="0"/>
        <pt x="278" y="-12" on="1"/>
        <pt x="209" y="-12" on="0"/>
        <pt x="160" y="22" on="1"/>
        <pt x="133" y="-42" on="1"/>
      </contour>
      <contour>
        <pt x="183" y="80" on="1"/>
        <pt x="202" y="60" on="0"/>
        <pt x="249" y="42" on="0"/>
        <pt x="278" y="42" on="1"/>
        <pt x="316" y="42" on="0"/>
        <pt x="377" y="75" on="0"/>
        <pt x="419" y="150" on="0"/>
        <pt x="442" y="270" on="0"/>
        <pt x="442" y="357" on="1"/>
        <pt x="442" y="442" on="0"/>
        <pt x="421" y="558" on="0"/>
        <pt x="401" y="595" on="1"/>
      </contour>
      <contour>
        <pt x="374" y="634" on="1"/>
        <pt x="336" y="672" on="0"/>
        <pt x="278" y="672" on="1"/>
        <pt x="240" y="672" on="0"/>
        <pt x="179" y="639" on="0"/>
        <pt x="137" y="564" on="0"/>
        <pt x="114" y="444" on="0"/>
        <pt x="114" y="357" on="1"/>
        <pt x="114" y="196" on="0"/>
        <pt x="155" y="119" on="1"/>
      </contour>
    </TTGlyph>
    <TTGlyph name="Otilde" xMin="50" yMin="-12" xMax="506" yMax="883">
      <component glyphName="O" x="0" y="0" flags="0x204"/>
      <component glyphName="tilde" x="187" y="164" flags="0x4"/>
    </TTGlyph>
    <TTGlyph name="P" xMin="56" yMin="0" xMax="445" yMax="714">
      <contour>
        <pt x="56" y="714" on="1"/>
        <pt x="249" y="714" on="1"/>
        <pt x="300" y="714" on="0"/>
        <pt x="374" y="685" on="0"/>
        <pt x="422" y="632" on="0"/>
        <pt x="445" y="557" on="0"/>
        <pt x="445" y="512" on="1"/>
        <pt x="445" y="471" on="0"/>
        <pt x="423" y="397" on="0"/>
        <pt x="372" y="342" on="0"/>
        <pt x="288" y="310" on="0"/>
        <pt x="227" y="310" on="1"/>
        <pt x="120" y="310" on="1"/>
        <pt x="120" y="0" on="1"/>
        <pt x="56" y="0" on="1"/>
      </contour>
      <contour>
        <pt x="120" y="364" on="1"/>
        <pt x="229" y="364" on="1"/>
        <pt x="260" y="364" on="0"/>
        <pt x="316" y="379" on="0"/>
        <pt x="357" y="414" on="0"/>
        <pt x="381" y="471" on="0"/>
        <pt x="381" y="512" on="1"/>
        <pt x="381" y="593" on="0"/>
        <pt x="304" y="660" on="0"/>
        <pt x="229" y="660" on="1"/>
        <pt x="120" y="660" on="1"/>
      </contour>
    </TTGlyph>
    <TTGlyph name="Q" xMin="50" yMin="-38" xMax="514" yMax="726">
      <contour>
        <pt x="287" y="152" on="1"/>
        <pt x="322" y="190" on="1"/>
        <pt x="399" y="115" on="1"/>
        <pt x="420" y="153" on="0"/>
        <pt x="442" y="272" on="0"/>
        <pt x="442" y="357" on="1"/>
        <pt x="442" y="444" on="0"/>
        <pt x="419" y="564" on="0"/>
        <pt x="377" y="639" on="0"/>
        <pt x="316" y="672" on="0"/>
        <pt x="278" y="672" on="1"/>
        <pt x="240" y="672" on="0"/>
        <pt x="179" y="639" on="0"/>
        <pt x="137" y="564" on="0"/>
        <pt x="114" y="444" on="0"/>
        <pt x="114" y="357" on="1"/>
        <pt x="114" y="270" on="0"/>
        <pt x="137" y="150" on="0"/>
        <pt x="179" y="75" on="0"/>
        <pt x="240" y="42" on="0"/>
        <pt x="278" y="42" on="1"/>
        <pt x="304" y="42" on="0"/>
        <pt x="348" y="57" on="0"/>
        <pt x="368" y="74" on="1"/>
      </contour>
      <contour>
        <pt x="407" y="32" on="1"/>
        <pt x="355" y="-12" on="0"/>
        <pt x="278" y="-12" on="1"/>
        <pt x="168" y="-12" on="0"/>
        <pt x="50" y="165" on="0"/>
        <pt x="50" y="357" on="1"/>
        <pt x="50" y="549" on="0"/>
        <pt x="168" y="726" on="0"/>
        <pt x="278" y="726" on="1"/>
        <pt x="387" y="726" on="0"/>
        <pt x="506" y="549" on="0"/>
        <pt x="506" y="357" on="1"/>
        <pt x="506" y="255" on="0"/>
        <pt x="473" y="115" on="0"/>
        <pt x="441" y="70" on="1"/>
        <pt x="514" y="0" on="1"/>
        <pt x="479" y="-38" on="1"/>
      </contour>
    </TTGlyph>
    <TTGlyph name="R" xMin="56" yMin="0" xMax="479" yMax="714">
      <contour>
        <pt x="120" y="380" on="1"/>
        <pt x="230" y="380" on="1"/>
        <pt x="306" y="380" on="0"/>
        <pt x="390" y="448" on="0"/>
        <pt x="390" y="520" on="1"/>
        <pt x="390" y="586" on="0"/>
        <pt x="324" y="660" on="0"/>
        <pt x="237" y="660" on="1"/>
        <pt x="120" y="660" on="1"/>
      </contour>
      <contour>
        <pt x="56" y="714" on="1"/>
        <pt x="269" y="714" on="1"/>
        <pt x="360" y="714" on="0"/>
        <pt x="454" y="620" on="0"/>
        <pt x="454" y="535" on="1"/>
        <pt x="454" y="503" on="0"/>
        <pt x="440" y="443" on="0"/>
        <pt x="410" y="395" on="0"/>
        <pt x="361" y="361" on="0"/>
        <pt x="325" y="354" on="1"/>
        <pt x="325" y="352" on="1"/>
        <pt x="392" y="346" on="0"/>
        <pt x="445" y="267" on="0"/>
        <pt x="447" y="183" on="1"/>
        <pt x="449" y="105" on="1"/>
        <pt x="450" y="76" on="0"/>
        <pt x="460" y="21" on="0"/>
        <pt x="479" y="0" on="1"/>
        <pt x="404" y="0" on="1"/>
        <pt x="393" y="19" on="0"/>
        <pt x="386" y="71" on="0"/>
        <pt x="385" y="100" on="1"/>
        <pt x="383" y="160" on="1"/>
        <pt x="381" y="207" on="0"/>
        <pt x="369" y="271" on="0"/>
        <pt x="338" y="310" on="0"/>
        <pt x="284" y="326" on="0"/>
        <pt x="241" y="326" on="1"/>
        <pt x="120" y="326" on="1"/>
        <pt x="120" y="0" on="1"/>
        <pt x="56" y="0" on="1"/>
      </contour>
    </TTGlyph>
    <TTGlyph name="Racute" xMin="56" yMin="0" xMax="479" yMax="913">
      <component glyphName="R" x="0" y="0" flags="0x204"/>
      <component glyphName="acute" x="146" y="174" flags="0x4"/>
    </TTGlyph>
    <TTGlyph name="Rcaron" xMin="56" yMin="0" xMax="479" yMax="913">
      <component glyphName="R" x="0" y="0" flags="0x204"/>
      <component glyphName="caron" x="145" y="174" flags="0x4"/>
    </TTGlyph>
    <TTGlyph name="Rcommaaccent" xMin="56" yMin="-203" xMax="479" yMax="714">
      <component glyphName="R" x="0" y="0" flags="0x204"/>
      <component glyphName="commaaccent" x="127" y="0" flags="0x4"/>
    </TTGlyph>
    <TTGlyph name="S" xMin="28" yMin="-12" xMax="452" yMax="726">
      <contour>
        <pt x="369" y="531" on="1"/>
        <pt x="369" y="597" on="0"/>
        <pt x="307" y="672" on="0"/>
        <pt x="241" y="672" on="1"/>
        <pt x="208" y="672" on="0"/>
        <pt x="158" y="652" on="0"/>
        <pt x="124" y="617" on="0"/>
        <pt x="106" y="571" on="0"/>
        <pt x="106" y="544" on="1"/>
        <pt x="106" y="491" on="0"/>
        <pt x="157" y="433" on="0"/>
        <pt x="234" y="398" on="0"/>
        <pt x="324" y="372" on="0"/>
        <pt x="401" y="330" on="0"/>
        <pt x="452" y="259" on="0"/>
        <pt x="452" y="197" on="1"/>
        <pt x="452" y="145" on="0"/>
        <pt x="421" y="67" on="0"/>
        <pt x="364" y="14" on="0"/>
        <pt x="285" y="-12" on="0"/>
        <pt x="236" y="-12" on="1"/>
        <pt x="134" y="-12" on="0"/>
        <pt x="28" y="94" on="0"/>
        <pt x="28" y="200" on="1"/>
        <pt x="28" y="221" on="1"/>
        <pt x="92" y="221" on="1"/>
        <pt x="92" y="194" on="1"/>
        <pt x="92" y="125" on="0"/>
        <pt x="162" y="42" on="0"/>
        <pt x="234" y="42" on="1"/>
        <pt x="303" y="42" on="0"/>
        <pt x="388" y="112" on="0"/>
        <pt x="388" y="187" on="1"/>
        <pt x="388" y="227" on="0"/>
        <pt x="358" y="278" on="0"/>
        <pt x="310" y="312" on="0"/>
        <pt x="247" y="334" on="0"/>
        <pt x="183" y="355" on="0"/>
        <pt x="120" y="382" on="0"/>
        <pt x="72" y="424" on="0"/>
        <pt x="42" y="488" on="0"/>
        <pt x="42" y="537" on="1"/>
        <pt x="42" y="579" on="0"/>
        <pt x="69" y="649" on="0"/>
        <pt x="119" y="698" on="0"/>
        <pt x="192" y="726" on="0"/>
        <pt x="239" y="726" on="1"/>
        <pt x="339" y="726" on="0"/>
        <pt x="433" y="628" on="0"/>
        <pt x="433" y="531" on="1"/>
      </contour>
    </TTGlyph>
    <TTGlyph name="Sacute" xMin="28" yMin="-12" xMax="452" yMax="913">
      <component glyphName="S" x="0" y="0" flags="0x204"/>
      <component glyphName="acute" x="165" y="174" flags="0x4"/>
    </TTGlyph>
    <TTGlyph name="Scaron" xMin="28" yMin="-12" xMax="452" yMax="903">
      <component glyphName="S" x="0" y="0" flags="0x204"/>
      <component glyphName="caron" x="148" y="164" flags="0x4"/>
    </TTGlyph>
    <TTGlyph name="Scedilla" xMin="28" yMin="-203" xMax="452" yMax="726">
      <contour>
        <pt x="369" y="531" on="1"/>
        <pt x="369" y="597" on="0"/>
        <pt x="307" y="672" on="0"/>
        <pt x="241" y="672" on="1"/>
        <pt x="208" y="672" on="0"/>
        <pt x="158" y="652" on="0"/>
        <pt x="124" y="617" on="0"/>
        <pt x="106" y="571" on="0"/>
        <pt x="106" y="544" on="1"/>
        <pt x="106" y="491" on="0"/>
        <pt x="157" y="433" on="0"/>
        <pt x="234" y="398" on="0"/>
        <pt x="324" y="372" on="0"/>
        <pt x="401" y="330" on="0"/>
        <pt x="452" y="259" on="0"/>
        <pt x="452" y="197" on="1"/>
        <pt x="452" y="119" on="0"/>
        <pt x="384" y="21" on="0"/>
        <pt x="324" y="1" on="1"/>
        <pt x="292" y="-10" on="0"/>
        <pt x="256" y="-11" on="1"/>
        <pt x="222" y="-55" on="1"/>
        <pt x="224" y="-56" on="1"/>
        <pt x="231" y="-53" on="0"/>
        <pt x="248" y="-51" on="0"/>
        <pt x="258" y="-51" on="1"/>
        <pt x="290" y="-51" on="0"/>
        <pt x="335" y="-90" on="0"/>
        <pt x="335" y="-118" on="1"/>
        <pt x="335" y="-139" on="0"/>
        <pt x="315" y="-171" on="0"/>
        <pt x="284" y="-192" on="0"/>
        <pt x="246" y="-203" on="0"/>
        <pt x="229" y="-203" on="1"/>
        <pt x="206" y="-203" on="0"/>
        <pt x="155" y="-191" on="0"/>
        <pt x="140" y="-183" on="1"/>
        <pt x="152" y="-152" on="1"/>
        <pt x="164" y="-158" on="0"/>
        <pt x="195" y="-167" on="0"/>
        <pt x="212" y="-167" on="1"/>
        <pt x="248" y="-167" on="0"/>
        <pt x="281" y="-141" on="0"/>
        <pt x="281" y="-123" on="1"/>
        <pt x="281" y="-104" on="0"/>
        <pt x="248" y="-87" on="0"/>
        <pt x="228" y="-87" on="1"/>
        <pt x="200" y="-87" on="0"/>
        <pt x="184" y="-97" on="1"/>
        <pt x="171" y="-80" on="1"/>
        <pt x="219" y="-11" on="1"/>
        <pt x="130" y="-6" on="0"/>
        <pt x="81" y="41" on="1"/>
        <pt x="28" y="94" on="0"/>
        <pt x="28" y="200" on="1"/>
        <pt x="28" y="221" on="1"/>
        <pt x="92" y="221" on="1"/>
        <pt x="92" y="194" on="1"/>
        <pt x="92" y="125" on="0"/>
        <pt x="162" y="42" on="0"/>
        <pt x="234" y="42" on="1"/>
        <pt x="303" y="42" on="0"/>
        <pt x="388" y="112" on="0"/>
        <pt x="388" y="187" on="1"/>
        <pt x="388" y="227" on="0"/>
        <pt x="358" y="278" on="0"/>
        <pt x="310" y="312" on="0"/>
        <pt x="247" y="334" on="0"/>
        <pt x="183" y="355" on="0"/>
        <pt x="120" y="382" on="0"/>
        <pt x="72" y="424" on="0"/>
        <pt x="42" y="488" on="0"/>
        <pt x="42" y="537" on="1"/>
        <pt x="42" y="579" on="0"/>
        <pt x="69" y="649" on="0"/>
        <pt x="119" y="698" on="0"/>
        <pt x="192" y="726" on="0"/>
        <pt x="239" y="726" on="1"/>
        <pt x="339" y="726" on="0"/>
        <pt x="433" y="628" on="0"/>
        <pt x="433" y="531" on="1"/>
      </contour>
    </TTGlyph>
    <TTGlyph name="Scircumflex" xMin="28" yMin="-12" xMax="452" yMax="913">
      <component glyphName="S" x="0" y="0" flags="0x204"/>
      <component glyphName="circumflex" x="149" y="174" flags="0x4"/>
    </TTGlyph>
    <TTGlyph name="Scommaaccent" xMin="28" yMin="-203" xMax="452" yMax="726">
      <component glyphName="S" x="0" y="0" flags="0x204"/>
      <component glyphName="commaaccent" x="119" y="0" flags="0x4"/>
    </TTGlyph>
    <TTGlyph name="T" xMin="6" yMin="0" xMax="438" yMax="714">
      <contour>
        <pt x="190" y="660" on="1"/>
        <pt x="6" y="660" on="1"/>
        <pt x="6" y="714" on="1"/>
        <pt x="438" y="714" on="1"/>
        <pt x="438" y="660" on="1"/>
        <pt x="254" y="660" on="1"/>
        <pt x="254" y="0" on="1"/>
        <pt x="190" y="0" on="1"/>
      </contour>
    </TTGlyph>
    <TTGlyph name="Tbar" xMin="6" yMin="0" xMax="438" yMax="714">
      <contour>
        <pt x="62" y="486" on="1"/>
        <pt x="190" y="486" on="1"/>
        <pt x="190" y="660" on="1"/>
        <pt x="6" y="660" on="1"/>
        <pt x="6" y="714" on="1"/>
        <pt x="438" y="714" on="1"/>
        <pt x="438" y="660" on="1"/>
        <pt x="254" y="660" on="1"/>
        <pt x="254" y="486" on="1"/>
        <pt x="380" y="486" on="1"/>
        <pt x="380" y="442" on="1"/>
        <pt x="254" y="442" on="1"/>
        <pt x="254" y="0" on="1"/>
        <pt x="190" y="0" on="1"/>
        <pt x="190" y="442" on="1"/>
        <pt x="62" y="442" on="1"/>
      </contour>
    </TTGlyph>
    <TTGlyph name="Tcaron" xMin="6" yMin="0" xMax="438" yMax="913">
      <component glyphName="T" x="0" y="0" flags="0x204"/>
      <component glyphName="caron" x="129" y="174" flags="0x4"/>
    </TTGlyph>
    <TTGlyph name="Tcommaaccent" xMin="6" yMin="-203" xMax="438" yMax="714">
      <component glyphName="T" x="0" y="0" flags="0x204"/>
      <component glyphName="commaaccent" x="106" y="0" flags="0x4"/>
    </TTGlyph>
    <TTGlyph name="Thorn" xMin="56" yMin="0" xMax="445" yMax="714">
      <contour>
        <pt x="56" y="714" on="1"/>
        <pt x="120" y="714" on="1"/>
        <pt x="120" y="574" on="1"/>
        <pt x="254" y="574" on="1"/>
        <pt x="304" y="574" on="0"/>
        <pt x="376" y="544" on="0"/>
        <pt x="423" y="491" on="0"/>
        <pt x="445" y="417" on="0"/>
        <pt x="445" y="372" on="1"/>
        <pt x="445" y="331" on="0"/>
        <pt x="423" y="257" on="0"/>
        <pt x="372" y="202" on="0"/>
        <pt x="288" y="170" on="0"/>
        <pt x="227" y="170" on="1"/>
        <pt x="120" y="170" on="1"/>
        <pt x="120" y="0" on="1"/>
        <pt x="56" y="0" on="1"/>
      </contour>
      <contour>
        <pt x="120" y="224" on="1"/>
        <pt x="229" y="224" on="1"/>
        <pt x="260" y="224" on="0"/>
        <pt x="316" y="239" on="0"/>
        <pt x="357" y="274" on="0"/>
        <pt x="381" y="331" on="0"/>
        <pt x="381" y="372" on="1"/>
        <pt x="381" y="413" on="0"/>
        <pt x="357" y="470" on="0"/>
        <pt x="316" y="505" on="0"/>
        <pt x="260" y="520" on="0"/>
        <pt x="229" y="520" on="1"/>
        <pt x="120" y="520" on="1"/>
      </contour>
    </TTGlyph>
    <TTGlyph name="U" xMin="46" yMin="-12" xMax="454" yMax="714">
      <contour>
        <pt x="46" y="714" on="1"/>
        <pt x="110" y="714" on="1"/>
        <pt x="110" y="201" on="1"/>
        <pt x="110" y="42" on="0"/>
        <pt x="250" y="42" on="1"/>
        <pt x="390" y="42" on="0"/>
        <pt x="390" y="201" on="1"/>
        <pt x="390" y="714" on="1"/>
        <pt x="454" y="714" on="1"/>
        <pt x="454" y="200" on="1"/>
        <pt x="454" y="87" on="0"/>
        <pt x="349" y="-12" on="0"/>
        <pt x="250" y="-12" on="1"/>
        <pt x="151" y="-12" on="0"/>
        <pt x="46" y="87" on="0"/>
        <pt x="46" y="200" on="1"/>
      </contour>
    </TTGlyph>
    <TTGlyph name="Uacute" xMin="46" yMin="-12" xMax="454" yMax="913">
      <component glyphName="U" x="0" y="0" flags="0x204"/>
      <component glyphName="acute" x="160" y="174" flags="0x4"/>
    </TTGlyph>
    <TTGlyph name="Ubreve" xMin="46" yMin="-12" xMax="454" yMax="903">
      <component glyphName="U" x="0" y="0" flags="0x204"/>
      <component glyphName="breve" x="155" y="174" flags="0x4"/>
    </TTGlyph>
    <TTGlyph name="Ucircumflex" xMin="46" yMin="-12" xMax="454" yMax="913">
      <component glyphName="U" x="0" y="0" flags="0x204"/>
      <component glyphName="circumflex" x="160" y="174" flags="0x4"/>
    </TTGlyph>
    <TTGlyph name="Udieresis" xMin="46" yMin="-12" xMax="454" yMax="883">
      <component glyphName="U" x="0" y="0" flags="0x204"/>
      <component glyphName="dieresis" x="156" y="164" flags="0x4"/>
    </TTGlyph>
    <TTGlyph name="Ugrave" xMin="46" yMin="-12" xMax="454" yMax="913">
      <component glyphName="U" x="0" y="0" flags="0x204"/>
      <component glyphName="grave" x="142" y="174" flags="0x4"/>
    </TTGlyph>
    <TTGlyph name="Uhungarumlaut" xMin="46" yMin="-12" xMax="454" yMax="913">
      <component glyphName="U" x="0" y="0" flags="0x204"/>
      <component glyphName="hungarumlaut" x="173" y="174" flags="0x4"/>
    </TTGlyph>
    <TTGlyph name="Umacron" xMin="46" yMin="-12" xMax="454" yMax="864">
      <component glyphName="U" x="0" y="0" flags="0x204"/>
      <component glyphName="macron" x="157" y="174" flags="0x4"/>
    </TTGlyph>
    <TTGlyph name="Uogonek" xMin="46" yMin="-203" xMax="454" yMax="714">
      <contour>
        <pt x="46" y="714" on="1"/>
        <pt x="110" y="714" on="1"/>
        <pt x="110" y="201" on="1"/>
        <pt x="110" y="42" on="0"/>
        <pt x="250" y="42" on="1"/>
        <pt x="390" y="42" on="0"/>
        <pt x="390" y="201" on="1"/>
        <pt x="390" y="714" on="1"/>
        <pt x="454" y="714" on="1"/>
        <pt x="454" y="200" on="1"/>
        <pt x="454" y="87" on="0"/>
        <pt x="401" y="37" on="1"/>
        <pt x="359" y="-2" on="0"/>
        <pt x="284" y="-10" on="1"/>
        <pt x="247" y="-44" on="0"/>
        <pt x="230" y="-68" on="1"/>
        <pt x="209" y="-97" on="0"/>
        <pt x="209" y="-120" on="1"/>
        <pt x="209" y="-166" on="0"/>
        <pt x="254" y="-166" on="1"/>
        <pt x="269" y="-166" on="0"/>
        <pt x="308" y="-156" on="0"/>
        <pt x="323" y="-147" on="1"/>
        <pt x="336" y="-174" on="1"/>
        <pt x="316" y="-187" on="0"/>
        <pt x="268" y="-203" on="0"/>
        <pt x="240" y="-203" on="1"/>
        <pt x="195" y="-203" on="0"/>
        <pt x="155" y="-159" on="0"/>
        <pt x="155" y="-131" on="1"/>
        <pt x="155" y="-98" on="0"/>
        <pt x="181" y="-63" on="1"/>
        <pt x="203" y="-36" on="0"/>
        <pt x="235" y="-12" on="1"/>
        <pt x="147" y="-8" on="0"/>
        <pt x="98" y="37" on="1"/>
        <pt x="46" y="86" on="0"/>
        <pt x="46" y="200" on="1"/>
      </contour>
    </TTGlyph>
    <TTGlyph name="Uring" xMin="46" yMin="-12" xMax="454" yMax="928">
      <component glyphName="U" x="0" y="0" flags="0x204"/>
      <component glyphName="ring" x="158" y="150" flags="0x4"/>
    </TTGlyph>
    <TTGlyph name="Utilde" xMin="46" yMin="-12" xMax="454" yMax="893">
      <component glyphName="U" x="0" y="0" flags="0x204"/>
      <component glyphName="tilde" x="155" y="174" flags="0x4"/>
    </TTGlyph>
    <TTGlyph name="V" xMin="3" yMin="0" xMax="459" yMax="714">
      <contour>
        <pt x="3" y="714" on="1"/>
        <pt x="71" y="714" on="1"/>
        <pt x="230" y="68" on="1"/>
        <pt x="232" y="68" on="1"/>
        <pt x="391" y="714" on="1"/>
        <pt x="459" y="714" on="1"/>
        <pt x="271" y="0" on="1"/>
        <pt x="191" y="0" on="1"/>
      </contour>
    </TTGlyph>
    <TTGlyph name="W" xMin="11" yMin="0" xMax="711" yMax="714">
      <contour>
        <pt x="11" y="714" on="1"/>
        <pt x="75" y="714" on="1"/>
        <pt x="200" y="86" on="1"/>
        <pt x="202" y="86" on="1"/>
        <pt x="324" y="714" on="1"/>
        <pt x="398" y="714" on="1"/>
        <pt x="520" y="86" on="1"/>
        <pt x="522" y="86" on="1"/>
        <pt x="647" y="714" on="1"/>
        <pt x="711" y="714" on="1"/>
        <pt x="560" y="0" on="1"/>
        <pt x="480" y="0" on="1"/>
        <pt x="362" y="628" on="1"/>
        <pt x="360" y="628" on="1"/>
        <pt x="242" y="0" on="1"/>
        <pt x="162" y="0" on="1"/>
      </contour>
    </TTGlyph>
    <TTGlyph name="Wcircumflex" xMin="11" yMin="0" xMax="711" yMax="913">
      <component glyphName="W" x="0" y="0" flags="0x204"/>
      <component glyphName="circumflex" x="267" y="174" flags="0x4"/>
    </TTGlyph>
    <TTGlyph name="X" xMin="-1" yMin="0" xMax="463" yMax="714">
      <contour>
        <pt x="229" y="307" on="1"/>
        <pt x="63" y="0" on="1"/>
        <pt x="-1" y="0" on="1"/>
        <pt x="195" y="364" on="1"/>
        <pt x="12" y="714" on="1"/>
        <pt x="80" y="714" on="1"/>
        <pt x="232" y="424" on="1"/>
        <pt x="386" y="714" on="1"/>
        <pt x="450" y="714" on="1"/>
        <pt x="266" y="364" on="1"/>
        <pt x="463" y="0" on="1"/>
        <pt x="395" y="0" on="1"/>
      </contour>
    </TTGlyph>
    <TTGlyph name="Y" xMin="-3" yMin="0" xMax="447" yMax="714">
      <contour>
        <pt x="190" y="286" on="1"/>
        <pt x="-3" y="714" on="1"/>
        <pt x="65" y="714" on="1"/>
        <pt x="222" y="358" on="1"/>
        <pt x="379" y="714" on="1"/>
        <pt x="447" y="714" on="1"/>
        <pt x="254" y="286" on="1"/>
        <pt x="254" y="0" on="1"/>
        <pt x="190" y="0" on="1"/>
      </contour>
    </TTGlyph>
    <TTGlyph name="Yacute" xMin="-3" yMin="0" xMax="447" yMax="903">
      <component glyphName="Y" x="0" y="0" flags="0x204"/>
      <component glyphName="acute" x="146" y="164" flags="0x4"/>
    </TTGlyph>
    <TTGlyph name="Ycircumflex" xMin="-3" yMin="0" xMax="447" yMax="913">
      <component glyphName="Y" x="0" y="0" flags="0x204"/>
      <component glyphName="circumflex" x="132" y="174" flags="0x4"/>
    </TTGlyph>
    <TTGlyph name="Ydieresis" xMin="-3" yMin="0" xMax="447" yMax="883">
      <component glyphName="Y" x="0" y="0" flags="0x204"/>
      <component glyphName="dieresis" x="129" y="164" flags="0x4"/>
    </TTGlyph>
    <TTGlyph name="Z" xMin="22" yMin="0" xMax="440" yMax="714">
      <contour>
        <pt x="22" y="60" on="1"/>
        <pt x="370" y="660" on="1"/>
        <pt x="42" y="660" on="1"/>
        <pt x="42" y="714" on="1"/>
        <pt x="435" y="714" on="1"/>
        <pt x="435" y="654" on="1"/>
        <pt x="93" y="54" on="1"/>
        <pt x="440" y="54" on="1"/>
        <pt x="440" y="0" on="1"/>
        <pt x="22" y="0" on="1"/>
      </contour>
    </TTGlyph>
    <TTGlyph name="Zacute" xMin="22" yMin="0" xMax="440" yMax="913">
      <component glyphName="Z" x="0" y="0" flags="0x204"/>
      <component glyphName="acute" x="158" y="174" flags="0x4"/>
    </TTGlyph>
    <TTGlyph name="Zcaron" xMin="22" yMin="0" xMax="440" yMax="903">
      <component glyphName="Z" x="0" y="0" flags="0x204"/>
      <component glyphName="caron" x="138" y="164" flags="0x4"/>
    </TTGlyph>
    <TTGlyph name="Zdotaccent" xMin="22" yMin="0" xMax="440" yMax="893">
      <component glyphName="Z" x="0" y="0" flags="0x204"/>
      <component glyphName="dotaccent" x="140" y="174" flags="0x4"/>
    </TTGlyph>
    <TTGlyph name="a" xMin="30" yMin="-12" xMax="409" yMax="543">
      <contour>
        <pt x="301" y="300" on="1"/>
        <pt x="299" y="300" on="1"/>
        <pt x="294" y="286" on="0"/>
        <pt x="253" y="270" on="0"/>
        <pt x="235" y="265" on="1"/>
        <pt x="185" y="252" on="1"/>
        <pt x="140" y="240" on="0"/>
        <pt x="94" y="190" on="0"/>
        <pt x="94" y="142" on="1"/>
        <pt x="94" y="94" on="0"/>
        <pt x="139" y="38" on="0"/>
        <pt x="178" y="38" on="1"/>
        <pt x="233" y="38" on="0"/>
        <pt x="301" y="116" on="0"/>
        <pt x="301" y="188" on="1"/>
      </contour>
      <contour>
        <pt x="47" y="373" on="1"/>
        <pt x="47" y="455" on="0"/>
        <pt x="126" y="543" on="0"/>
        <pt x="211" y="543" on="1"/>
        <pt x="293" y="543" on="0"/>
        <pt x="361" y="465" on="0"/>
        <pt x="361" y="402" on="1"/>
        <pt x="361" y="88" on="1"/>
        <pt x="361" y="44" on="0"/>
        <pt x="392" y="44" on="1"/>
        <pt x="409" y="44" on="1"/>
        <pt x="409" y="0" on="1"/>
        <pt x="392" y="-6" on="0"/>
        <pt x="381" y="-6" on="1"/>
        <pt x="346" y="-6" on="0"/>
        <pt x="304" y="19" on="0"/>
        <pt x="304" y="60" on="1"/>
        <pt x="304" y="78" on="1"/>
        <pt x="302" y="78" on="1"/>
        <pt x="293" y="52" on="0"/>
        <pt x="265" y="17" on="0"/>
        <pt x="229" y="-4" on="0"/>
        <pt x="187" y="-12" on="0"/>
        <pt x="165" y="-12" on="1"/>
        <pt x="95" y="-12" on="0"/>
        <pt x="30" y="69" on="0"/>
        <pt x="30" y="138" on="1"/>
        <pt x="30" y="192" on="0"/>
        <pt x="80" y="269" on="0"/>
        <pt x="137" y="285" on="1"/>
        <pt x="250" y="317" on="1"/>
        <pt x="266" y="321" on="0"/>
        <pt x="286" y="331" on="0"/>
        <pt x="297" y="349" on="0"/>
        <pt x="301" y="378" on="0"/>
        <pt x="301" y="401" on="1"/>
        <pt x="301" y="452" on="0"/>
        <pt x="251" y="493" on="0"/>
        <pt x="209" y="493" on="1"/>
        <pt x="155" y="493" on="0"/>
        <pt x="107" y="431" on="0"/>
        <pt x="107" y="373" on="1"/>
      </contour>
    </TTGlyph>
    <TTGlyph name="aacute" xMin="30" yMin="-12" xMax="409" yMax="739">
      <component glyphName="a" x="0" y="0" flags="0x204"/>
      <component glyphName="acute" x="135" y="0" flags="0x4"/>
    </TTGlyph>
    <TTGlyph name="abreve" xMin="30" yMin="-12" xMax="409" yMax="729">
      <component glyphName="a" x="0" y="0" flags="0x204"/>
      <component glyphName="breve" x="117" y="0" flags="0x4"/>
    </TTGlyph>
    <TTGlyph name="acircumflex" xMin="30" yMin="-12" xMax="409" yMax="739">
      <component glyphName="a" x="0" y="0" flags="0x204"/>
      <component glyphName="circumflex" x="115" y="0" flags="0x4"/>
    </TTGlyph>
    <TTGlyph name="acute" xMin="50" yMin="598" xMax="196" yMax="739">
      <contour>
        <pt x="196" y="739" on="1"/>
        <pt x="98" y="598" on="1"/>
        <pt x="50" y="598" on="1"/>
        <pt x="125" y="739" on="1"/>
      </contour>
    </TTGlyph>
    <TTGlyph name="acute.cap" xMin="50" yMin="762" xMax="196" yMax="903">
      <contour>
        <pt x="196" y="903" on="1"/>
        <pt x="98" y="762" on="1"/>
        <pt x="50" y="762" on="1"/>
        <pt x="125" y="903" on="1"/>
      </contour>
    </TTGlyph>
    <TTGlyph name="adieresis" xMin="30" yMin="-12" xMax="409" yMax="719">
      <component glyphName="a" x="0" y="0" flags="0x204"/>
      <component glyphName="dieresis" x="115" y="0" flags="0x4"/>
    </TTGlyph>
    <TTGlyph name="ae" xMin="30" yMin="-12" xMax="618" yMax="543">
      <contour>
        <pt x="554" y="313" on="1"/>
        <pt x="554" y="362" on="0"/>
        <pt x="539" y="431" on="0"/>
        <pt x="511" y="474" on="0"/>
        <pt x="472" y="493" on="0"/>
        <pt x="449" y="493" on="1"/>
        <pt x="403" y="493" on="0"/>
        <pt x="346" y="412" on="0"/>
        <pt x="344" y="313" on="1"/>
      </contour>
      <contour>
        <pt x="175" y="247" on="1"/>
        <pt x="129" y="234" on="0"/>
        <pt x="94" y="185" on="0"/>
        <pt x="94" y="142" on="1"/>
        <pt x="94" y="94" on="0"/>
        <pt x="139" y="38" on="0"/>
        <pt x="178" y="38" on="1"/>
        <pt x="196" y="38" on="0"/>
        <pt x="233" y="53" on="0"/>
        <pt x="264" y="86" on="0"/>
        <pt x="284" y="138" on="0"/>
        <pt x="284" y="175" on="1"/>
        <pt x="284" y="286" on="1"/>
        <pt x="282" y="286" on="1"/>
        <pt x="277" y="279" on="0"/>
        <pt x="252" y="268" on="0"/>
        <pt x="237" y="264" on="1"/>
      </contour>
      <contour>
        <pt x="47" y="373" on="1"/>
        <pt x="47" y="455" on="0"/>
        <pt x="125" y="543" on="0"/>
        <pt x="204" y="543" on="1"/>
        <pt x="250" y="543" on="0"/>
        <pt x="319" y="502" on="0"/>
        <pt x="330" y="457" on="1"/>
        <pt x="332" y="457" on="1"/>
        <pt x="346" y="500" on="0"/>
        <pt x="416" y="543" on="0"/>
        <pt x="456" y="543" on="1"/>
        <pt x="545" y="543" on="0"/>
        <pt x="618" y="405" on="0"/>
        <pt x="618" y="263" on="1"/>
        <pt x="344" y="263" on="1"/>
        <pt x="344" y="234" on="1"/>
        <pt x="344" y="133" on="0"/>
        <pt x="404" y="38" on="0"/>
        <pt x="448" y="38" on="1"/>
        <pt x="470" y="38" on="0"/>
        <pt x="508" y="59" on="0"/>
        <pt x="536" y="95" on="0"/>
        <pt x="553" y="146" on="0"/>
        <pt x="553" y="176" on="1"/>
        <pt x="613" y="176" on="1"/>
        <pt x="608" y="85" on="0"/>
        <pt x="522" y="-12" on="0"/>
        <pt x="450" y="-12" on="1"/>
        <pt x="396" y="-12" on="0"/>
        <pt x="329" y="47" on="0"/>
        <pt x="313" y="98" on="1"/>
        <pt x="311" y="98" on="1"/>
        <pt x="295" y="40" on="0"/>
        <pt x="219" y="-12" on="0"/>
        <pt x="165" y="-12" on="1"/>
        <pt x="95" y="-12" on="0"/>
        <pt x="30" y="69" on="0"/>
        <pt x="30" y="138" on="1"/>
        <pt x="30" y="172" on="0"/>
        <pt x="44" y="221" on="0"/>
        <pt x="76" y="257" on="0"/>
        <pt x="126" y="281" on="0"/>
        <pt x="161" y="290" on="1"/>
        <pt x="233" y="309" on="1"/>
        <pt x="261" y="317" on="0"/>
        <pt x="284" y="346" on="0"/>
        <pt x="284" y="387" on="1"/>
        <pt x="284" y="444" on="0"/>
        <pt x="247" y="493" on="0"/>
        <pt x="202" y="493" on="1"/>
        <pt x="154" y="493" on="0"/>
        <pt x="107" y="431" on="0"/>
        <pt x="107" y="373" on="1"/>
      </contour>
    </TTGlyph>
    <TTGlyph name="afii61289" xMin="85" yMin="-14" xMax="406" yMax="721">
      <contour>
        <pt x="406" y="38" on="1"/>
        <pt x="353" y="-14" on="0"/>
        <pt x="286" y="-14" on="1"/>
        <pt x="236" y="-14" on="0"/>
        <pt x="167" y="45" on="0"/>
        <pt x="167" y="110" on="1"/>
        <pt x="167" y="240" on="1"/>
        <pt x="108" y="176" on="1"/>
        <pt x="106" y="176" on="1"/>
        <pt x="85" y="203" on="1"/>
        <pt x="167" y="287" on="1"/>
        <pt x="167" y="551" on="1"/>
        <pt x="167" y="635" on="0"/>
        <pt x="236" y="721" on="0"/>
        <pt x="285" y="721" on="1"/>
        <pt x="329" y="721" on="0"/>
        <pt x="384" y="657" on="0"/>
        <pt x="384" y="598" on="1"/>
        <pt x="384" y="525" on="0"/>
        <pt x="298" y="364" on="0"/>
        <pt x="218" y="277" on="1"/>
        <pt x="218" y="118" on="1"/>
        <pt x="218" y="91" on="0"/>
        <pt x="233" y="55" on="0"/>
        <pt x="255" y="34" on="0"/>
        <pt x="283" y="26" on="0"/>
        <pt x="296" y="26" on="1"/>
        <pt x="317" y="26" on="0"/>
        <pt x="362" y="45" on="0"/>
        <pt x="384" y="65" on="1"/>
        <pt x="386" y="65" on="1"/>
      </contour>
      <contour>
        <pt x="341" y="593" on="1"/>
        <pt x="341" y="634" on="0"/>
        <pt x="307" y="684" on="0"/>
        <pt x="284" y="684" on="1"/>
        <pt x="258" y="684" on="0"/>
        <pt x="218" y="624" on="0"/>
        <pt x="218" y="558" on="1"/>
        <pt x="218" y="325" on="1"/>
        <pt x="277" y="394" on="0"/>
        <pt x="341" y="533" on="0"/>
      </contour>
    </TTGlyph>
    <TTGlyph name="agrave" xMin="30" yMin="-12" xMax="409" yMax="739">
      <component glyphName="a" x="0" y="0" flags="0x204"/>
      <component glyphName="grave" x="124" y="0" flags="0x4"/>
    </TTGlyph>
    <TTGlyph name="amacron" xMin="30" yMin="-12" xMax="409" yMax="690">
      <component glyphName="a" x="0" y="0" flags="0x204"/>
      <component glyphName="macron" x="119" y="0" flags="0x4"/>
    </TTGlyph>
    <TTGlyph name="ampersand" xMin="22" yMin="-12" xMax="543" yMax="714">
      <contour>
        <pt x="214" y="366" on="1"/>
        <pt x="176" y="340" on="0"/>
        <pt x="127" y="292" on="0"/>
        <pt x="98" y="247" on="0"/>
        <pt x="86" y="205" on="0"/>
        <pt x="86" y="184" on="1"/>
        <pt x="86" y="152" on="0"/>
        <pt x="109" y="100" on="0"/>
        <pt x="149" y="62" on="0"/>
        <pt x="201" y="42" on="0"/>
        <pt x="231" y="42" on="1"/>
        <pt x="275" y="42" on="0"/>
        <pt x="359" y="90" on="0"/>
        <pt x="381" y="132" on="1"/>
      </contour>
      <contour>
        <pt x="162" y="584" on="1"/>
        <pt x="162" y="555" on="0"/>
        <pt x="199" y="481" on="0"/>
        <pt x="229" y="439" on="1"/>
        <pt x="259" y="461" on="0"/>
        <pt x="296" y="501" on="0"/>
        <pt x="317" y="537" on="0"/>
        <pt x="325" y="569" on="0"/>
        <pt x="325" y="584" on="1"/>
        <pt x="325" y="619" on="0"/>
        <pt x="279" y="664" on="0"/>
        <pt x="244" y="664" on="1"/>
        <pt x="209" y="664" on="0"/>
        <pt x="162" y="619" on="0"/>
      </contour>
      <contour>
        <pt x="412" y="87" on="1"/>
        <pt x="382" y="42" on="0"/>
        <pt x="288" y="-12" on="0"/>
        <pt x="222" y="-12" on="1"/>
        <pt x="176" y="-12" on="0"/>
        <pt x="102" y="18" on="0"/>
        <pt x="50" y="69" on="0"/>
        <pt x="22" y="138" on="0"/>
        <pt x="22" y="177" on="1"/>
        <pt x="22" y="234" on="0"/>
        <pt x="76" y="323" on="0"/>
        <pt x="125" y="361" on="1"/>
        <pt x="184" y="406" on="1"/>
        <pt x="146" y="457" on="0"/>
        <pt x="102" y="540" on="0"/>
        <pt x="102" y="582" on="1"/>
        <pt x="102" y="614" on="0"/>
        <pt x="125" y="664" on="0"/>
        <pt x="165" y="697" on="0"/>
        <pt x="218" y="714" on="0"/>
        <pt x="248" y="714" on="1"/>
        <pt x="311" y="714" on="0"/>
        <pt x="385" y="642" on="0"/>
        <pt x="385" y="582" on="1"/>
        <pt x="385" y="560" on="0"/>
        <pt x="374" y="518" on="0"/>
        <pt x="346" y="473" on="0"/>
        <pt x="297" y="425" on="0"/>
        <pt x="259" y="398" on="1"/>
        <pt x="413" y="182" on="1"/>
        <pt x="427" y="215" on="0"/>
        <pt x="438" y="284" on="0"/>
        <pt x="439" y="317" on="1"/>
        <pt x="499" y="317" on="1"/>
        <pt x="499" y="269" on="0"/>
        <pt x="473" y="175" on="0"/>
        <pt x="449" y="132" on="1"/>
        <pt x="543" y="0" on="1"/>
        <pt x="475" y="0" on="1"/>
      </contour>
    </TTGlyph>
    <TTGlyph name="aogonek" xMin="30" yMin="-203" xMax="409" yMax="543">
      <contour>
        <pt x="47" y="373" on="1"/>
        <pt x="47" y="455" on="0"/>
        <pt x="126" y="543" on="0"/>
        <pt x="211" y="543" on="1"/>
        <pt x="293" y="543" on="0"/>
        <pt x="361" y="465" on="0"/>
        <pt x="361" y="402" on="1"/>
        <pt x="361" y="88" on="1"/>
        <pt x="361" y="44" on="0"/>
        <pt x="392" y="44" on="1"/>
        <pt x="409" y="44" on="1"/>
        <pt x="409" y="0" on="1"/>
        <pt x="392" y="-6" on="0"/>
        <pt x="381" y="-6" on="1"/>
        <pt x="377" y="-6" on="0"/>
        <pt x="369" y="-6" on="0"/>
        <pt x="365" y="-5" on="1"/>
        <pt x="326" y="-44" on="0"/>
        <pt x="309" y="-68" on="1"/>
        <pt x="289" y="-97" on="0"/>
        <pt x="289" y="-120" on="1"/>
        <pt x="289" y="-166" on="0"/>
        <pt x="331" y="-166" on="1"/>
        <pt x="346" y="-166" on="0"/>
        <pt x="383" y="-156" on="0"/>
        <pt x="397" y="-147" on="1"/>
        <pt x="409" y="-174" on="1"/>
        <pt x="390" y="-187" on="0"/>
        <pt x="345" y="-203" on="0"/>
        <pt x="318" y="-203" on="1"/>
        <pt x="276" y="-203" on="0"/>
        <pt x="237" y="-159" on="0"/>
        <pt x="237" y="-131" on="1"/>
        <pt x="237" y="-97" on="0"/>
        <pt x="262" y="-63" on="1"/>
        <pt x="287" y="-31" on="0"/>
        <pt x="332" y="3" on="1"/>
        <pt x="329" y="4" on="0"/>
        <pt x="325" y="6" on="1"/>
        <pt x="304" y="19" on="0"/>
        <pt x="304" y="60" on="1"/>
        <pt x="304" y="78" on="1"/>
        <pt x="302" y="78" on="1"/>
        <pt x="293" y="52" on="0"/>
        <pt x="265" y="17" on="0"/>
        <pt x="229" y="-4" on="0"/>
        <pt x="187" y="-12" on="0"/>
        <pt x="165" y="-12" on="1"/>
        <pt x="95" y="-12" on="0"/>
        <pt x="30" y="69" on="0"/>
        <pt x="30" y="138" on="1"/>
        <pt x="30" y="192" on="0"/>
        <pt x="80" y="269" on="0"/>
        <pt x="137" y="285" on="1"/>
        <pt x="250" y="317" on="1"/>
        <pt x="266" y="321" on="0"/>
        <pt x="286" y="331" on="0"/>
        <pt x="297" y="349" on="0"/>
        <pt x="301" y="378" on="0"/>
        <pt x="301" y="401" on="1"/>
        <pt x="301" y="452" on="0"/>
        <pt x="251" y="493" on="0"/>
        <pt x="209" y="493" on="1"/>
        <pt x="155" y="493" on="0"/>
        <pt x="107" y="431" on="0"/>
        <pt x="107" y="373" on="1"/>
      </contour>
      <contour>
        <pt x="301" y="300" on="1"/>
        <pt x="299" y="300" on="1"/>
        <pt x="294" y="286" on="0"/>
        <pt x="253" y="270" on="0"/>
        <pt x="235" y="265" on="1"/>
        <pt x="185" y="252" on="1"/>
        <pt x="140" y="240" on="0"/>
        <pt x="94" y="190" on="0"/>
        <pt x="94" y="142" on="1"/>
        <pt x="94" y="94" on="0"/>
        <pt x="139" y="38" on="0"/>
        <pt x="178" y="38" on="1"/>
        <pt x="233" y="38" on="0"/>
        <pt x="301" y="116" on="0"/>
        <pt x="301" y="188" on="1"/>
      </contour>
    </TTGlyph>
    <TTGlyph name="approxequal" xMin="36" yMin="91" xMax="558" yMax="390">
      <contour>
        <pt x="558" y="390" on="1"/>
        <pt x="555" y="365" on="0"/>
        <pt x="539" y="319" on="0"/>
        <pt x="510" y="283" on="0"/>
        <pt x="468" y="261" on="0"/>
        <pt x="440" y="261" on="1"/>
        <pt x="407" y="261" on="0"/>
        <pt x="331" y="284" on="0"/>
        <pt x="256" y="312" on="0"/>
        <pt x="185" y="335" on="0"/>
        <pt x="157" y="335" on="1"/>
        <pt x="121" y="335" on="0"/>
        <pt x="79" y="285" on="0"/>
        <pt x="74" y="252" on="1"/>
        <pt x="36" y="252" on="1"/>
        <pt x="40" y="277" on="0"/>
        <pt x="56" y="324" on="0"/>
        <pt x="83" y="361" on="0"/>
        <pt x="124" y="383" on="0"/>
        <pt x="154" y="383" on="1"/>
        <pt x="187" y="383" on="0"/>
        <pt x="262" y="360" on="0"/>
        <pt x="337" y="332" on="0"/>
        <pt x="409" y="309" on="0"/>
        <pt x="438" y="309" on="1"/>
        <pt x="475" y="309" on="0"/>
        <pt x="515" y="357" on="0"/>
        <pt x="521" y="390" on="1"/>
      </contour>
      <contour>
        <pt x="558" y="229" on="1"/>
        <pt x="555" y="204" on="0"/>
        <pt x="539" y="158" on="0"/>
        <pt x="510" y="122" on="0"/>
        <pt x="468" y="100" on="0"/>
        <pt x="440" y="100" on="1"/>
        <pt x="406" y="100" on="0"/>
        <pt x="331" y="123" on="0"/>
        <pt x="256" y="151" on="0"/>
        <pt x="186" y="174" on="0"/>
        <pt x="157" y="174" on="1"/>
        <pt x="121" y="174" on="0"/>
        <pt x="79" y="124" on="0"/>
        <pt x="74" y="91" on="1"/>
        <pt x="36" y="91" on="1"/>
        <pt x="40" y="116" on="0"/>
        <pt x="56" y="163" on="0"/>
        <pt x="83" y="200" on="0"/>
        <pt x="124" y="222" on="0"/>
        <pt x="154" y="222" on="1"/>
        <pt x="187" y="222" on="0"/>
        <pt x="263" y="199" on="0"/>
        <pt x="338" y="171" on="0"/>
        <pt x="409" y="148" on="0"/>
        <pt x="438" y="148" on="1"/>
        <pt x="475" y="148" on="0"/>
        <pt x="515" y="196" on="0"/>
        <pt x="521" y="229" on="1"/>
      </contour>
    </TTGlyph>
    <TTGlyph name="aring" xMin="30" yMin="-12" xMax="409" yMax="778">
      <component glyphName="a" x="0" y="0" flags="0x204"/>
      <component glyphName="ring" x="115" y="0" flags="0x4"/>
    </TTGlyph>
    <TTGlyph name="asciicircum" xMin="44" yMin="243" xMax="556" yMax="696">
      <contour>
        <pt x="300" y="636" on="1"/>
        <pt x="98" y="243" on="1"/>
        <pt x="44" y="243" on="1"/>
        <pt x="275" y="696" on="1"/>
        <pt x="325" y="696" on="1"/>
        <pt x="556" y="243" on="1"/>
        <pt x="502" y="243" on="1"/>
      </contour>
    </TTGlyph>
    <TTGlyph name="asciitilde" xMin="69" yMin="190" xMax="531" yMax="316">
      <contour>
        <pt x="531" y="280" on="1"/>
        <pt x="515" y="258" on="0"/>
        <pt x="487" y="226" on="0"/>
        <pt x="459" y="205" on="0"/>
        <pt x="426" y="194" on="0"/>
        <pt x="406" y="194" on="1"/>
        <pt x="384" y="194" on="0"/>
        <pt x="341" y="207" on="0"/>
        <pt x="304" y="227" on="1"/>
        <pt x="263" y="249" on="0"/>
        <pt x="213" y="262" on="0"/>
        <pt x="189" y="262" on="1"/>
        <pt x="172" y="262" on="0"/>
        <pt x="147" y="249" on="0"/>
        <pt x="126" y="229" on="0"/>
        <pt x="111" y="203" on="0"/>
        <pt x="105" y="190" on="1"/>
        <pt x="69" y="226" on="1"/>
        <pt x="77" y="242" on="0"/>
        <pt x="99" y="273" on="0"/>
        <pt x="130" y="297" on="0"/>
        <pt x="169" y="312" on="0"/>
        <pt x="194" y="312" on="1"/>
        <pt x="216" y="312" on="0"/>
        <pt x="267" y="297" on="0"/>
        <pt x="305" y="280" on="1"/>
        <pt x="329" y="269" on="0"/>
        <pt x="362" y="255" on="0"/>
        <pt x="385" y="247" on="0"/>
        <pt x="401" y="244" on="0"/>
        <pt x="407" y="244" on="1"/>
        <pt x="431" y="244" on="0"/>
        <pt x="472" y="279" on="0"/>
        <pt x="495" y="316" on="1"/>
      </contour>
    </TTGlyph>
    <TTGlyph name="asterisk" xMin="26" yMin="445" xMax="308" yMax="714">
      <contour>
        <pt x="189" y="714" on="1"/>
        <pt x="189" y="603" on="1"/>
        <pt x="295" y="637" on="1"/>
        <pt x="308" y="595" on="1"/>
        <pt x="203" y="561" on="1"/>
        <pt x="268" y="471" on="1"/>
        <pt x="232" y="445" on="1"/>
        <pt x="167" y="535" on="1"/>
        <pt x="102" y="445" on="1"/>
        <pt x="66" y="471" on="1"/>
        <pt x="131" y="561" on="1"/>
        <pt x="26" y="595" on="1"/>
        <pt x="39" y="637" on="1"/>
        <pt x="145" y="603" on="1"/>
        <pt x="145" y="714" on="1"/>
      </contour>
    </TTGlyph>
    <TTGlyph name="at" xMin="31" yMin="-12" xMax="769" yMax="726">
      <contour>
        <pt x="572" y="558" on="1"/>
        <pt x="629" y="558" on="1"/>
        <pt x="527" y="264" on="1"/>
        <pt x="522" y="248" on="0"/>
        <pt x="514" y="217" on="0"/>
        <pt x="514" y="205" on="1"/>
        <pt x="514" y="180" on="0"/>
        <pt x="541" y="180" on="1"/>
        <pt x="574" y="180" on="0"/>
        <pt x="638" y="226" on="0"/>
        <pt x="688" y="298" on="0"/>
        <pt x="719" y="383" on="0"/>
        <pt x="719" y="422" on="1"/>
        <pt x="719" y="481" on="0"/>
        <pt x="669" y="577" on="0"/>
        <pt x="586" y="645" on="0"/>
        <pt x="478" y="682" on="0"/>
        <pt x="420" y="682" on="1"/>
        <pt x="346" y="682" on="0"/>
        <pt x="222" y="629" on="0"/>
        <pt x="132" y="540" on="0"/>
        <pt x="81" y="422" on="0"/>
        <pt x="81" y="357" on="1"/>
        <pt x="81" y="289" on="0"/>
        <pt x="133" y="171" on="0"/>
        <pt x="225" y="83" on="0"/>
        <pt x="349" y="32" on="0"/>
        <pt x="420" y="32" on="1"/>
        <pt x="460" y="32" on="0"/>
        <pt x="541" y="51" on="0"/>
        <pt x="614" y="87" on="0"/>
        <pt x="675" y="138" on="0"/>
        <pt x="695" y="170" on="1"/>
        <pt x="755" y="170" on="1"/>
        <pt x="729" y="128" on="0"/>
        <pt x="656" y="61" on="0"/>
        <pt x="569" y="13" on="0"/>
        <pt x="471" y="-12" on="0"/>
        <pt x="420" y="-12" on="1"/>
        <pt x="337" y="-12" on="0"/>
        <pt x="195" y="46" on="0"/>
        <pt x="90" y="147" on="0"/>
        <pt x="31" y="281" on="0"/>
        <pt x="31" y="357" on="1"/>
        <pt x="31" y="433" on="0"/>
        <pt x="92" y="568" on="0"/>
        <pt x="198" y="668" on="0"/>
        <pt x="340" y="726" on="0"/>
        <pt x="420" y="726" on="1"/>
        <pt x="493" y="726" on="0"/>
        <pt x="620" y="680" on="0"/>
        <pt x="714" y="598" on="0"/>
        <pt x="769" y="486" on="0"/>
        <pt x="769" y="419" on="1"/>
        <pt x="769" y="361" on="0"/>
        <pt x="725" y="258" on="0"/>
        <pt x="657" y="181" on="0"/>
        <pt x="572" y="136" on="0"/>
        <pt x="532" y="136" on="1"/>
        <pt x="503" y="136" on="0"/>
        <pt x="463" y="169" on="0"/>
        <pt x="464" y="204" on="1"/>
        <pt x="462" y="204" on="1"/>
        <pt x="427" y="170" on="0"/>
        <pt x="363" y="136" on="0"/>
        <pt x="321" y="136" on="1"/>
        <pt x="261" y="136" on="0"/>
        <pt x="189" y="214" on="0"/>
        <pt x="189" y="283" on="1"/>
        <pt x="189" y="335" on="0"/>
        <pt x="225" y="439" on="0"/>
        <pt x="290" y="523" on="0"/>
        <pt x="379" y="575" on="0"/>
        <pt x="433" y="575" on="1"/>
        <pt x="468" y="575" on="0"/>
        <pt x="528" y="538" on="0"/>
        <pt x="545" y="492" on="1"/>
        <pt x="547" y="492" on="1"/>
      </contour>
      <contour>
        <pt x="243" y="288" on="1"/>
        <pt x="243" y="242" on="0"/>
        <pt x="284" y="186" on="0"/>
        <pt x="329" y="186" on="1"/>
        <pt x="369" y="186" on="0"/>
        <pt x="437" y="236" on="0"/>
        <pt x="486" y="310" on="0"/>
        <pt x="514" y="394" on="0"/>
        <pt x="514" y="429" on="1"/>
        <pt x="514" y="478" on="0"/>
        <pt x="473" y="525" on="0"/>
        <pt x="428" y="525" on="1"/>
        <pt x="387" y="525" on="0"/>
        <pt x="320" y="478" on="0"/>
        <pt x="270" y="407" on="0"/>
        <pt x="243" y="324" on="0"/>
      </contour>
    </TTGlyph>
    <TTGlyph name="atilde" xMin="30" yMin="-12" xMax="409" yMax="719">
      <component glyphName="a" x="0" y="0" flags="0x204"/>
      <component glyphName="tilde" x="113" y="0" flags="0x4"/>
    </TTGlyph>
    <TTGlyph name="b" xMin="52" yMin="-12" xMax="408" yMax="714">
      <contour>
        <pt x="112" y="266" on="1"/>
        <pt x="112" y="192" on="0"/>
        <pt x="131" y="102" on="0"/>
        <pt x="163" y="54" on="0"/>
        <pt x="205" y="38" on="0"/>
        <pt x="228" y="38" on="1"/>
        <pt x="250" y="38" on="0"/>
        <pt x="292" y="54" on="0"/>
        <pt x="325" y="102" on="0"/>
        <pt x="344" y="192" on="0"/>
        <pt x="344" y="266" on="1"/>
        <pt x="344" y="339" on="0"/>
        <pt x="325" y="429" on="0"/>
        <pt x="292" y="477" on="0"/>
        <pt x="250" y="493" on="0"/>
        <pt x="228" y="493" on="1"/>
        <pt x="205" y="493" on="0"/>
        <pt x="163" y="477" on="0"/>
        <pt x="131" y="429" on="0"/>
        <pt x="112" y="339" on="0"/>
      </contour>
      <contour>
        <pt x="52" y="714" on="1"/>
        <pt x="112" y="714" on="1"/>
        <pt x="112" y="451" on="1"/>
        <pt x="114" y="451" on="1"/>
        <pt x="124" y="493" on="0"/>
        <pt x="187" y="543" on="0"/>
        <pt x="238" y="543" on="1"/>
        <pt x="326" y="543" on="0"/>
        <pt x="408" y="405" on="0"/>
        <pt x="408" y="266" on="1"/>
        <pt x="408" y="126" on="0"/>
        <pt x="326" y="-12" on="0"/>
        <pt x="238" y="-12" on="1"/>
        <pt x="190" y="-12" on="0"/>
        <pt x="120" y="42" on="0"/>
        <pt x="108" y="88" on="1"/>
        <pt x="106" y="88" on="1"/>
        <pt x="106" y="0" on="1"/>
        <pt x="52" y="0" on="1"/>
      </contour>
    </TTGlyph>
    <TTGlyph name="backslash" xMin="-10" yMin="-12" xMax="288" yMax="726">
      <contour>
        <pt x="44" y="726" on="1"/>
        <pt x="288" y="-12" on="1"/>
        <pt x="234" y="-12" on="1"/>
        <pt x="-10" y="726" on="1"/>
      </contour>
    </TTGlyph>
    <TTGlyph name="bar" xMin="86" yMin="-12" xMax="136" yMax="726">
      <contour>
        <pt x="86" y="726" on="1"/>
        <pt x="136" y="726" on="1"/>
        <pt x="136" y="-12" on="1"/>
        <pt x="86" y="-12" on="1"/>
      </contour>
    </TTGlyph>
    <TTGlyph name="braceleft" xMin="33" yMin="-184" xMax="249" yMax="714">
      <contour>
        <pt x="91" y="594" on="1"/>
        <pt x="91" y="649" on="0"/>
        <pt x="141" y="714" on="0"/>
        <pt x="198" y="714" on="1"/>
        <pt x="249" y="714" on="1"/>
        <pt x="249" y="664" on="1"/>
        <pt x="199" y="664" on="1"/>
        <pt x="176" y="664" on="0"/>
        <pt x="151" y="635" on="0"/>
        <pt x="151" y="596" on="1"/>
        <pt x="151" y="410" on="1"/>
        <pt x="152" y="338" on="0"/>
        <pt x="117" y="273" on="0"/>
        <pt x="83" y="266" on="1"/>
        <pt x="83" y="264" on="1"/>
        <pt x="117" y="257" on="0"/>
        <pt x="152" y="192" on="0"/>
        <pt x="151" y="120" on="1"/>
        <pt x="151" y="-66" on="1"/>
        <pt x="151" y="-105" on="0"/>
        <pt x="176" y="-134" on="0"/>
        <pt x="199" y="-134" on="1"/>
        <pt x="249" y="-134" on="1"/>
        <pt x="249" y="-184" on="1"/>
        <pt x="198" y="-184" on="1"/>
        <pt x="141" y="-184" on="0"/>
        <pt x="91" y="-119" on="0"/>
        <pt x="91" y="-64" on="1"/>
        <pt x="91" y="111" on="1"/>
        <pt x="91" y="186" on="0"/>
        <pt x="66" y="240" on="0"/>
        <pt x="33" y="240" on="1"/>
        <pt x="33" y="290" on="1"/>
        <pt x="66" y="290" on="0"/>
        <pt x="91" y="344" on="0"/>
        <pt x="91" y="419" on="1"/>
      </contour>
    </TTGlyph>
    <TTGlyph name="braceright" xMin="-8" yMin="-184" xMax="208" yMax="714">
      <contour>
        <pt x="150" y="-64" on="1"/>
        <pt x="150" y="-119" on="0"/>
        <pt x="100" y="-184" on="0"/>
        <pt x="43" y="-184" on="1"/>
        <pt x="-8" y="-184" on="1"/>
        <pt x="-8" y="-134" on="1"/>
        <pt x="42" y="-134" on="1"/>
        <pt x="65" y="-134" on="0"/>
        <pt x="90" y="-105" on="0"/>
        <pt x="90" y="-66" on="1"/>
        <pt x="90" y="120" on="1"/>
        <pt x="89" y="192" on="0"/>
        <pt x="124" y="257" on="0"/>
        <pt x="158" y="264" on="1"/>
        <pt x="158" y="266" on="1"/>
        <pt x="124" y="273" on="0"/>
        <pt x="89" y="338" on="0"/>
        <pt x="90" y="410" on="1"/>
        <pt x="90" y="596" on="1"/>
        <pt x="90" y="635" on="0"/>
        <pt x="65" y="664" on="0"/>
        <pt x="42" y="664" on="1"/>
        <pt x="-8" y="664" on="1"/>
        <pt x="-8" y="714" on="1"/>
        <pt x="43" y="714" on="1"/>
        <pt x="100" y="714" on="0"/>
        <pt x="150" y="649" on="0"/>
        <pt x="150" y="594" on="1"/>
        <pt x="150" y="419" on="1"/>
        <pt x="150" y="344" on="0"/>
        <pt x="175" y="290" on="0"/>
        <pt x="208" y="290" on="1"/>
        <pt x="208" y="240" on="1"/>
        <pt x="175" y="240" on="0"/>
        <pt x="150" y="186" on="0"/>
        <pt x="150" y="111" on="1"/>
      </contour>
    </TTGlyph>
    <TTGlyph name="bracketleft" xMin="83" yMin="-184" xMax="241" yMax="714">
      <contour>
        <pt x="83" y="714" on="1"/>
        <pt x="241" y="714" on="1"/>
        <pt x="241" y="664" on="1"/>
        <pt x="143" y="664" on="1"/>
        <pt x="143" y="-134" on="1"/>
        <pt x="241" y="-134" on="1"/>
        <pt x="241" y="-184" on="1"/>
        <pt x="83" y="-184" on="1"/>
      </contour>
    </TTGlyph>
    <TTGlyph name="bracketright" xMin="0" yMin="-184" xMax="158" yMax="714">
      <contour>
        <pt x="0" y="-134" on="1"/>
        <pt x="98" y="-134" on="1"/>
        <pt x="98" y="664" on="1"/>
        <pt x="0" y="664" on="1"/>
        <pt x="0" y="714" on="1"/>
        <pt x="158" y="714" on="1"/>
        <pt x="158" y="-184" on="1"/>
        <pt x="0" y="-184" on="1"/>
      </contour>
    </TTGlyph>
    <TTGlyph name="breve" xMin="-28" yMin="607" xMax="214" yMax="729">
      <contour>
        <pt x="16" y="729" on="1"/>
        <pt x="18" y="710" on="0"/>
        <pt x="32" y="682" on="0"/>
        <pt x="42" y="671" on="1"/>
        <pt x="62" y="651" on="0"/>
        <pt x="93" y="651" on="1"/>
        <pt x="123" y="651" on="0"/>
        <pt x="165" y="691" on="0"/>
        <pt x="170" y="729" on="1"/>
        <pt x="214" y="729" on="1"/>
        <pt x="210" y="672" on="0"/>
        <pt x="144" y="607" on="0"/>
        <pt x="93" y="607" on="1"/>
        <pt x="42" y="607" on="0"/>
        <pt x="-24" y="672" on="0"/>
        <pt x="-28" y="729" on="1"/>
      </contour>
    </TTGlyph>
    <TTGlyph name="breve.cap" xMin="-28" yMin="781" xMax="214" yMax="903">
      <contour>
        <pt x="16" y="903" on="1"/>
        <pt x="18" y="884" on="0"/>
        <pt x="32" y="856" on="0"/>
        <pt x="42" y="845" on="1"/>
        <pt x="62" y="825" on="0"/>
        <pt x="93" y="825" on="1"/>
        <pt x="123" y="825" on="0"/>
        <pt x="165" y="865" on="0"/>
        <pt x="170" y="903" on="1"/>
        <pt x="214" y="903" on="1"/>
        <pt x="210" y="846" on="0"/>
        <pt x="144" y="781" on="0"/>
        <pt x="93" y="781" on="1"/>
        <pt x="42" y="781" on="0"/>
        <pt x="-24" y="846" on="0"/>
        <pt x="-28" y="903" on="1"/>
      </contour>
    </TTGlyph>
    <TTGlyph name="brokenbar" xMin="86" yMin="-12" xMax="136" yMax="726">
      <contour>
        <pt x="86" y="726" on="1"/>
        <pt x="136" y="726" on="1"/>
        <pt x="136" y="456" on="1"/>
        <pt x="86" y="456" on="1"/>
      </contour>
      <contour>
        <pt x="86" y="258" on="1"/>
        <pt x="136" y="258" on="1"/>
        <pt x="136" y="-12" on="1"/>
        <pt x="86" y="-12" on="1"/>
      </contour>
    </TTGlyph>
    <TTGlyph name="bullet" xMin="72" yMin="179" xMax="428" yMax="535">
      <contour>
        <pt x="72" y="357" on="1"/>
        <pt x="72" y="394" on="0"/>
        <pt x="100" y="459" on="0"/>
        <pt x="148" y="507" on="0"/>
        <pt x="213" y="535" on="0"/>
        <pt x="250" y="535" on="1"/>
        <pt x="287" y="535" on="0"/>
        <pt x="352" y="507" on="0"/>
        <pt x="400" y="459" on="0"/>
        <pt x="428" y="394" on="0"/>
        <pt x="428" y="357" on="1"/>
        <pt x="428" y="320" on="0"/>
        <pt x="400" y="255" on="0"/>
        <pt x="352" y="207" on="0"/>
        <pt x="287" y="179" on="0"/>
        <pt x="250" y="179" on="1"/>
        <pt x="213" y="179" on="0"/>
        <pt x="148" y="207" on="0"/>
        <pt x="100" y="255" on="0"/>
        <pt x="72" y="320" on="0"/>
      </contour>
    </TTGlyph>
    <TTGlyph name="c" xMin="30" yMin="-12" xMax="377" yMax="543">
      <contour>
        <pt x="377" y="176" on="1"/>
        <pt x="370" y="91" on="0"/>
        <pt x="283" y="-12" on="0"/>
        <pt x="208" y="-12" on="1"/>
        <pt x="166" y="-12" on="0"/>
        <pt x="100" y="19" on="0"/>
        <pt x="54" y="85" on="0"/>
        <pt x="30" y="191" on="0"/>
        <pt x="30" y="266" on="1"/>
        <pt x="30" y="406" on="0"/>
        <pt x="125" y="543" on="0"/>
        <pt x="213" y="543" on="1"/>
        <pt x="288" y="543" on="0"/>
        <pt x="372" y="455" on="0"/>
        <pt x="377" y="373" on="1"/>
        <pt x="317" y="373" on="1"/>
        <pt x="312" y="436" on="0"/>
        <pt x="261" y="493" on="0"/>
        <pt x="213" y="493" on="1"/>
        <pt x="189" y="493" on="0"/>
        <pt x="145" y="475" on="0"/>
        <pt x="113" y="424" on="0"/>
        <pt x="94" y="335" on="0"/>
        <pt x="94" y="265" on="1"/>
        <pt x="94" y="190" on="0"/>
        <pt x="114" y="100" on="0"/>
        <pt x="145" y="53" on="0"/>
        <pt x="186" y="38" on="0"/>
        <pt x="207" y="38" on="1"/>
        <pt x="301" y="38" on="0"/>
        <pt x="317" y="176" on="1"/>
      </contour>
    </TTGlyph>
    <TTGlyph name="cacute" xMin="30" yMin="-12" xMax="377" yMax="739">
      <component glyphName="c" x="0" y="0" flags="0x204"/>
      <component glyphName="acute" x="140" y="0" flags="0x4"/>
    </TTGlyph>
    <TTGlyph name="caron" xMin="-34" yMin="598" xMax="220" yMax="739">
      <contour>
        <pt x="26" y="739" on="1"/>
        <pt x="93" y="638" on="1"/>
        <pt x="160" y="739" on="1"/>
        <pt x="220" y="739" on="1"/>
        <pt x="122" y="598" on="1"/>
        <pt x="62" y="598" on="1"/>
        <pt x="-34" y="739" on="1"/>
      </contour>
    </TTGlyph>
    <TTGlyph name="caron.alt" xMin="77" yMin="573" xMax="169" yMax="714">
      <contour>
        <pt x="169" y="714" on="1"/>
        <pt x="119" y="573" on="1"/>
        <pt x="77" y="573" on="1"/>
        <pt x="102" y="714" on="1"/>
      </contour>
    </TTGlyph>
    <TTGlyph name="caron.cap" xMin="-34" yMin="762" xMax="220" yMax="903">
      <contour>
        <pt x="26" y="903" on="1"/>
        <pt x="93" y="802" on="1"/>
        <pt x="160" y="903" on="1"/>
        <pt x="220" y="903" on="1"/>
        <pt x="122" y="762" on="1"/>
        <pt x="62" y="762" on="1"/>
        <pt x="-34" y="903" on="1"/>
      </contour>
    </TTGlyph>
    <TTGlyph name="ccaron" xMin="30" yMin="-12" xMax="377" yMax="739">
      <component glyphName="c" x="0" y="0" flags="0x204"/>
      <component glyphName="caron" x="120" y="0" flags="0x4"/>
    </TTGlyph>
    <TTGlyph name="ccedilla" xMin="30" yMin="-203" xMax="377" yMax="543">
      <contour>
        <pt x="377" y="176" on="1"/>
        <pt x="370" y="92" on="0"/>
        <pt x="326" y="39" on="1"/>
        <pt x="286" y="-5" on="0"/>
        <pt x="226" y="-11" on="1"/>
        <pt x="192" y="-55" on="1"/>
        <pt x="194" y="-56" on="1"/>
        <pt x="201" y="-53" on="0"/>
        <pt x="218" y="-51" on="0"/>
        <pt x="228" y="-51" on="1"/>
        <pt x="260" y="-51" on="0"/>
        <pt x="305" y="-90" on="0"/>
        <pt x="305" y="-118" on="1"/>
        <pt x="305" y="-139" on="0"/>
        <pt x="285" y="-171" on="0"/>
        <pt x="254" y="-192" on="0"/>
        <pt x="216" y="-203" on="0"/>
        <pt x="199" y="-203" on="1"/>
        <pt x="176" y="-203" on="0"/>
        <pt x="125" y="-191" on="0"/>
        <pt x="110" y="-183" on="1"/>
        <pt x="122" y="-152" on="1"/>
        <pt x="134" y="-158" on="0"/>
        <pt x="165" y="-167" on="0"/>
        <pt x="182" y="-167" on="1"/>
        <pt x="218" y="-167" on="0"/>
        <pt x="251" y="-141" on="0"/>
        <pt x="251" y="-123" on="1"/>
        <pt x="251" y="-104" on="0"/>
        <pt x="218" y="-87" on="0"/>
        <pt x="198" y="-87" on="1"/>
        <pt x="170" y="-87" on="0"/>
        <pt x="154" y="-97" on="1"/>
        <pt x="141" y="-80" on="1"/>
        <pt x="190" y="-11" on="1"/>
        <pt x="160" y="-8" on="0"/>
        <pt x="133" y="3" on="1"/>
        <pt x="83" y="27" on="0"/>
        <pt x="30" y="152" on="0"/>
        <pt x="30" y="266" on="1"/>
        <pt x="30" y="406" on="0"/>
        <pt x="125" y="543" on="0"/>
        <pt x="213" y="543" on="1"/>
        <pt x="288" y="543" on="0"/>
        <pt x="372" y="455" on="0"/>
        <pt x="377" y="373" on="1"/>
        <pt x="317" y="373" on="1"/>
        <pt x="312" y="436" on="0"/>
        <pt x="261" y="493" on="0"/>
        <pt x="213" y="493" on="1"/>
        <pt x="189" y="493" on="0"/>
        <pt x="145" y="475" on="0"/>
        <pt x="113" y="424" on="0"/>
        <pt x="94" y="335" on="0"/>
        <pt x="94" y="265" on="1"/>
        <pt x="94" y="190" on="0"/>
        <pt x="114" y="100" on="0"/>
        <pt x="145" y="53" on="0"/>
        <pt x="186" y="38" on="0"/>
        <pt x="207" y="38" on="1"/>
        <pt x="301" y="38" on="0"/>
        <pt x="317" y="176" on="1"/>
      </contour>
    </TTGlyph>
    <TTGlyph name="ccircumflex" xMin="30" yMin="-12" xMax="377" yMax="739">
      <component glyphName="c" x="0" y="0" flags="0x204"/>
      <component glyphName="circumflex" x="121" y="0" flags="0x4"/>
    </TTGlyph>
    <TTGlyph name="cdotaccent" xMin="30" yMin="-12" xMax="377" yMax="719">
      <component glyphName="c" x="0" y="0" flags="0x204"/>
      <component glyphName="dotaccent" x="119" y="0" flags="0x4"/>
    </TTGlyph>
    <TTGlyph name="cedilla" xMin="2" yMin="-203" xMax="197" yMax="0">
      <contour>
        <pt x="127" y="0" on="1"/>
        <pt x="84" y="-55" on="1"/>
        <pt x="86" y="-56" on="1"/>
        <pt x="93" y="-53" on="0"/>
        <pt x="110" y="-51" on="0"/>
        <pt x="120" y="-51" on="1"/>
        <pt x="152" y="-51" on="0"/>
        <pt x="197" y="-90" on="0"/>
        <pt x="197" y="-118" on="1"/>
        <pt x="197" y="-139" on="0"/>
        <pt x="177" y="-171" on="0"/>
        <pt x="146" y="-192" on="0"/>
        <pt x="108" y="-203" on="0"/>
        <pt x="91" y="-203" on="1"/>
        <pt x="68" y="-203" on="0"/>
        <pt x="17" y="-191" on="0"/>
        <pt x="2" y="-183" on="1"/>
        <pt x="14" y="-152" on="1"/>
        <pt x="26" y="-158" on="0"/>
        <pt x="57" y="-167" on="0"/>
        <pt x="74" y="-167" on="1"/>
        <pt x="110" y="-167" on="0"/>
        <pt x="143" y="-141" on="0"/>
        <pt x="143" y="-123" on="1"/>
        <pt x="143" y="-104" on="0"/>
        <pt x="110" y="-87" on="0"/>
        <pt x="90" y="-87" on="1"/>
        <pt x="62" y="-87" on="0"/>
        <pt x="46" y="-97" on="1"/>
        <pt x="33" y="-80" on="1"/>
        <pt x="90" y="0" on="1"/>
      </contour>
    </TTGlyph>
    <TTGlyph name="cent" xMin="66" yMin="-95" xMax="414" yMax="626">
      <contour>
        <pt x="232" y="-12" on="1"/>
        <pt x="153" y="-8" on="0"/>
        <pt x="66" y="123" on="0"/>
        <pt x="66" y="266" on="1"/>
        <pt x="66" y="399" on="0"/>
        <pt x="151" y="536" on="0"/>
        <pt x="232" y="543" on="1"/>
        <pt x="232" y="626" on="1"/>
        <pt x="262" y="626" on="1"/>
        <pt x="262" y="543" on="1"/>
        <pt x="334" y="538" on="0"/>
        <pt x="409" y="451" on="0"/>
        <pt x="414" y="373" on="1"/>
        <pt x="354" y="373" on="1"/>
        <pt x="349" y="430" on="0"/>
        <pt x="305" y="488" on="0"/>
        <pt x="262" y="493" on="1"/>
        <pt x="262" y="38" on="1"/>
        <pt x="340" y="54" on="0"/>
        <pt x="354" y="176" on="1"/>
        <pt x="414" y="176" on="1"/>
        <pt x="408" y="95" on="0"/>
        <pt x="329" y="-4" on="0"/>
        <pt x="262" y="-12" on="1"/>
        <pt x="262" y="-95" on="1"/>
        <pt x="232" y="-95" on="1"/>
      </contour>
      <contour>
        <pt x="232" y="493" on="1"/>
        <pt x="211" y="490" on="0"/>
        <pt x="173" y="466" on="0"/>
        <pt x="146" y="415" on="0"/>
        <pt x="130" y="329" on="0"/>
        <pt x="130" y="265" on="1"/>
        <pt x="130" y="195" on="0"/>
        <pt x="147" y="108" on="0"/>
        <pt x="176" y="58" on="0"/>
        <pt x="212" y="39" on="0"/>
        <pt x="232" y="38" on="1"/>
      </contour>
    </TTGlyph>
    <TTGlyph name="circumflex" xMin="-33" yMin="598" xMax="219" yMax="739">
      <contour>
        <pt x="-33" y="598" on="1"/>
        <pt x="63" y="739" on="1"/>
        <pt x="123" y="739" on="1"/>
        <pt x="219" y="598" on="1"/>
        <pt x="159" y="598" on="1"/>
        <pt x="93" y="698" on="1"/>
        <pt x="27" y="598" on="1"/>
      </contour>
    </TTGlyph>
    <TTGlyph name="circumflex.cap" xMin="-33" yMin="762" xMax="219" yMax="903">
      <contour>
        <pt x="-33" y="762" on="1"/>
        <pt x="63" y="903" on="1"/>
        <pt x="123" y="903" on="1"/>
        <pt x="219" y="762" on="1"/>
        <pt x="159" y="762" on="1"/>
        <pt x="93" y="862" on="1"/>
        <pt x="27" y="762" on="1"/>
      </contour>
    </TTGlyph>
    <TTGlyph name="colon" xMin="86" yMin="0" xMax="154" yMax="501">
      <contour>
        <pt x="86" y="102" on="1"/>
        <pt x="154" y="102" on="1"/>
        <pt x="154" y="0" on="1"/>
        <pt x="86" y="0" on="1"/>
      </contour>
      <contour>
        <pt x="86" y="501" on="1"/>
        <pt x="154" y="501" on="1"/>
        <pt x="154" y="399" on="1"/>
        <pt x="86" y="399" on="1"/>
      </contour>
    </TTGlyph>
    <TTGlyph name="comma" xMin="80" yMin="-138" xMax="154" yMax="102">
      <contour>
        <pt x="86" y="102" on="1"/>
        <pt x="154" y="102" on="1"/>
        <pt x="154" y="0" on="1"/>
        <pt x="154" y="-22" on="0"/>
        <pt x="148" y="-64" on="0"/>
        <pt x="132" y="-100" on="0"/>
        <pt x="103" y="-129" on="0"/>
        <pt x="80" y="-138" on="1"/>
        <pt x="80" y="-98" on="1"/>
        <pt x="100" y="-86" on="0"/>
        <pt x="114" y="-42" on="0"/>
        <pt x="115" y="0" on="1"/>
        <pt x="86" y="0" on="1"/>
      </contour>
    </TTGlyph>
    <TTGlyph name="commaaccent" xMin="84" yMin="-203" xMax="149" yMax="-50">
      <contour>
        <pt x="84" y="-50" on="1"/>
        <pt x="149" y="-50" on="1"/>
        <pt x="149" y="-134" on="1"/>
        <pt x="149" y="-154" on="0"/>
        <pt x="138" y="-180" on="0"/>
        <pt x="120" y="-196" on="0"/>
        <pt x="97" y="-202" on="0"/>
        <pt x="84" y="-203" on="1"/>
        <pt x="84" y="-180" on="1"/>
        <pt x="98" y="-175" on="0"/>
        <pt x="110" y="-163" on="0"/>
        <pt x="111" y="-142" on="1"/>
        <pt x="84" y="-142" on="1"/>
      </contour>
    </TTGlyph>
    <TTGlyph name="commaaccent.alt" xMin="89" yMin="622" xMax="154" yMax="775">
      <contour>
        <pt x="154" y="622" on="1"/>
        <pt x="89" y="622" on="1"/>
        <pt x="89" y="706" on="1"/>
        <pt x="89" y="726" on="0"/>
        <pt x="100" y="752" on="0"/>
        <pt x="118" y="768" on="0"/>
        <pt x="141" y="774" on="0"/>
        <pt x="154" y="775" on="1"/>
        <pt x="154" y="752" on="1"/>
        <pt x="140" y="747" on="0"/>
        <pt x="128" y="735" on="0"/>
        <pt x="127" y="714" on="1"/>
        <pt x="154" y="714" on="1"/>
      </contour>
    </TTGlyph>
    <TTGlyph name="copyright" xMin="31" yMin="-12" xMax="769" yMax="726">
      <contour>
        <pt x="81" y="357" on="1"/>
        <pt x="81" y="291" on="0"/>
        <pt x="131" y="175" on="0"/>
        <pt x="218" y="88" on="0"/>
        <pt x="334" y="38" on="0"/>
        <pt x="400" y="38" on="1"/>
        <pt x="466" y="38" on="0"/>
        <pt x="582" y="88" on="0"/>
        <pt x="669" y="175" on="0"/>
        <pt x="719" y="291" on="0"/>
        <pt x="719" y="357" on="1"/>
        <pt x="719" y="423" on="0"/>
        <pt x="669" y="539" on="0"/>
        <pt x="582" y="626" on="0"/>
        <pt x="466" y="676" on="0"/>
        <pt x="400" y="676" on="1"/>
        <pt x="334" y="676" on="0"/>
        <pt x="218" y="626" on="0"/>
        <pt x="131" y="539" on="0"/>
        <pt x="81" y="423" on="0"/>
      </contour>
      <contour>
        <pt x="31" y="357" on="1"/>
        <pt x="31" y="433" on="0"/>
        <pt x="89" y="568" on="0"/>
        <pt x="189" y="668" on="0"/>
        <pt x="323" y="726" on="0"/>
        <pt x="400" y="726" on="1"/>
        <pt x="476" y="726" on="0"/>
        <pt x="611" y="668" on="0"/>
        <pt x="711" y="568" on="0"/>
        <pt x="769" y="433" on="0"/>
        <pt x="769" y="357" on="1"/>
        <pt x="769" y="280" on="0"/>
        <pt x="711" y="146" on="0"/>
        <pt x="611" y="46" on="0"/>
        <pt x="476" y="-12" on="0"/>
        <pt x="400" y="-12" on="1"/>
        <pt x="323" y="-12" on="0"/>
        <pt x="189" y="46" on="0"/>
        <pt x="89" y="146" on="0"/>
        <pt x="31" y="280" on="0"/>
      </contour>
      <contour>
        <pt x="599" y="281" on="1"/>
        <pt x="582" y="211" on="0"/>
        <pt x="484" y="123" on="0"/>
        <pt x="412" y="123" on="1"/>
        <pt x="361" y="123" on="0"/>
        <pt x="279" y="159" on="0"/>
        <pt x="220" y="222" on="0"/>
        <pt x="189" y="307" on="0"/>
        <pt x="189" y="357" on="1"/>
        <pt x="189" y="408" on="0"/>
        <pt x="219" y="493" on="0"/>
        <pt x="276" y="555" on="0"/>
        <pt x="357" y="590" on="0"/>
        <pt x="409" y="590" on="1"/>
        <pt x="445" y="590" on="0"/>
        <pt x="510" y="570" on="0"/>
        <pt x="561" y="531" on="0"/>
        <pt x="594" y="474" on="0"/>
        <pt x="599" y="437" on="1"/>
        <pt x="545" y="437" on="1"/>
        <pt x="535" y="482" on="0"/>
        <pt x="466" y="540" on="0"/>
        <pt x="409" y="540" on="1"/>
        <pt x="368" y="540" on="0"/>
        <pt x="306" y="512" on="0"/>
        <pt x="264" y="462" on="0"/>
        <pt x="243" y="396" on="0"/>
        <pt x="243" y="357" on="1"/>
        <pt x="243" y="321" on="0"/>
        <pt x="266" y="255" on="0"/>
        <pt x="309" y="204" on="0"/>
        <pt x="372" y="173" on="0"/>
        <pt x="412" y="173" on="1"/>
        <pt x="466" y="173" on="0"/>
        <pt x="536" y="235" on="0"/>
        <pt x="545" y="281" on="1"/>
      </contour>
    </TTGlyph>
    <TTGlyph name="currency" xMin="20" yMin="128" xMax="460" yMax="568">
      <contour>
        <pt x="74" y="348" on="1"/>
        <pt x="74" y="311" on="0"/>
        <pt x="102" y="249" on="0"/>
        <pt x="148" y="204" on="0"/>
        <pt x="208" y="178" on="0"/>
        <pt x="240" y="178" on="1"/>
        <pt x="272" y="178" on="0"/>
        <pt x="332" y="204" on="0"/>
        <pt x="378" y="249" on="0"/>
        <pt x="406" y="311" on="0"/>
        <pt x="406" y="348" on="1"/>
        <pt x="406" y="385" on="0"/>
        <pt x="378" y="447" on="0"/>
        <pt x="332" y="492" on="0"/>
        <pt x="272" y="518" on="0"/>
        <pt x="240" y="518" on="1"/>
        <pt x="208" y="518" on="0"/>
        <pt x="148" y="492" on="0"/>
        <pt x="102" y="447" on="0"/>
        <pt x="74" y="385" on="0"/>
      </contour>
      <contour>
        <pt x="22" y="165" on="1"/>
        <pt x="69" y="212" on="1"/>
        <pt x="46" y="241" on="0"/>
        <pt x="20" y="310" on="0"/>
        <pt x="20" y="348" on="1"/>
        <pt x="20" y="386" on="0"/>
        <pt x="46" y="456" on="0"/>
        <pt x="69" y="485" on="1"/>
        <pt x="22" y="532" on="1"/>
        <pt x="57" y="568" on="1"/>
        <pt x="104" y="521" on="1"/>
        <pt x="132" y="543" on="0"/>
        <pt x="201" y="568" on="0"/>
        <pt x="240" y="568" on="1"/>
        <pt x="318" y="568" on="0"/>
        <pt x="377" y="520" on="1"/>
        <pt x="424" y="568" on="1"/>
        <pt x="459" y="532" on="1"/>
        <pt x="412" y="485" on="1"/>
        <pt x="460" y="428" on="0"/>
        <pt x="460" y="348" on="1"/>
        <pt x="460" y="309" on="0"/>
        <pt x="435" y="240" on="0"/>
        <pt x="413" y="212" on="1"/>
        <pt x="459" y="165" on="1"/>
        <pt x="424" y="128" on="1"/>
        <pt x="377" y="177" on="1"/>
        <pt x="348" y="154" on="0"/>
        <pt x="278" y="128" on="0"/>
        <pt x="240" y="128" on="1"/>
        <pt x="201" y="128" on="0"/>
        <pt x="130" y="154" on="0"/>
        <pt x="103" y="176" on="1"/>
        <pt x="57" y="128" on="1"/>
      </contour>
    </TTGlyph>
    <TTGlyph name="d" xMin="36" yMin="-12" xMax="392" yMax="714">
      <contour>
        <pt x="100" y="266" on="1"/>
        <pt x="100" y="192" on="0"/>
        <pt x="119" y="102" on="0"/>
        <pt x="152" y="54" on="0"/>
        <pt x="193" y="38" on="0"/>
        <pt x="216" y="38" on="1"/>
        <pt x="239" y="38" on="0"/>
        <pt x="281" y="54" on="0"/>
        <pt x="313" y="102" on="0"/>
        <pt x="332" y="192" on="0"/>
        <pt x="332" y="266" on="1"/>
        <pt x="332" y="339" on="0"/>
        <pt x="313" y="429" on="0"/>
        <pt x="281" y="477" on="0"/>
        <pt x="239" y="493" on="0"/>
        <pt x="216" y="493" on="1"/>
        <pt x="193" y="493" on="0"/>
        <pt x="152" y="477" on="0"/>
        <pt x="119" y="429" on="0"/>
        <pt x="100" y="339" on="0"/>
      </contour>
      <contour>
        <pt x="338" y="88" on="1"/>
        <pt x="336" y="88" on="1"/>
        <pt x="324" y="42" on="0"/>
        <pt x="254" y="-12" on="0"/>
        <pt x="206" y="-12" on="1"/>
        <pt x="118" y="-12" on="0"/>
        <pt x="36" y="126" on="0"/>
        <pt x="36" y="266" on="1"/>
        <pt x="36" y="405" on="0"/>
        <pt x="118" y="543" on="0"/>
        <pt x="206" y="543" on="1"/>
        <pt x="257" y="543" on="0"/>
        <pt x="320" y="493" on="0"/>
        <pt x="330" y="451" on="1"/>
        <pt x="332" y="451" on="1"/>
        <pt x="332" y="714" on="1"/>
        <pt x="392" y="714" on="1"/>
        <pt x="392" y="0" on="1"/>
        <pt x="338" y="0" on="1"/>
      </contour>
    </TTGlyph>
    <TTGlyph name="dagger" xMin="34" yMin="-145" xMax="446" yMax="714">
      <contour>
        <pt x="210" y="714" on="1"/>
        <pt x="270" y="714" on="1"/>
        <pt x="270" y="490" on="1"/>
        <pt x="446" y="490" on="1"/>
        <pt x="446" y="440" on="1"/>
        <pt x="270" y="440" on="1"/>
        <pt x="270" y="-145" on="1"/>
        <pt x="210" y="-145" on="1"/>
        <pt x="210" y="440" on="1"/>
        <pt x="34" y="440" on="1"/>
        <pt x="34" y="490" on="1"/>
        <pt x="210" y="490" on="1"/>
      </contour>
    </TTGlyph>
    <TTGlyph name="daggerdbl" xMin="34" yMin="-145" xMax="446" yMax="714">
      <contour>
        <pt x="270" y="714" on="1"/>
        <pt x="270" y="508" on="1"/>
        <pt x="446" y="508" on="1"/>
        <pt x="446" y="458" on="1"/>
        <pt x="270" y="458" on="1"/>
        <pt x="270" y="111" on="1"/>
        <pt x="446" y="111" on="1"/>
        <pt x="446" y="61" on="1"/>
        <pt x="270" y="61" on="1"/>
        <pt x="270" y="-145" on="1"/>
        <pt x="210" y="-145" on="1"/>
        <pt x="210" y="61" on="1"/>
        <pt x="34" y="61" on="1"/>
        <pt x="34" y="111" on="1"/>
        <pt x="210" y="111" on="1"/>
        <pt x="210" y="458" on="1"/>
        <pt x="34" y="458" on="1"/>
        <pt x="34" y="508" on="1"/>
        <pt x="210" y="508" on="1"/>
        <pt x="210" y="714" on="1"/>
      </contour>
    </TTGlyph>
    <TTGlyph name="dcaron" xMin="36" yMin="-12" xMax="527" yMax="714">
      <component glyphName="d" x="0" y="0" flags="0x4"/>
      <component glyphName="caron.alt" x="358" y="0" flags="0x4"/>
    </TTGlyph>
    <TTGlyph name="dcroat" xMin="36" yMin="-12" xMax="470" yMax="714">
      <contour>
        <pt x="338" y="88" on="1"/>
        <pt x="336" y="88" on="1"/>
        <pt x="324" y="42" on="0"/>
        <pt x="254" y="-12" on="0"/>
        <pt x="206" y="-12" on="1"/>
        <pt x="118" y="-12" on="0"/>
        <pt x="36" y="126" on="0"/>
        <pt x="36" y="266" on="1"/>
        <pt x="36" y="405" on="0"/>
        <pt x="118" y="543" on="0"/>
        <pt x="206" y="543" on="1"/>
        <pt x="257" y="543" on="0"/>
        <pt x="320" y="493" on="0"/>
        <pt x="330" y="451" on="1"/>
        <pt x="332" y="451" on="1"/>
        <pt x="332" y="591" on="1"/>
        <pt x="221" y="591" on="1"/>
        <pt x="221" y="635" on="1"/>
        <pt x="332" y="635" on="1"/>
        <pt x="332" y="714" on="1"/>
        <pt x="392" y="714" on="1"/>
        <pt x="392" y="635" on="1"/>
        <pt x="470" y="635" on="1"/>
        <pt x="470" y="591" on="1"/>
        <pt x="392" y="591" on="1"/>
        <pt x="392" y="0" on="1"/>
        <pt x="338" y="0" on="1"/>
      </contour>
      <contour>
        <pt x="100" y="266" on="1"/>
        <pt x="100" y="192" on="0"/>
        <pt x="119" y="102" on="0"/>
        <pt x="152" y="54" on="0"/>
        <pt x="193" y="38" on="0"/>
        <pt x="216" y="38" on="1"/>
        <pt x="239" y="38" on="0"/>
        <pt x="281" y="54" on="0"/>
        <pt x="313" y="102" on="0"/>
        <pt x="332" y="192" on="0"/>
        <pt x="332" y="266" on="1"/>
        <pt x="332" y="339" on="0"/>
        <pt x="313" y="429" on="0"/>
        <pt x="281" y="477" on="0"/>
        <pt x="239" y="493" on="0"/>
        <pt x="216" y="493" on="1"/>
        <pt x="193" y="493" on="0"/>
        <pt x="152" y="477" on="0"/>
        <pt x="119" y="429" on="0"/>
        <pt x="100" y="339" on="0"/>
      </contour>
    </TTGlyph>
    <TTGlyph name="degree" xMin="57" yMin="422" xMax="343" yMax="708">
      <contour>
        <pt x="57" y="565" on="1"/>
        <pt x="57" y="595" on="0"/>
        <pt x="79" y="647" on="0"/>
        <pt x="118" y="686" on="0"/>
        <pt x="170" y="708" on="0"/>
        <pt x="200" y="708" on="1"/>
        <pt x="230" y="708" on="0"/>
        <pt x="282" y="686" on="0"/>
        <pt x="321" y="647" on="0"/>
        <pt x="343" y="595" on="0"/>
        <pt x="343" y="565" on="1"/>
        <pt x="343" y="535" on="0"/>
        <pt x="321" y="483" on="0"/>
        <pt x="282" y="444" on="0"/>
        <pt x="230" y="422" on="0"/>
        <pt x="200" y="422" on="1"/>
        <pt x="170" y="422" on="0"/>
        <pt x="118" y="444" on="0"/>
        <pt x="79" y="483" on="0"/>
        <pt x="57" y="535" on="0"/>
      </contour>
      <contour>
        <pt x="101" y="565" on="1"/>
        <pt x="101" y="523" on="0"/>
        <pt x="158" y="466" on="0"/>
        <pt x="200" y="466" on="1"/>
        <pt x="242" y="466" on="0"/>
        <pt x="299" y="523" on="0"/>
        <pt x="299" y="565" on="1"/>
        <pt x="299" y="607" on="0"/>
        <pt x="242" y="664" on="0"/>
        <pt x="200" y="664" on="1"/>
        <pt x="158" y="664" on="0"/>
        <pt x="101" y="607" on="0"/>
      </contour>
    </TTGlyph>
    <TTGlyph name="dieresis" xMin="-12" yMin="617" xMax="198" yMax="719">
      <contour>
        <pt x="138" y="719" on="1"/>
        <pt x="198" y="719" on="1"/>
        <pt x="198" y="617" on="1"/>
        <pt x="138" y="617" on="1"/>
      </contour>
      <contour>
        <pt x="-12" y="719" on="1"/>
        <pt x="48" y="719" on="1"/>
        <pt x="48" y="617" on="1"/>
        <pt x="-12" y="617" on="1"/>
      </contour>
    </TTGlyph>
    <TTGlyph name="dieresis.cap" xMin="-12" yMin="781" xMax="198" yMax="883">
      <contour>
        <pt x="138" y="883" on="1"/>
        <pt x="198" y="883" on="1"/>
        <pt x="198" y="781" on="1"/>
        <pt x="138" y="781" on="1"/>
      </contour>
      <contour>
        <pt x="-12" y="883" on="1"/>
        <pt x="48" y="883" on="1"/>
        <pt x="48" y="781" on="1"/>
        <pt x="-12" y="781" on="1"/>
      </contour>
    </TTGlyph>
    <TTGlyph name="divide" xMin="47" yMin="-8" xMax="553" yMax="514">
      <contour>
        <pt x="245" y="47" on="1"/>
        <pt x="245" y="70" on="0"/>
        <pt x="277" y="102" on="0"/>
        <pt x="300" y="102" on="1"/>
        <pt x="323" y="102" on="0"/>
        <pt x="355" y="70" on="0"/>
        <pt x="355" y="47" on="1"/>
        <pt x="355" y="24" on="0"/>
        <pt x="323" y="-8" on="0"/>
        <pt x="300" y="-8" on="1"/>
        <pt x="277" y="-8" on="0"/>
        <pt x="245" y="24" on="0"/>
      </contour>
      <contour>
        <pt x="245" y="459" on="1"/>
        <pt x="245" y="482" on="0"/>
        <pt x="277" y="514" on="0"/>
        <pt x="300" y="514" on="1"/>
        <pt x="323" y="514" on="0"/>
        <pt x="355" y="482" on="0"/>
        <pt x="355" y="459" on="1"/>
        <pt x="355" y="436" on="0"/>
        <pt x="323" y="404" on="0"/>
        <pt x="300" y="404" on="1"/>
        <pt x="277" y="404" on="0"/>
        <pt x="245" y="436" on="0"/>
      </contour>
      <contour>
        <pt x="47" y="278" on="1"/>
        <pt x="553" y="278" on="1"/>
        <pt x="553" y="228" on="1"/>
        <pt x="47" y="228" on="1"/>
      </contour>
    </TTGlyph>
    <TTGlyph name="dollar" xMin="29" yMin="-95" xMax="451" yMax="779">
      <contour>
        <pt x="29" y="215" on="1"/>
        <pt x="93" y="215" on="1"/>
        <pt x="93" y="189" on="1"/>
        <pt x="93" y="126" on="0"/>
        <pt x="156" y="47" on="0"/>
        <pt x="219" y="42" on="1"/>
        <pt x="219" y="336" on="1"/>
        <pt x="186" y="346" on="0"/>
        <pt x="122" y="371" on="0"/>
        <pt x="72" y="412" on="0"/>
        <pt x="41" y="476" on="0"/>
        <pt x="41" y="524" on="1"/>
        <pt x="41" y="602" on="0"/>
        <pt x="134" y="701" on="0"/>
        <pt x="219" y="708" on="1"/>
        <pt x="219" y="779" on="1"/>
        <pt x="263" y="779" on="1"/>
        <pt x="263" y="708" on="1"/>
        <pt x="351" y="701" on="0"/>
        <pt x="432" y="606" on="0"/>
        <pt x="432" y="518" on="1"/>
        <pt x="368" y="518" on="1"/>
        <pt x="368" y="578" on="0"/>
        <pt x="317" y="648" on="0"/>
        <pt x="263" y="654" on="1"/>
        <pt x="263" y="381" on="1"/>
        <pt x="297" y="370" on="0"/>
        <pt x="364" y="345" on="0"/>
        <pt x="418" y="304" on="0"/>
        <pt x="451" y="241" on="0"/>
        <pt x="451" y="192" on="1"/>
        <pt x="451" y="98" on="0"/>
        <pt x="350" y="-4" on="0"/>
        <pt x="263" y="-12" on="1"/>
        <pt x="263" y="-95" on="1"/>
        <pt x="219" y="-95" on="1"/>
        <pt x="219" y="-12" on="1"/>
        <pt x="125" y="-7" on="0"/>
        <pt x="29" y="95" on="0"/>
        <pt x="29" y="195" on="1"/>
      </contour>
      <contour>
        <pt x="263" y="42" on="1"/>
        <pt x="318" y="48" on="0"/>
        <pt x="387" y="116" on="0"/>
        <pt x="387" y="182" on="1"/>
        <pt x="387" y="213" on="0"/>
        <pt x="367" y="258" on="0"/>
        <pt x="333" y="290" on="0"/>
        <pt x="288" y="312" on="0"/>
        <pt x="263" y="321" on="1"/>
      </contour>
      <contour>
        <pt x="219" y="654" on="1"/>
        <pt x="162" y="648" on="0"/>
        <pt x="105" y="578" on="0"/>
        <pt x="105" y="530" on="1"/>
        <pt x="105" y="500" on="0"/>
        <pt x="123" y="457" on="0"/>
        <pt x="154" y="425" on="0"/>
        <pt x="195" y="404" on="0"/>
        <pt x="219" y="396" on="1"/>
      </contour>
    </TTGlyph>
    <TTGlyph name="dotaccent" xMin="63" yMin="617" xMax="123" yMax="719">
      <contour>
        <pt x="63" y="719" on="1"/>
        <pt x="123" y="719" on="1"/>
        <pt x="123" y="617" on="1"/>
        <pt x="63" y="617" on="1"/>
      </contour>
    </TTGlyph>
    <TTGlyph name="dotaccent.cap" xMin="63" yMin="781" xMax="123" yMax="883">
      <contour>
        <pt x="63" y="883" on="1"/>
        <pt x="123" y="883" on="1"/>
        <pt x="123" y="781" on="1"/>
        <pt x="63" y="781" on="1"/>
      </contour>
    </TTGlyph>
    <TTGlyph name="dotlessi" xMin="62" yMin="0" xMax="122" yMax="531">
      <contour>
        <pt x="62" y="531" on="1"/>
        <pt x="122" y="531" on="1"/>
        <pt x="122" y="0" on="1"/>
        <pt x="62" y="0" on="1"/>
      </contour>
    </TTGlyph>
    <TTGlyph name="dotlessj" xMin="-26" yMin="-184" xMax="122" yMax="531">
      <contour>
        <pt x="62" y="531" on="1"/>
        <pt x="122" y="531" on="1"/>
        <pt x="122" y="-62" on="1"/>
        <pt x="122" y="-96" on="0"/>
        <pt x="104" y="-143" on="0"/>
        <pt x="73" y="-171" on="0"/>
        <pt x="31" y="-184" on="0"/>
        <pt x="7" y="-184" on="1"/>
        <pt x="-11" y="-184" on="0"/>
        <pt x="-26" y="-181" on="1"/>
        <pt x="-26" y="-131" on="1"/>
        <pt x="-21" y="-132" on="0"/>
        <pt x="-10" y="-134" on="0"/>
        <pt x="-3" y="-134" on="1"/>
        <pt x="13" y="-134" on="0"/>
        <pt x="37" y="-126" on="0"/>
        <pt x="53" y="-105" on="0"/>
        <pt x="62" y="-70" on="0"/>
        <pt x="62" y="-42" on="1"/>
      </contour>
    </TTGlyph>
    <TTGlyph name="e" xMin="36" yMin="-12" xMax="390" yMax="543">
      <contour>
        <pt x="326" y="313" on="1"/>
        <pt x="324" y="412" on="0"/>
        <pt x="268" y="493" on="0"/>
        <pt x="213" y="493" on="1"/>
        <pt x="157" y="493" on="0"/>
        <pt x="101" y="412" on="0"/>
        <pt x="100" y="313" on="1"/>
      </contour>
      <contour>
        <pt x="385" y="176" on="1"/>
        <pt x="378" y="91" on="0"/>
        <pt x="289" y="-12" on="0"/>
        <pt x="214" y="-12" on="1"/>
        <pt x="172" y="-12" on="0"/>
        <pt x="106" y="19" on="0"/>
        <pt x="60" y="85" on="0"/>
        <pt x="36" y="191" on="0"/>
        <pt x="36" y="266" on="1"/>
        <pt x="36" y="406" on="0"/>
        <pt x="131" y="543" on="0"/>
        <pt x="219" y="543" on="1"/>
        <pt x="307" y="543" on="0"/>
        <pt x="390" y="418" on="0"/>
        <pt x="390" y="285" on="1"/>
        <pt x="390" y="263" on="1"/>
        <pt x="100" y="263" on="1"/>
        <pt x="100" y="238" on="1"/>
        <pt x="100" y="181" on="0"/>
        <pt x="119" y="104" on="0"/>
        <pt x="150" y="57" on="0"/>
        <pt x="191" y="38" on="0"/>
        <pt x="213" y="38" on="1"/>
        <pt x="310" y="38" on="0"/>
        <pt x="325" y="176" on="1"/>
      </contour>
    </TTGlyph>
    <TTGlyph name="eacute" xMin="36" yMin="-12" xMax="390" yMax="739">
      <component glyphName="e" x="0" y="0" flags="0x204"/>
      <component glyphName="acute" x="140" y="0" flags="0x4"/>
    </TTGlyph>
    <TTGlyph name="ebreve" xMin="36" yMin="-12" xMax="390" yMax="729">
      <component glyphName="e" x="0" y="0" flags="0x204"/>
      <component glyphName="breve" x="122" y="0" flags="0x4"/>
    </TTGlyph>
    <TTGlyph name="ecaron" xMin="36" yMin="-12" xMax="390" yMax="739">
      <component glyphName="e" x="0" y="0" flags="0x204"/>
      <component glyphName="caron" x="121" y="0" flags="0x4"/>
    </TTGlyph>
    <TTGlyph name="ecircumflex" xMin="36" yMin="-12" xMax="390" yMax="739">
      <component glyphName="e" x="0" y="0" flags="0x204"/>
      <component glyphName="circumflex" x="123" y="0" flags="0x4"/>
    </TTGlyph>
    <TTGlyph name="edieresis" xMin="36" yMin="-12" xMax="390" yMax="719">
      <component glyphName="e" x="0" y="0" flags="0x204"/>
      <component glyphName="dieresis" x="122" y="0" flags="0x4"/>
    </TTGlyph>
    <TTGlyph name="edotaccent" xMin="36" yMin="-12" xMax="390" yMax="719">
      <component glyphName="e" x="0" y="0" flags="0x204"/>
      <component glyphName="dotaccent" x="124" y="0" flags="0x4"/>
    </TTGlyph>
    <TTGlyph name="egrave" xMin="36" yMin="-12" xMax="390" yMax="739">
      <component glyphName="e" x="0" y="0" flags="0x204"/>
      <component glyphName="grave" x="128" y="0" flags="0x4"/>
    </TTGlyph>
    <TTGlyph name="eight" xMin="41" yMin="-12" xMax="439" yMax="708">
      <contour>
        <pt x="126" y="530" on="1"/>
        <pt x="126" y="473" on="0"/>
        <pt x="183" y="403" on="0"/>
        <pt x="240" y="403" on="1"/>
        <pt x="298" y="403" on="0"/>
        <pt x="354" y="473" on="0"/>
        <pt x="354" y="530" on="1"/>
        <pt x="354" y="587" on="0"/>
        <pt x="298" y="658" on="0"/>
        <pt x="240" y="658" on="1"/>
        <pt x="183" y="658" on="0"/>
        <pt x="126" y="587" on="0"/>
      </contour>
      <contour>
        <pt x="41" y="200" on="1"/>
        <pt x="41" y="231" on="0"/>
        <pt x="57" y="291" on="0"/>
        <pt x="88" y="340" on="0"/>
        <pt x="136" y="372" on="0"/>
        <pt x="169" y="375" on="1"/>
        <pt x="169" y="377" on="1"/>
        <pt x="143" y="384" on="0"/>
        <pt x="103" y="416" on="0"/>
        <pt x="76" y="458" on="0"/>
        <pt x="62" y="507" on="0"/>
        <pt x="62" y="533" on="1"/>
        <pt x="62" y="576" on="0"/>
        <pt x="89" y="642" on="0"/>
        <pt x="136" y="686" on="0"/>
        <pt x="201" y="708" on="0"/>
        <pt x="240" y="708" on="1"/>
        <pt x="318" y="708" on="0"/>
        <pt x="418" y="620" on="0"/>
        <pt x="418" y="533" on="1"/>
        <pt x="418" y="508" on="0"/>
        <pt x="405" y="458" on="0"/>
        <pt x="378" y="416" on="0"/>
        <pt x="338" y="384" on="0"/>
        <pt x="311" y="377" on="1"/>
        <pt x="311" y="375" on="1"/>
        <pt x="344" y="372" on="0"/>
        <pt x="392" y="340" on="0"/>
        <pt x="423" y="291" on="0"/>
        <pt x="439" y="231" on="0"/>
        <pt x="439" y="200" on="1"/>
        <pt x="439" y="150" on="0"/>
        <pt x="410" y="71" on="0"/>
        <pt x="358" y="17" on="0"/>
        <pt x="285" y="-12" on="0"/>
        <pt x="240" y="-12" on="1"/>
        <pt x="196" y="-12" on="0"/>
        <pt x="122" y="17" on="0"/>
        <pt x="70" y="71" on="0"/>
        <pt x="41" y="150" on="0"/>
      </contour>
      <contour>
        <pt x="105" y="195" on="1"/>
        <pt x="105" y="163" on="0"/>
        <pt x="122" y="106" on="0"/>
        <pt x="156" y="63" on="0"/>
        <pt x="206" y="38" on="0"/>
        <pt x="240" y="38" on="1"/>
        <pt x="274" y="38" on="0"/>
        <pt x="324" y="63" on="0"/>
        <pt x="358" y="106" on="0"/>
        <pt x="375" y="163" on="0"/>
        <pt x="375" y="195" on="1"/>
        <pt x="375" y="227" on="0"/>
        <pt x="358" y="285" on="0"/>
        <pt x="324" y="328" on="0"/>
        <pt x="274" y="353" on="0"/>
        <pt x="240" y="353" on="1"/>
        <pt x="206" y="353" on="0"/>
        <pt x="156" y="328" on="0"/>
        <pt x="122" y="285" on="0"/>
        <pt x="105" y="227" on="0"/>
      </contour>
    </TTGlyph>
    <TTGlyph name="ellipsis" xMin="133" yMin="0" xMax="867" yMax="102">
      <contour>
        <pt x="799" y="102" on="1"/>
        <pt x="867" y="102" on="1"/>
        <pt x="867" y="0" on="1"/>
        <pt x="799" y="0" on="1"/>
      </contour>
      <contour>
        <pt x="466" y="102" on="1"/>
        <pt x="534" y="102" on="1"/>
        <pt x="534" y="0" on="1"/>
        <pt x="466" y="0" on="1"/>
      </contour>
      <contour>
        <pt x="133" y="102" on="1"/>
        <pt x="201" y="102" on="1"/>
        <pt x="201" y="0" on="1"/>
        <pt x="133" y="0" on="1"/>
      </contour>
    </TTGlyph>
    <TTGlyph name="emacron" xMin="36" yMin="-12" xMax="390" yMax="690">
      <component glyphName="e" x="0" y="0" flags="0x204"/>
      <component glyphName="macron" x="125" y="0" flags="0x4"/>
    </TTGlyph>
    <TTGlyph name="emdash" xMin="0" yMin="257" xMax="1000" yMax="311">
      <contour>
        <pt x="1000" y="311" on="1"/>
        <pt x="1000" y="257" on="1"/>
        <pt x="0" y="257" on="1"/>
        <pt x="0" y="311" on="1"/>
      </contour>
    </TTGlyph>
    <TTGlyph name="endash" xMin="0" yMin="257" xMax="500" yMax="311">
      <contour>
        <pt x="500" y="311" on="1"/>
        <pt x="500" y="257" on="1"/>
        <pt x="0" y="257" on="1"/>
        <pt x="0" y="311" on="1"/>
      </contour>
    </TTGlyph>
    <TTGlyph name="eogonek" xMin="36" yMin="-203" xMax="390" yMax="543">
      <contour>
        <pt x="385" y="176" on="1"/>
        <pt x="378" y="91" on="0"/>
        <pt x="333" y="39" on="1"/>
        <pt x="298" y="0" on="0"/>
        <pt x="247" y="-9" on="1"/>
        <pt x="209" y="-44" on="0"/>
        <pt x="192" y="-68" on="1"/>
        <pt x="171" y="-97" on="0"/>
        <pt x="171" y="-120" on="1"/>
        <pt x="171" y="-166" on="0"/>
        <pt x="216" y="-166" on="1"/>
        <pt x="231" y="-166" on="0"/>
        <pt x="270" y="-156" on="0"/>
        <pt x="285" y="-147" on="1"/>
        <pt x="298" y="-174" on="1"/>
        <pt x="278" y="-187" on="0"/>
        <pt x="230" y="-203" on="0"/>
        <pt x="202" y="-203" on="1"/>
        <pt x="157" y="-203" on="0"/>
        <pt x="117" y="-159" on="0"/>
        <pt x="117" y="-131" on="1"/>
        <pt x="117" y="-98" on="0"/>
        <pt x="143" y="-63" on="1"/>
        <pt x="164" y="-38" on="0"/>
        <pt x="197" y="-11" on="1"/>
        <pt x="166" y="-10" on="0"/>
        <pt x="139" y="3" on="1"/>
        <pt x="89" y="27" on="0"/>
        <pt x="36" y="152" on="0"/>
        <pt x="36" y="266" on="1"/>
        <pt x="36" y="406" on="0"/>
        <pt x="131" y="543" on="0"/>
        <pt x="219" y="543" on="1"/>
        <pt x="307" y="543" on="0"/>
        <pt x="390" y="418" on="0"/>
        <pt x="390" y="285" on="1"/>
        <pt x="390" y="263" on="1"/>
        <pt x="100" y="263" on="1"/>
        <pt x="100" y="238" on="1"/>
        <pt x="100" y="181" on="0"/>
        <pt x="119" y="104" on="0"/>
        <pt x="150" y="57" on="0"/>
        <pt x="191" y="38" on="0"/>
        <pt x="213" y="38" on="1"/>
        <pt x="310" y="38" on="0"/>
        <pt x="325" y="176" on="1"/>
      </contour>
      <contour>
        <pt x="326" y="313" on="1"/>
        <pt x="324" y="412" on="0"/>
        <pt x="268" y="493" on="0"/>
        <pt x="213" y="493" on="1"/>
        <pt x="157" y="493" on="0"/>
        <pt x="101" y="412" on="0"/>
        <pt x="100" y="313" on="1"/>
      </contour>
    </TTGlyph>
    <TTGlyph name="equal" xMin="47" yMin="131" xMax="553" yMax="375">
      <contour>
        <pt x="47" y="181" on="1"/>
        <pt x="553" y="181" on="1"/>
        <pt x="553" y="131" on="1"/>
        <pt x="47" y="131" on="1"/>
      </contour>
      <contour>
        <pt x="47" y="375" on="1"/>
        <pt x="553" y="375" on="1"/>
        <pt x="553" y="325" on="1"/>
        <pt x="47" y="325" on="1"/>
      </contour>
    </TTGlyph>
    <TTGlyph name="estimated" xMin="44" yMin="-17" xMax="561" yMax="535">
      <contour>
        <pt x="157" y="259" on="1"/>
        <pt x="157" y="78" on="1"/>
        <pt x="216" y="19" on="0"/>
        <pt x="302" y="19" on="1"/>
        <pt x="365" y="19" on="0"/>
        <pt x="457" y="76" on="0"/>
        <pt x="495" y="139" on="1"/>
        <pt x="530" y="118" on="1"/>
        <pt x="507" y="82" on="0"/>
        <pt x="460" y="31" on="0"/>
        <pt x="405" y="-2" on="0"/>
        <pt x="341" y="-17" on="0"/>
        <pt x="302" y="-17" on="1"/>
        <pt x="243" y="-17" on="0"/>
        <pt x="148" y="26" on="0"/>
        <pt x="80" y="101" on="0"/>
        <pt x="44" y="201" on="0"/>
        <pt x="44" y="259" on="1"/>
        <pt x="44" y="317" on="0"/>
        <pt x="80" y="418" on="0"/>
        <pt x="148" y="492" on="0"/>
        <pt x="243" y="535" on="0"/>
        <pt x="302" y="535" on="1"/>
        <pt x="360" y="535" on="0"/>
        <pt x="455" y="494" on="0"/>
        <pt x="523" y="421" on="0"/>
        <pt x="561" y="320" on="0"/>
        <pt x="561" y="259" on="1"/>
      </contour>
      <contour>
        <pt x="448" y="295" on="1"/>
        <pt x="448" y="440" on="1"/>
        <pt x="385" y="500" on="0"/>
        <pt x="301" y="500" on="1"/>
        <pt x="217" y="500" on="0"/>
        <pt x="157" y="440" on="1"/>
        <pt x="157" y="295" on="1"/>
      </contour>
    </TTGlyph>
    <TTGlyph name="eth" xMin="30" yMin="-12" xMax="396" yMax="774">
      <contour>
        <pt x="80" y="630" on="1"/>
        <pt x="154" y="674" on="1"/>
        <pt x="137" y="692" on="0"/>
        <pt x="101" y="725" on="0"/>
        <pt x="81" y="742" on="1"/>
        <pt x="128" y="774" on="1"/>
        <pt x="148" y="757" on="0"/>
        <pt x="186" y="722" on="0"/>
        <pt x="204" y="702" on="1"/>
        <pt x="276" y="744" on="1"/>
        <pt x="312" y="714" on="1"/>
        <pt x="237" y="669" on="1"/>
        <pt x="271" y="631" on="0"/>
        <pt x="329" y="547" on="0"/>
        <pt x="372" y="449" on="0"/>
        <pt x="396" y="335" on="0"/>
        <pt x="396" y="266" on="1"/>
        <pt x="396" y="125" on="0"/>
        <pt x="301" y="-12" on="0"/>
        <pt x="213" y="-12" on="1"/>
        <pt x="125" y="-12" on="0"/>
        <pt x="30" y="124" on="0"/>
        <pt x="30" y="260" on="1"/>
        <pt x="30" y="395" on="0"/>
        <pt x="126" y="531" on="0"/>
        <pt x="202" y="531" on="1"/>
        <pt x="228" y="531" on="0"/>
        <pt x="278" y="509" on="0"/>
        <pt x="300" y="478" on="1"/>
        <pt x="302" y="480" on="1"/>
        <pt x="249" y="570" on="0"/>
        <pt x="187" y="639" on="1"/>
        <pt x="118" y="598" on="1"/>
      </contour>
      <contour>
        <pt x="94" y="260" on="1"/>
        <pt x="94" y="198" on="0"/>
        <pt x="112" y="114" on="0"/>
        <pt x="144" y="61" on="0"/>
        <pt x="187" y="38" on="0"/>
        <pt x="213" y="38" on="1"/>
        <pt x="238" y="38" on="0"/>
        <pt x="282" y="61" on="0"/>
        <pt x="314" y="114" on="0"/>
        <pt x="332" y="198" on="0"/>
        <pt x="332" y="260" on="1"/>
        <pt x="332" y="321" on="0"/>
        <pt x="314" y="405" on="0"/>
        <pt x="282" y="458" on="0"/>
        <pt x="238" y="481" on="0"/>
        <pt x="213" y="481" on="1"/>
        <pt x="187" y="481" on="0"/>
        <pt x="144" y="458" on="0"/>
        <pt x="112" y="405" on="0"/>
        <pt x="94" y="321" on="0"/>
      </contour>
    </TTGlyph>
    <TTGlyph name="exclam" xMin="86" yMin="0" xMax="154" yMax="714">
      <contour>
        <pt x="86" y="102" on="1"/>
        <pt x="154" y="102" on="1"/>
        <pt x="154" y="0" on="1"/>
        <pt x="86" y="0" on="1"/>
      </contour>
      <contour>
        <pt x="86" y="714" on="1"/>
        <pt x="154" y="714" on="1"/>
        <pt x="154" y="488" on="1"/>
        <pt x="142" y="186" on="1"/>
        <pt x="98" y="186" on="1"/>
        <pt x="86" y="488" on="1"/>
      </contour>
    </TTGlyph>
    <TTGlyph name="exclamdown" xMin="86" yMin="-172" xMax="154" yMax="542">
      <contour>
        <pt x="86" y="542" on="1"/>
        <pt x="154" y="542" on="1"/>
        <pt x="154" y="440" on="1"/>
        <pt x="86" y="440" on="1"/>
      </contour>
      <contour>
        <pt x="86" y="54" on="1"/>
        <pt x="98" y="356" on="1"/>
        <pt x="142" y="356" on="1"/>
        <pt x="154" y="54" on="1"/>
        <pt x="154" y="-172" on="1"/>
        <pt x="86" y="-172" on="1"/>
      </contour>
    </TTGlyph>
    <TTGlyph name="f" xMin="7" yMin="0" xMax="234" yMax="722">
      <contour>
        <pt x="80" y="481" on="1"/>
        <pt x="7" y="481" on="1"/>
        <pt x="7" y="531" on="1"/>
        <pt x="80" y="531" on="1"/>
        <pt x="80" y="594" on="1"/>
        <pt x="80" y="621" on="0"/>
        <pt x="88" y="668" on="0"/>
        <pt x="112" y="703" on="0"/>
        <pt x="158" y="722" on="0"/>
        <pt x="196" y="722" on="1"/>
        <pt x="210" y="722" on="0"/>
        <pt x="226" y="721" on="0"/>
        <pt x="234" y="719" on="1"/>
        <pt x="234" y="669" on="1"/>
        <pt x="220" y="672" on="0"/>
        <pt x="205" y="672" on="1"/>
        <pt x="172" y="672" on="0"/>
        <pt x="140" y="640" on="0"/>
        <pt x="140" y="594" on="1"/>
        <pt x="140" y="531" on="1"/>
        <pt x="234" y="531" on="1"/>
        <pt x="234" y="481" on="1"/>
        <pt x="140" y="481" on="1"/>
        <pt x="140" y="0" on="1"/>
        <pt x="80" y="0" on="1"/>
      </contour>
    </TTGlyph>
    <TTGlyph name="fi" xMin="7" yMin="0" xMax="364" yMax="722">
      <component glyphName="f" x="0" y="0" flags="0x4"/>
      <component glyphName="i" x="242" y="0" flags="0x4"/>
    </TTGlyph>
    <TTGlyph name="five" xMin="41" yMin="-12" xMax="439" yMax="696">
      <contour>
        <pt x="406" y="696" on="1"/>
        <pt x="406" y="642" on="1"/>
        <pt x="144" y="642" on="1"/>
        <pt x="113" y="395" on="1"/>
        <pt x="115" y="393" on="1"/>
        <pt x="135" y="432" on="0"/>
        <pt x="213" y="465" on="0"/>
        <pt x="252" y="465" on="1"/>
        <pt x="293" y="465" on="0"/>
        <pt x="362" y="436" on="0"/>
        <pt x="411" y="378" on="0"/>
        <pt x="439" y="290" on="0"/>
        <pt x="439" y="231" on="1"/>
        <pt x="439" y="178" on="0"/>
        <pt x="412" y="88" on="0"/>
        <pt x="360" y="24" on="0"/>
        <pt x="281" y="-12" on="0"/>
        <pt x="229" y="-12" on="1"/>
        <pt x="188" y="-12" on="0"/>
        <pt x="119" y="13" on="0"/>
        <pt x="69" y="63" on="0"/>
        <pt x="41" y="134" on="0"/>
        <pt x="41" y="181" on="1"/>
        <pt x="105" y="181" on="1"/>
        <pt x="105" y="151" on="0"/>
        <pt x="122" y="99" on="0"/>
        <pt x="155" y="60" on="0"/>
        <pt x="204" y="38" on="0"/>
        <pt x="236" y="38" on="1"/>
        <pt x="300" y="38" on="0"/>
        <pt x="375" y="141" on="0"/>
        <pt x="375" y="241" on="1"/>
        <pt x="375" y="278" on="0"/>
        <pt x="359" y="341" on="0"/>
        <pt x="325" y="388" on="0"/>
        <pt x="273" y="415" on="0"/>
        <pt x="237" y="415" on="1"/>
        <pt x="197" y="415" on="0"/>
        <pt x="130" y="376" on="0"/>
        <pt x="115" y="333" on="1"/>
        <pt x="55" y="333" on="1"/>
        <pt x="96" y="696" on="1"/>
      </contour>
    </TTGlyph>
    <TTGlyph name="fl" xMin="7" yMin="0" xMax="364" yMax="722">
      <component glyphName="f" x="0" y="0" flags="0x4"/>
      <component glyphName="l" x="242" y="0" flags="0x4"/>
    </TTGlyph>
    <TTGlyph name="florin" xMin="-13" yMin="-176" xMax="458" yMax="714">
      <contour>
        <pt x="120" y="441" on="1"/>
        <pt x="225" y="441" on="1"/>
        <pt x="251" y="571" on="1"/>
        <pt x="260" y="618" on="0"/>
        <pt x="296" y="675" on="0"/>
        <pt x="341" y="705" on="0"/>
        <pt x="389" y="714" on="0"/>
        <pt x="411" y="714" on="1"/>
        <pt x="435" y="714" on="0"/>
        <pt x="458" y="710" on="1"/>
        <pt x="447" y="660" on="1"/>
        <pt x="435" y="664" on="0"/>
        <pt x="420" y="664" on="1"/>
        <pt x="398" y="664" on="0"/>
        <pt x="362" y="656" on="0"/>
        <pt x="332" y="626" on="0"/>
        <pt x="308" y="567" on="0"/>
        <pt x="299" y="516" on="1"/>
        <pt x="285" y="441" on="1"/>
        <pt x="397" y="441" on="1"/>
        <pt x="389" y="397" on="1"/>
        <pt x="277" y="397" on="1"/>
        <pt x="204" y="15" on="1"/>
        <pt x="194" y="-38" on="0"/>
        <pt x="168" y="-111" on="0"/>
        <pt x="130" y="-156" on="0"/>
        <pt x="77" y="-176" on="0"/>
        <pt x="40" y="-176" on="1"/>
        <pt x="24" y="-176" on="0"/>
        <pt x="-3" y="-173" on="0"/>
        <pt x="-13" y="-169" on="1"/>
        <pt x="-2" y="-119" on="1"/>
        <pt x="5" y="-122" on="0"/>
        <pt x="20" y="-126" on="0"/>
        <pt x="31" y="-126" on="1"/>
        <pt x="56" y="-126" on="0"/>
        <pt x="90" y="-116" on="0"/>
        <pt x="115" y="-83" on="0"/>
        <pt x="136" y="-18" on="0"/>
        <pt x="147" y="36" on="1"/>
        <pt x="217" y="397" on="1"/>
        <pt x="112" y="397" on="1"/>
      </contour>
    </TTGlyph>
    <TTGlyph name="four" xMin="32" yMin="0" xMax="448" yMax="708">
      <contour>
        <pt x="305" y="236" on="1"/>
        <pt x="305" y="606" on="1"/>
        <pt x="303" y="606" on="1"/>
        <pt x="86" y="236" on="1"/>
      </contour>
      <contour>
        <pt x="305" y="182" on="1"/>
        <pt x="32" y="182" on="1"/>
        <pt x="32" y="242" on="1"/>
        <pt x="305" y="708" on="1"/>
        <pt x="365" y="708" on="1"/>
        <pt x="365" y="236" on="1"/>
        <pt x="448" y="236" on="1"/>
        <pt x="448" y="182" on="1"/>
        <pt x="365" y="182" on="1"/>
        <pt x="365" y="0" on="1"/>
        <pt x="305" y="0" on="1"/>
      </contour>
    </TTGlyph>
    <TTGlyph name="fraction" xMin="-167" yMin="-30" xMax="334" yMax="726">
      <contour>
        <pt x="284" y="726" on="1"/>
        <pt x="334" y="726" on="1"/>
        <pt x="-117" y="-30" on="1"/>
        <pt x="-167" y="-30" on="1"/>
      </contour>
    </TTGlyph>
    <TTGlyph name="g" xMin="36" yMin="-184" xMax="386" yMax="543">
      <contour>
        <pt x="100" y="272" on="1"/>
        <pt x="100" y="208" on="0"/>
        <pt x="115" y="123" on="0"/>
        <pt x="144" y="72" on="0"/>
        <pt x="186" y="50" on="0"/>
        <pt x="213" y="50" on="1"/>
        <pt x="240" y="50" on="0"/>
        <pt x="282" y="72" on="0"/>
        <pt x="311" y="123" on="0"/>
        <pt x="326" y="208" on="0"/>
        <pt x="326" y="272" on="1"/>
        <pt x="326" y="335" on="0"/>
        <pt x="311" y="420" on="0"/>
        <pt x="282" y="471" on="0"/>
        <pt x="240" y="493" on="0"/>
        <pt x="213" y="493" on="1"/>
        <pt x="186" y="493" on="0"/>
        <pt x="144" y="471" on="0"/>
        <pt x="115" y="420" on="0"/>
        <pt x="100" y="335" on="0"/>
      </contour>
      <contour>
        <pt x="332" y="531" on="1"/>
        <pt x="386" y="531" on="1"/>
        <pt x="386" y="38" on="1"/>
        <pt x="386" y="-74" on="0"/>
        <pt x="303" y="-184" on="0"/>
        <pt x="212" y="-184" on="1"/>
        <pt x="134" y="-184" on="0"/>
        <pt x="55" y="-111" on="0"/>
        <pt x="54" y="-54" on="1"/>
        <pt x="114" y="-54" on="1"/>
        <pt x="114" y="-92" on="0"/>
        <pt x="174" y="-134" on="0"/>
        <pt x="214" y="-134" on="1"/>
        <pt x="326" y="-134" on="0"/>
        <pt x="326" y="11" on="1"/>
        <pt x="326" y="95" on="1"/>
        <pt x="324" y="95" on="1"/>
        <pt x="310" y="46" on="0"/>
        <pt x="242" y="0" on="0"/>
        <pt x="200" y="0" on="1"/>
        <pt x="169" y="0" on="0"/>
        <pt x="110" y="23" on="0"/>
        <pt x="64" y="83" on="0"/>
        <pt x="36" y="186" on="0"/>
        <pt x="36" y="266" on="1"/>
        <pt x="36" y="405" on="0"/>
        <pt x="118" y="543" on="0"/>
        <pt x="206" y="543" on="1"/>
        <pt x="251" y="543" on="0"/>
        <pt x="316" y="494" on="0"/>
        <pt x="330" y="449" on="1"/>
        <pt x="332" y="449" on="1"/>
      </contour>
    </TTGlyph>
    <TTGlyph name="gbreve" xMin="36" yMin="-184" xMax="386" yMax="729">
      <component glyphName="g" x="0" y="0" flags="0x204"/>
      <component glyphName="breve" x="130" y="0" flags="0x4"/>
    </TTGlyph>
    <TTGlyph name="gcircumflex" xMin="36" yMin="-184" xMax="386" yMax="739">
      <component glyphName="g" x="0" y="0" flags="0x204"/>
      <component glyphName="circumflex" x="133" y="0" flags="0x4"/>
    </TTGlyph>
    <TTGlyph name="gcommaaccent" xMin="36" yMin="-184" xMax="386" yMax="775">
      <component glyphName="g" x="0" y="0" flags="0x204"/>
      <component glyphName="commaaccent.alt" x="99" y="0" flags="0x4"/>
    </TTGlyph>
    <TTGlyph name="gdotaccent" xMin="36" yMin="-184" xMax="386" yMax="719">
      <component glyphName="g" x="0" y="0" flags="0x204"/>
      <component glyphName="dotaccent" x="126" y="0" flags="0x4"/>
    </TTGlyph>
    <TTGlyph name="germandbls" xMin="52" yMin="-6" xMax="414" yMax="722">
      <contour>
        <pt x="52" y="539" on="1"/>
        <pt x="52" y="630" on="0"/>
        <pt x="141" y="722" on="0"/>
        <pt x="219" y="722" on="1"/>
        <pt x="294" y="722" on="0"/>
        <pt x="380" y="636" on="0"/>
        <pt x="380" y="557" on="1"/>
        <pt x="380" y="535" on="0"/>
        <pt x="369" y="489" on="0"/>
        <pt x="345" y="448" on="0"/>
        <pt x="305" y="418" on="0"/>
        <pt x="276" y="412" on="1"/>
        <pt x="276" y="410" on="1"/>
        <pt x="319" y="405" on="0"/>
        <pt x="373" y="364" on="0"/>
        <pt x="403" y="308" on="0"/>
        <pt x="414" y="244" on="0"/>
        <pt x="414" y="216" on="1"/>
        <pt x="414" y="110" on="0"/>
        <pt x="313" y="-6" on="0"/>
        <pt x="222" y="-6" on="1"/>
        <pt x="197" y="-6" on="0"/>
        <pt x="181" y="0" on="1"/>
        <pt x="181" y="50" on="1"/>
        <pt x="193" y="44" on="0"/>
        <pt x="214" y="44" on="1"/>
        <pt x="242" y="44" on="0"/>
        <pt x="292" y="65" on="0"/>
        <pt x="329" y="108" on="0"/>
        <pt x="350" y="174" on="0"/>
        <pt x="350" y="220" on="1"/>
        <pt x="350" y="380" on="0"/>
        <pt x="208" y="380" on="1"/>
        <pt x="186" y="380" on="1"/>
        <pt x="186" y="430" on="1"/>
        <pt x="203" y="430" on="1"/>
        <pt x="255" y="430" on="0"/>
        <pt x="316" y="491" on="0"/>
        <pt x="316" y="554" on="1"/>
        <pt x="316" y="605" on="0"/>
        <pt x="267" y="672" on="0"/>
        <pt x="216" y="672" on="1"/>
        <pt x="171" y="672" on="0"/>
        <pt x="112" y="611" on="0"/>
        <pt x="112" y="533" on="1"/>
        <pt x="112" y="0" on="1"/>
        <pt x="52" y="0" on="1"/>
      </contour>
    </TTGlyph>
    <TTGlyph name="grave" xMin="-10" yMin="598" xMax="136" yMax="739">
      <contour>
        <pt x="61" y="739" on="1"/>
        <pt x="136" y="598" on="1"/>
        <pt x="88" y="598" on="1"/>
        <pt x="-10" y="739" on="1"/>
      </contour>
    </TTGlyph>
    <TTGlyph name="grave.cap" xMin="-10" yMin="762" xMax="136" yMax="903">
      <contour>
        <pt x="61" y="903" on="1"/>
        <pt x="136" y="762" on="1"/>
        <pt x="88" y="762" on="1"/>
        <pt x="-10" y="903" on="1"/>
      </contour>
    </TTGlyph>
    <TTGlyph name="greater" xMin="47" yMin="-8" xMax="553" yMax="514">
      <contour>
        <pt x="47" y="46" on="1"/>
        <pt x="493" y="253" on="1"/>
        <pt x="47" y="460" on="1"/>
        <pt x="47" y="514" on="1"/>
        <pt x="553" y="280" on="1"/>
        <pt x="553" y="226" on="1"/>
        <pt x="47" y="-8" on="1"/>
      </contour>
    </TTGlyph>
    <TTGlyph name="greaterequal" xMin="48" yMin="-25" xMax="545" yMax="507">
      <contour>
        <pt x="48" y="67" on="1"/>
        <pt x="48" y="121" on="1"/>
        <pt x="478" y="287" on="1"/>
        <pt x="48" y="453" on="1"/>
        <pt x="48" y="507" on="1"/>
        <pt x="545" y="314" on="1"/>
        <pt x="545" y="260" on="1"/>
      </contour>
      <contour>
        <pt x="48" y="-25" on="1"/>
        <pt x="48" y="23" on="1"/>
        <pt x="545" y="23" on="1"/>
        <pt x="545" y="-25" on="1"/>
      </contour>
    </TTGlyph>
    <TTGlyph name="guillemotleft" xMin="57" yMin="115" xMax="313" yMax="453">
      <contour>
        <pt x="57" y="314" on="1"/>
        <pt x="182" y="453" on="1"/>
        <pt x="182" y="385" on="1"/>
        <pt x="93" y="284" on="1"/>
        <pt x="182" y="183" on="1"/>
        <pt x="182" y="115" on="1"/>
        <pt x="57" y="254" on="1"/>
      </contour>
      <contour>
        <pt x="188" y="314" on="1"/>
        <pt x="313" y="453" on="1"/>
        <pt x="313" y="385" on="1"/>
        <pt x="224" y="284" on="1"/>
        <pt x="313" y="183" on="1"/>
        <pt x="313" y="115" on="1"/>
        <pt x="188" y="254" on="1"/>
      </contour>
    </TTGlyph>
    <TTGlyph name="guillemotright" xMin="57" yMin="115" xMax="313" yMax="453">
      <contour>
        <pt x="188" y="183" on="1"/>
        <pt x="277" y="284" on="1"/>
        <pt x="188" y="385" on="1"/>
        <pt x="188" y="453" on="1"/>
        <pt x="313" y="314" on="1"/>
        <pt x="313" y="254" on="1"/>
        <pt x="188" y="115" on="1"/>
      </contour>
      <contour>
        <pt x="57" y="183" on="1"/>
        <pt x="146" y="284" on="1"/>
        <pt x="57" y="385" on="1"/>
        <pt x="57" y="453" on="1"/>
        <pt x="182" y="314" on="1"/>
        <pt x="182" y="254" on="1"/>
        <pt x="57" y="115" on="1"/>
      </contour>
    </TTGlyph>
    <TTGlyph name="guilsinglleft" xMin="58" yMin="115" xMax="183" yMax="453">
      <contour>
        <pt x="58" y="314" on="1"/>
        <pt x="183" y="453" on="1"/>
        <pt x="183" y="385" on="1"/>
        <pt x="94" y="284" on="1"/>
        <pt x="183" y="183" on="1"/>
        <pt x="183" y="115" on="1"/>
        <pt x="58" y="254" on="1"/>
      </contour>
    </TTGlyph>
    <TTGlyph name="guilsinglright" xMin="58" yMin="115" xMax="183" yMax="453">
      <contour>
        <pt x="58" y="183" on="1"/>
        <pt x="147" y="284" on="1"/>
        <pt x="58" y="385" on="1"/>
        <pt x="58" y="453" on="1"/>
        <pt x="183" y="314" on="1"/>
        <pt x="183" y="254" on="1"/>
        <pt x="58" y="115" on="1"/>
      </contour>
    </TTGlyph>
    <TTGlyph name="h" xMin="58" yMin="0" xMax="386" yMax="714">
      <contour>
        <pt x="58" y="714" on="1"/>
        <pt x="118" y="714" on="1"/>
        <pt x="118" y="457" on="1"/>
        <pt x="120" y="457" on="1"/>
        <pt x="131" y="499" on="0"/>
        <pt x="202" y="543" on="0"/>
        <pt x="250" y="543" on="1"/>
        <pt x="311" y="543" on="0"/>
        <pt x="386" y="476" on="0"/>
        <pt x="386" y="401" on="1"/>
        <pt x="386" y="0" on="1"/>
        <pt x="326" y="0" on="1"/>
        <pt x="326" y="384" on="1"/>
        <pt x="326" y="493" on="0"/>
        <pt x="235" y="493" on="1"/>
        <pt x="181" y="493" on="0"/>
        <pt x="118" y="420" on="0"/>
        <pt x="118" y="357" on="1"/>
        <pt x="118" y="0" on="1"/>
        <pt x="58" y="0" on="1"/>
      </contour>
    </TTGlyph>
    <TTGlyph name="hbar" xMin="0" yMin="0" xMax="400" yMax="714">
      <contour>
        <pt x="0" y="635" on="1"/>
        <pt x="72" y="635" on="1"/>
        <pt x="72" y="714" on="1"/>
        <pt x="132" y="714" on="1"/>
        <pt x="132" y="635" on="1"/>
        <pt x="244" y="635" on="1"/>
        <pt x="244" y="591" on="1"/>
        <pt x="132" y="591" on="1"/>
        <pt x="132" y="457" on="1"/>
        <pt x="134" y="457" on="1"/>
        <pt x="145" y="499" on="0"/>
        <pt x="216" y="543" on="0"/>
        <pt x="264" y="543" on="1"/>
        <pt x="325" y="543" on="0"/>
        <pt x="400" y="476" on="0"/>
        <pt x="400" y="401" on="1"/>
        <pt x="400" y="0" on="1"/>
        <pt x="340" y="0" on="1"/>
        <pt x="340" y="384" on="1"/>
        <pt x="340" y="493" on="0"/>
        <pt x="249" y="493" on="1"/>
        <pt x="195" y="493" on="0"/>
        <pt x="132" y="420" on="0"/>
        <pt x="132" y="357" on="1"/>
        <pt x="132" y="0" on="1"/>
        <pt x="72" y="0" on="1"/>
        <pt x="72" y="591" on="1"/>
        <pt x="0" y="591" on="1"/>
      </contour>
    </TTGlyph>
    <TTGlyph name="hcircumflex" xMin="58" yMin="0" xMax="386" yMax="913">
      <component glyphName="h" x="0" y="0" flags="0x204"/>
      <component glyphName="circumflex" x="130" y="174" flags="0x4"/>
    </TTGlyph>
    <TTGlyph name="hungarumlaut" xMin="-25" yMin="598" xMax="271" yMax="739">
      <contour>
        <pt x="271" y="739" on="1"/>
        <pt x="173" y="598" on="1"/>
        <pt x="126" y="598" on="1"/>
        <pt x="200" y="739" on="1"/>
      </contour>
      <contour>
        <pt x="120" y="739" on="1"/>
        <pt x="22" y="598" on="1"/>
        <pt x="-25" y="598" on="1"/>
        <pt x="49" y="739" on="1"/>
      </contour>
    </TTGlyph>
    <TTGlyph name="hungarumlaut.cap" xMin="-25" yMin="762" xMax="271" yMax="903">
      <contour>
        <pt x="271" y="903" on="1"/>
        <pt x="173" y="762" on="1"/>
        <pt x="126" y="762" on="1"/>
        <pt x="200" y="903" on="1"/>
      </contour>
      <contour>
        <pt x="120" y="903" on="1"/>
        <pt x="22" y="762" on="1"/>
        <pt x="-25" y="762" on="1"/>
        <pt x="49" y="903" on="1"/>
      </contour>
    </TTGlyph>
    <TTGlyph name="hyphen" xMin="58" yMin="257" xMax="275" yMax="311">
      <contour>
        <pt x="275" y="311" on="1"/>
        <pt x="275" y="257" on="1"/>
        <pt x="58" y="257" on="1"/>
        <pt x="58" y="311" on="1"/>
      </contour>
    </TTGlyph>
    <TTGlyph name="i" xMin="62" yMin="0" xMax="122" yMax="714">
      <contour>
        <pt x="62" y="714" on="1"/>
        <pt x="122" y="714" on="1"/>
        <pt x="122" y="612" on="1"/>
        <pt x="62" y="612" on="1"/>
      </contour>
      <contour>
        <pt x="62" y="531" on="1"/>
        <pt x="122" y="531" on="1"/>
        <pt x="122" y="0" on="1"/>
        <pt x="62" y="0" on="1"/>
      </contour>
    </TTGlyph>
    <TTGlyph name="iacute" xMin="62" yMin="0" xMax="208" yMax="739">
      <component glyphName="dotlessi" x="0" y="0" flags="0x204"/>
      <component glyphName="acute" x="12" y="0" flags="0x4"/>
    </TTGlyph>
    <TTGlyph name="icircumflex" xMin="-33" yMin="0" xMax="219" yMax="739">
      <component glyphName="dotlessi" x="0" y="0" flags="0x204"/>
      <component glyphName="circumflex" x="0" y="0" flags="0x4"/>
    </TTGlyph>
    <TTGlyph name="idieresis" xMin="-12" yMin="0" xMax="198" yMax="719">
      <component glyphName="dotlessi" x="0" y="0" flags="0x204"/>
      <component glyphName="dieresis" x="0" y="0" flags="0x4"/>
    </TTGlyph>
    <TTGlyph name="igrave" xMin="-24" yMin="0" xMax="122" yMax="743">
      <component glyphName="dotlessi" x="0" y="0" flags="0x204"/>
      <component glyphName="grave" x="-14" y="4" flags="0x4"/>
    </TTGlyph>
    <TTGlyph name="ij" xMin="62" yMin="-184" xMax="300" yMax="714">
      <component glyphName="i" x="0" y="0" flags="0x4"/>
      <component glyphName="j" x="178" y="0" flags="0x4"/>
    </TTGlyph>
    <TTGlyph name="imacron" xMin="-26" yMin="0" xMax="212" yMax="690">
      <component glyphName="dotlessi" x="0" y="0" flags="0x204"/>
      <component glyphName="macron" x="0" y="0" flags="0x4"/>
    </TTGlyph>
    <TTGlyph name="infinity" xMin="40" yMin="110" xMax="682" yMax="388">
      <contour>
        <pt x="682" y="250" on="1"/>
        <pt x="682" y="220" on="0"/>
        <pt x="664" y="169" on="0"/>
        <pt x="630" y="131" on="0"/>
        <pt x="581" y="110" on="0"/>
        <pt x="550" y="110" on="1"/>
        <pt x="522" y="110" on="0"/>
        <pt x="470" y="129" on="0"/>
        <pt x="424" y="159" on="0"/>
        <pt x="381" y="197" on="0"/>
        <pt x="362" y="215" on="1"/>
        <pt x="341" y="197" on="0"/>
        <pt x="298" y="160" on="0"/>
        <pt x="253" y="130" on="0"/>
        <pt x="203" y="110" on="0"/>
        <pt x="173" y="110" on="1"/>
        <pt x="143" y="110" on="0"/>
        <pt x="94" y="131" on="0"/>
        <pt x="59" y="168" on="0"/>
        <pt x="40" y="218" on="0"/>
        <pt x="40" y="247" on="1"/>
        <pt x="40" y="275" on="0"/>
        <pt x="59" y="326" on="0"/>
        <pt x="93" y="365" on="0"/>
        <pt x="141" y="387" on="0"/>
        <pt x="171" y="387" on="1"/>
        <pt x="200" y="387" on="0"/>
        <pt x="252" y="366" on="0"/>
        <pt x="299" y="333" on="0"/>
        <pt x="342" y="294" on="0"/>
        <pt x="362" y="276" on="1"/>
        <pt x="383" y="294" on="0"/>
        <pt x="424" y="333" on="0"/>
        <pt x="468" y="366" on="0"/>
        <pt x="518" y="388" on="0"/>
        <pt x="548" y="388" on="1"/>
        <pt x="578" y="388" on="0"/>
        <pt x="627" y="367" on="0"/>
        <pt x="663" y="330" on="0"/>
        <pt x="682" y="280" on="0"/>
      </contour>
      <contour>
        <pt x="634" y="246" on="1"/>
        <pt x="634" y="286" on="0"/>
        <pt x="591" y="340" on="0"/>
        <pt x="549" y="340" on="1"/>
        <pt x="528" y="340" on="0"/>
        <pt x="486" y="321" on="0"/>
        <pt x="446" y="292" on="0"/>
        <pt x="410" y="259" on="0"/>
        <pt x="395" y="246" on="1"/>
        <pt x="411" y="232" on="0"/>
        <pt x="447" y="201" on="0"/>
        <pt x="486" y="175" on="0"/>
        <pt x="529" y="158" on="0"/>
        <pt x="552" y="158" on="1"/>
        <pt x="591" y="158" on="0"/>
        <pt x="634" y="209" on="0"/>
      </contour>
      <contour>
        <pt x="328" y="246" on="1"/>
        <pt x="312" y="258" on="0"/>
        <pt x="275" y="290" on="0"/>
        <pt x="235" y="319" on="0"/>
        <pt x="192" y="339" on="0"/>
        <pt x="170" y="339" on="1"/>
        <pt x="132" y="339" on="0"/>
        <pt x="88" y="283" on="0"/>
        <pt x="88" y="247" on="1"/>
        <pt x="88" y="208" on="0"/>
        <pt x="134" y="158" on="0"/>
        <pt x="174" y="158" on="1"/>
        <pt x="194" y="158" on="0"/>
        <pt x="237" y="175" on="0"/>
        <pt x="277" y="202" on="0"/>
        <pt x="314" y="232" on="0"/>
      </contour>
    </TTGlyph>
    <TTGlyph name="integral" xMin="103" yMin="-214" xMax="395" yMax="786">
      <contour>
        <pt x="395" y="742" on="1"/>
        <pt x="395" y="728" on="0"/>
        <pt x="376" y="710" on="0"/>
        <pt x="362" y="710" on="1"/>
        <pt x="348" y="710" on="0"/>
        <pt x="334" y="722" on="0"/>
        <pt x="327" y="737" on="0"/>
        <pt x="321" y="750" on="0"/>
        <pt x="315" y="750" on="1"/>
        <pt x="303" y="750" on="0"/>
        <pt x="287" y="724" on="0"/>
        <pt x="278" y="684" on="0"/>
        <pt x="275" y="636" on="0"/>
        <pt x="274" y="591" on="0"/>
        <pt x="275" y="555" on="0"/>
        <pt x="275" y="548" on="1"/>
        <pt x="275" y="47" on="1"/>
        <pt x="275" y="27" on="0"/>
        <pt x="275" y="-28" on="0"/>
        <pt x="269" y="-86" on="0"/>
        <pt x="256" y="-142" on="0"/>
        <pt x="230" y="-187" on="0"/>
        <pt x="188" y="-214" on="0"/>
        <pt x="158" y="-214" on="1"/>
        <pt x="137" y="-214" on="0"/>
        <pt x="103" y="-192" on="0"/>
        <pt x="103" y="-169" on="1"/>
        <pt x="103" y="-155" on="0"/>
        <pt x="121" y="-137" on="0"/>
        <pt x="135" y="-137" on="1"/>
        <pt x="155" y="-137" on="0"/>
        <pt x="167" y="-162" on="0"/>
        <pt x="175" y="-176" on="1"/>
        <pt x="179" y="-178" on="0"/>
        <pt x="181" y="-178" on="1"/>
        <pt x="192" y="-178" on="0"/>
        <pt x="206" y="-152" on="0"/>
        <pt x="214" y="-112" on="0"/>
        <pt x="219" y="-65" on="0"/>
        <pt x="221" y="-23" on="0"/>
        <pt x="221" y="7" on="0"/>
        <pt x="221" y="10" on="1"/>
        <pt x="221" y="505" on="1"/>
        <pt x="221" y="526" on="0"/>
        <pt x="219" y="585" on="0"/>
        <pt x="222" y="647" on="0"/>
        <pt x="232" y="708" on="0"/>
        <pt x="257" y="756" on="0"/>
        <pt x="300" y="786" on="0"/>
        <pt x="334" y="786" on="1"/>
        <pt x="355" y="786" on="0"/>
        <pt x="395" y="767" on="0"/>
      </contour>
    </TTGlyph>
    <TTGlyph name="iogonek" xMin="-5" yMin="-203" xMax="158" yMax="714">
      <contour>
        <pt x="122" y="0" on="1"/>
        <pt x="80" y="-40" on="0"/>
        <pt x="43" y="-96" on="0"/>
        <pt x="43" y="-120" on="1"/>
        <pt x="43" y="-166" on="0"/>
        <pt x="84" y="-166" on="1"/>
        <pt x="97" y="-166" on="0"/>
        <pt x="132" y="-156" on="0"/>
        <pt x="146" y="-147" on="1"/>
        <pt x="158" y="-174" on="1"/>
        <pt x="140" y="-187" on="0"/>
        <pt x="96" y="-203" on="0"/>
        <pt x="71" y="-203" on="1"/>
        <pt x="30" y="-203" on="0"/>
        <pt x="-5" y="-159" on="0"/>
        <pt x="-5" y="-131" on="1"/>
        <pt x="-5" y="-97" on="0"/>
        <pt x="42" y="-30" on="0"/>
        <pt x="82" y="0" on="1"/>
        <pt x="62" y="0" on="1"/>
        <pt x="62" y="531" on="1"/>
        <pt x="122" y="531" on="1"/>
      </contour>
      <contour>
        <pt x="62" y="714" on="1"/>
        <pt x="122" y="714" on="1"/>
        <pt x="122" y="612" on="1"/>
        <pt x="62" y="612" on="1"/>
      </contour>
    </TTGlyph>
    <TTGlyph name="itilde" xMin="-41" yMin="0" xMax="227" yMax="719">
      <component glyphName="dotlessi" x="0" y="0" flags="0x204"/>
      <component glyphName="tilde" x="0" y="0" flags="0x4"/>
    </TTGlyph>
    <TTGlyph name="j" xMin="-26" yMin="-184" xMax="122" yMax="714">
      <contour>
        <pt x="62" y="714" on="1"/>
        <pt x="122" y="714" on="1"/>
        <pt x="122" y="612" on="1"/>
        <pt x="62" y="612" on="1"/>
      </contour>
      <contour>
        <pt x="62" y="531" on="1"/>
        <pt x="122" y="531" on="1"/>
        <pt x="122" y="-62" on="1"/>
        <pt x="122" y="-96" on="0"/>
        <pt x="104" y="-143" on="0"/>
        <pt x="73" y="-171" on="0"/>
        <pt x="31" y="-184" on="0"/>
        <pt x="7" y="-184" on="1"/>
        <pt x="-11" y="-184" on="0"/>
        <pt x="-26" y="-181" on="1"/>
        <pt x="-26" y="-131" on="1"/>
        <pt x="-21" y="-132" on="0"/>
        <pt x="-10" y="-134" on="0"/>
        <pt x="-3" y="-134" on="1"/>
        <pt x="13" y="-134" on="0"/>
        <pt x="37" y="-126" on="0"/>
        <pt x="53" y="-105" on="0"/>
        <pt x="62" y="-70" on="0"/>
        <pt x="62" y="-42" on="1"/>
      </contour>
    </TTGlyph>
    <TTGlyph name="jcircumflex" xMin="-36" yMin="-184" xMax="216" yMax="739">
      <component glyphName="dotlessj" x="0" y="0" flags="0x204"/>
      <component glyphName="circumflex" x="-3" y="0" flags="0x4"/>
    </TTGlyph>
    <TTGlyph name="k" xMin="52" yMin="0" xMax="423" yMax="714">
      <contour>
        <pt x="52" y="714" on="1"/>
        <pt x="112" y="714" on="1"/>
        <pt x="112" y="267" on="1"/>
        <pt x="114" y="267" on="1"/>
        <pt x="320" y="531" on="1"/>
        <pt x="394" y="531" on="1"/>
        <pt x="234" y="334" on="1"/>
        <pt x="423" y="0" on="1"/>
        <pt x="349" y="0" on="1"/>
        <pt x="191" y="280" on="1"/>
        <pt x="112" y="186" on="1"/>
        <pt x="112" y="0" on="1"/>
        <pt x="52" y="0" on="1"/>
      </contour>
    </TTGlyph>
    <TTGlyph name="kcommaaccent" xMin="52" yMin="-203" xMax="423" yMax="714">
      <component glyphName="k" x="0" y="0" flags="0x204"/>
      <component glyphName="commaaccent" x="99" y="0" flags="0x4"/>
    </TTGlyph>
    <TTGlyph name="l" xMin="62" yMin="0" xMax="122" yMax="714">
      <contour>
        <pt x="62" y="714" on="1"/>
        <pt x="122" y="714" on="1"/>
        <pt x="122" y="0" on="1"/>
        <pt x="62" y="0" on="1"/>
      </contour>
    </TTGlyph>
    <TTGlyph name="lacute" xMin="62" yMin="0" xMax="210" yMax="913">
      <component glyphName="l" x="0" y="0" flags="0x204"/>
      <component glyphName="acute" x="14" y="174" flags="0x4"/>
    </TTGlyph>
    <TTGlyph name="lcaron" xMin="62" yMin="0" xMax="259" yMax="714">
      <component glyphName="l" x="0" y="0" flags="0x4"/>
      <component glyphName="caron.alt" x="90" y="0" flags="0x4"/>
    </TTGlyph>
    <TTGlyph name="lcommaaccent" xMin="62" yMin="-203" xMax="127" yMax="714">
      <component glyphName="l" x="0" y="0" flags="0x204"/>
      <component glyphName="commaaccent" x="-22" y="0" flags="0x4"/>
    </TTGlyph>
    <TTGlyph name="ldot" xMin="62" yMin="0" xMax="238" yMax="714">
      <component glyphName="l" x="0" y="0" flags="0x4"/>
      <component glyphName="dotaccent" x="115" y="-187" flags="0x4"/>
    </TTGlyph>
    <TTGlyph name="less" xMin="47" yMin="-8" xMax="553" yMax="514">
      <contour>
        <pt x="47" y="280" on="1"/>
        <pt x="553" y="514" on="1"/>
        <pt x="553" y="460" on="1"/>
        <pt x="107" y="253" on="1"/>
        <pt x="553" y="46" on="1"/>
        <pt x="553" y="-8" on="1"/>
        <pt x="47" y="226" on="1"/>
      </contour>
    </TTGlyph>
    <TTGlyph name="lessequal" xMin="48" yMin="-25" xMax="545" yMax="507">
      <contour>
        <pt x="48" y="260" on="1"/>
        <pt x="48" y="314" on="1"/>
        <pt x="545" y="507" on="1"/>
        <pt x="545" y="453" on="1"/>
        <pt x="114" y="287" on="1"/>
        <pt x="545" y="121" on="1"/>
        <pt x="545" y="67" on="1"/>
      </contour>
      <contour>
        <pt x="48" y="-25" on="1"/>
        <pt x="48" y="23" on="1"/>
        <pt x="545" y="23" on="1"/>
        <pt x="545" y="-25" on="1"/>
      </contour>
    </TTGlyph>
    <TTGlyph name="logicalnot" xMin="47" yMin="108" xMax="553" yMax="375">
      <contour>
        <pt x="503" y="325" on="1"/>
        <pt x="47" y="325" on="1"/>
        <pt x="47" y="375" on="1"/>
        <pt x="553" y="375" on="1"/>
        <pt x="553" y="108" on="1"/>
        <pt x="503" y="108" on="1"/>
      </contour>
    </TTGlyph>
    <TTGlyph name="lozenge" xMin="102" yMin="-35" xMax="491" yMax="747">
      <contour>
        <pt x="322" y="-35" on="1"/>
        <pt x="269" y="-35" on="1"/>
        <pt x="102" y="356" on="1"/>
        <pt x="269" y="747" on="1"/>
        <pt x="322" y="747" on="1"/>
        <pt x="491" y="356" on="1"/>
      </contour>
      <contour>
        <pt x="296" y="691" on="1"/>
        <pt x="156" y="356" on="1"/>
        <pt x="296" y="21" on="1"/>
        <pt x="438" y="356" on="1"/>
      </contour>
    </TTGlyph>
    <TTGlyph name="lslash" xMin="0" yMin="0" xMax="184" yMax="714">
      <contour>
        <pt x="62" y="316" on="1"/>
        <pt x="0" y="250" on="1"/>
        <pt x="0" y="310" on="1"/>
        <pt x="62" y="376" on="1"/>
        <pt x="62" y="714" on="1"/>
        <pt x="122" y="714" on="1"/>
        <pt x="122" y="440" on="1"/>
        <pt x="184" y="506" on="1"/>
        <pt x="184" y="446" on="1"/>
        <pt x="122" y="380" on="1"/>
        <pt x="122" y="0" on="1"/>
        <pt x="62" y="0" on="1"/>
      </contour>
    </TTGlyph>
    <TTGlyph name="m" xMin="62" yMin="0" xMax="624" yMax="543">
      <contour>
        <pt x="62" y="531" on="1"/>
        <pt x="116" y="531" on="1"/>
        <pt x="116" y="457" on="1"/>
        <pt x="118" y="457" on="1"/>
        <pt x="139" y="502" on="0"/>
        <pt x="208" y="543" on="0"/>
        <pt x="253" y="543" on="1"/>
        <pt x="301" y="543" on="0"/>
        <pt x="358" y="492" on="0"/>
        <pt x="364" y="450" on="1"/>
        <pt x="366" y="450" on="1"/>
        <pt x="384" y="495" on="0"/>
        <pt x="450" y="543" on="0"/>
        <pt x="501" y="543" on="1"/>
        <pt x="558" y="543" on="0"/>
        <pt x="624" y="478" on="0"/>
        <pt x="624" y="406" on="1"/>
        <pt x="624" y="0" on="1"/>
        <pt x="564" y="0" on="1"/>
        <pt x="564" y="397" on="1"/>
        <pt x="564" y="493" on="0"/>
        <pt x="481" y="493" on="1"/>
        <pt x="458" y="493" on="0"/>
        <pt x="419" y="474" on="0"/>
        <pt x="390" y="438" on="0"/>
        <pt x="373" y="388" on="0"/>
        <pt x="373" y="357" on="1"/>
        <pt x="373" y="0" on="1"/>
        <pt x="313" y="0" on="1"/>
        <pt x="313" y="397" on="1"/>
        <pt x="313" y="493" on="0"/>
        <pt x="230" y="493" on="1"/>
        <pt x="207" y="493" on="0"/>
        <pt x="168" y="474" on="0"/>
        <pt x="139" y="438" on="0"/>
        <pt x="122" y="388" on="0"/>
        <pt x="122" y="357" on="1"/>
        <pt x="122" y="0" on="1"/>
        <pt x="62" y="0" on="1"/>
      </contour>
    </TTGlyph>
    <TTGlyph name="macron" xMin="-26" yMin="646" xMax="212" yMax="690">
      <contour>
        <pt x="-26" y="690" on="1"/>
        <pt x="212" y="690" on="1"/>
        <pt x="212" y="646" on="1"/>
        <pt x="-26" y="646" on="1"/>
      </contour>
    </TTGlyph>
    <TTGlyph name="macron.cap" xMin="-26" yMin="820" xMax="212" yMax="864">
      <contour>
        <pt x="-26" y="864" on="1"/>
        <pt x="212" y="864" on="1"/>
        <pt x="212" y="820" on="1"/>
        <pt x="-26" y="820" on="1"/>
      </contour>
    </TTGlyph>
    <TTGlyph name="minus" xMin="47" yMin="228" xMax="553" yMax="278">
      <contour>
        <pt x="47" y="278" on="1"/>
        <pt x="553" y="278" on="1"/>
        <pt x="553" y="228" on="1"/>
        <pt x="47" y="228" on="1"/>
      </contour>
    </TTGlyph>
    <TTGlyph name="mu" xMin="58" yMin="-176" xMax="386" yMax="531">
      <contour>
        <pt x="58" y="531" on="1"/>
        <pt x="118" y="531" on="1"/>
        <pt x="118" y="157" on="1"/>
        <pt x="118" y="91" on="0"/>
        <pt x="162" y="38" on="0"/>
        <pt x="210" y="38" on="1"/>
        <pt x="261" y="38" on="0"/>
        <pt x="326" y="111" on="0"/>
        <pt x="326" y="174" on="1"/>
        <pt x="326" y="531" on="1"/>
        <pt x="386" y="531" on="1"/>
        <pt x="386" y="0" on="1"/>
        <pt x="332" y="0" on="1"/>
        <pt x="332" y="74" on="1"/>
        <pt x="330" y="74" on="1"/>
        <pt x="307" y="29" on="0"/>
        <pt x="236" y="-12" on="0"/>
        <pt x="194" y="-12" on="1"/>
        <pt x="168" y="-12" on="0"/>
        <pt x="128" y="-1" on="0"/>
        <pt x="120" y="12" on="1"/>
        <pt x="118" y="12" on="1"/>
        <pt x="118" y="-176" on="1"/>
        <pt x="58" y="-176" on="1"/>
      </contour>
    </TTGlyph>
    <TTGlyph name="multiply" xMin="74" yMin="28" xMax="526" yMax="479">
      <contour>
        <pt x="300" y="218" on="1"/>
        <pt x="110" y="28" on="1"/>
        <pt x="74" y="63" on="1"/>
        <pt x="265" y="253" on="1"/>
        <pt x="74" y="444" on="1"/>
        <pt x="110" y="479" on="1"/>
        <pt x="300" y="289" on="1"/>
        <pt x="490" y="479" on="1"/>
        <pt x="526" y="444" on="1"/>
        <pt x="335" y="253" on="1"/>
        <pt x="526" y="63" on="1"/>
        <pt x="490" y="28" on="1"/>
      </contour>
    </TTGlyph>
    <TTGlyph name="n" xMin="58" yMin="0" xMax="386" yMax="543">
      <contour>
        <pt x="58" y="531" on="1"/>
        <pt x="112" y="531" on="1"/>
        <pt x="112" y="457" on="1"/>
        <pt x="114" y="457" on="1"/>
        <pt x="137" y="502" on="0"/>
        <pt x="208" y="543" on="0"/>
        <pt x="250" y="543" on="1"/>
        <pt x="311" y="543" on="0"/>
        <pt x="386" y="476" on="0"/>
        <pt x="386" y="401" on="1"/>
        <pt x="386" y="0" on="1"/>
        <pt x="326" y="0" on="1"/>
        <pt x="326" y="384" on="1"/>
        <pt x="326" y="493" on="0"/>
        <pt x="235" y="493" on="1"/>
        <pt x="181" y="493" on="0"/>
        <pt x="118" y="420" on="0"/>
        <pt x="118" y="357" on="1"/>
        <pt x="118" y="0" on="1"/>
        <pt x="58" y="0" on="1"/>
      </contour>
    </TTGlyph>
    <TTGlyph name="nacute" xMin="58" yMin="0" xMax="386" yMax="739">
      <component glyphName="n" x="0" y="0" flags="0x204"/>
      <component glyphName="acute" x="135" y="0" flags="0x4"/>
    </TTGlyph>
    <TTGlyph name="napostrophe" xMin="35" yMin="0" xMax="401" yMax="806">
      <component glyphName="n" x="15" y="0" flags="0x4"/>
      <component glyphName="commaaccent" x="-49" y="856" flags="0x4"/>
    </TTGlyph>
    <TTGlyph name="ncaron" xMin="58" yMin="0" xMax="386" yMax="739">
      <component glyphName="n" x="0" y="0" flags="0x204"/>
      <component glyphName="caron" x="131" y="0" flags="0x4"/>
    </TTGlyph>
    <TTGlyph name="ncommaaccent" xMin="58" yMin="-203" xMax="386" yMax="543">
      <component glyphName="n" x="0" y="0" flags="0x204"/>
      <component glyphName="commaaccent" x="101" y="0" flags="0x4"/>
    </TTGlyph>
    <TTGlyph name="nine" xMin="38" yMin="-12" xMax="442" yMax="708">
      <contour>
        <pt x="102" y="477" on="1"/>
        <pt x="102" y="443" on="0"/>
        <pt x="116" y="378" on="0"/>
        <pt x="147" y="327" on="0"/>
        <pt x="197" y="296" on="0"/>
        <pt x="234" y="296" on="1"/>
        <pt x="270" y="296" on="0"/>
        <pt x="321" y="327" on="0"/>
        <pt x="352" y="378" on="0"/>
        <pt x="366" y="443" on="0"/>
        <pt x="366" y="477" on="1"/>
        <pt x="366" y="511" on="0"/>
        <pt x="352" y="576" on="0"/>
        <pt x="321" y="627" on="0"/>
        <pt x="270" y="658" on="0"/>
        <pt x="234" y="658" on="1"/>
        <pt x="197" y="658" on="0"/>
        <pt x="147" y="627" on="0"/>
        <pt x="116" y="576" on="0"/>
        <pt x="102" y="511" on="0"/>
      </contour>
      <contour>
        <pt x="117" y="154" on="1"/>
        <pt x="119" y="102" on="0"/>
        <pt x="175" y="38" on="0"/>
        <pt x="229" y="38" on="1"/>
        <pt x="266" y="38" on="0"/>
        <pt x="321" y="73" on="0"/>
        <pt x="358" y="150" on="0"/>
        <pt x="377" y="272" on="0"/>
        <pt x="378" y="360" on="1"/>
        <pt x="376" y="362" on="1"/>
        <pt x="359" y="307" on="0"/>
        <pt x="281" y="246" on="0"/>
        <pt x="224" y="246" on="1"/>
        <pt x="178" y="246" on="0"/>
        <pt x="108" y="278" on="0"/>
        <pt x="62" y="336" on="0"/>
        <pt x="38" y="417" on="0"/>
        <pt x="38" y="466" on="1"/>
        <pt x="38" y="516" on="0"/>
        <pt x="61" y="604" on="0"/>
        <pt x="110" y="670" on="0"/>
        <pt x="184" y="708" on="0"/>
        <pt x="235" y="708" on="1"/>
        <pt x="295" y="708" on="0"/>
        <pt x="375" y="664" on="0"/>
        <pt x="422" y="578" on="0"/>
        <pt x="442" y="451" on="0"/>
        <pt x="442" y="367" on="1"/>
        <pt x="442" y="280" on="0"/>
        <pt x="422" y="140" on="0"/>
        <pt x="373" y="41" on="0"/>
        <pt x="290" y="-12" on="0"/>
        <pt x="226" y="-12" on="1"/>
        <pt x="142" y="-12" on="0"/>
        <pt x="54" y="81" on="0"/>
        <pt x="53" y="154" on="1"/>
      </contour>
    </TTGlyph>
    <TTGlyph name="notequal" xMin="48" yMin="-16" xMax="545" yMax="501">
      <contour>
        <pt x="257" y="125" on="1"/>
        <pt x="182" y="-16" on="1"/>
        <pt x="140" y="7" on="1"/>
        <pt x="204" y="125" on="1"/>
        <pt x="48" y="125" on="1"/>
        <pt x="48" y="173" on="1"/>
        <pt x="230" y="173" on="1"/>
        <pt x="301" y="308" on="1"/>
        <pt x="48" y="308" on="1"/>
        <pt x="48" y="356" on="1"/>
        <pt x="328" y="356" on="1"/>
        <pt x="405" y="501" on="1"/>
        <pt x="447" y="479" on="1"/>
        <pt x="381" y="356" on="1"/>
        <pt x="545" y="356" on="1"/>
        <pt x="545" y="308" on="1"/>
        <pt x="356" y="308" on="1"/>
        <pt x="283" y="173" on="1"/>
        <pt x="545" y="173" on="1"/>
        <pt x="545" y="125" on="1"/>
      </contour>
    </TTGlyph>
    <TTGlyph name="ntilde" xMin="58" yMin="0" xMax="386" yMax="719">
      <component glyphName="n" x="0" y="0" flags="0x204"/>
      <component glyphName="tilde" x="128" y="0" flags="0x4"/>
    </TTGlyph>
    <TTGlyph name="numbersign" xMin="3" yMin="0" xMax="477" yMax="696">
      <contour>
        <pt x="3" y="270" on="1"/>
        <pt x="119" y="270" on="1"/>
        <pt x="139" y="426" on="1"/>
        <pt x="29" y="426" on="1"/>
        <pt x="29" y="470" on="1"/>
        <pt x="145" y="470" on="1"/>
        <pt x="175" y="696" on="1"/>
        <pt x="225" y="696" on="1"/>
        <pt x="195" y="470" on="1"/>
        <pt x="317" y="470" on="1"/>
        <pt x="347" y="696" on="1"/>
        <pt x="397" y="696" on="1"/>
        <pt x="367" y="470" on="1"/>
        <pt x="477" y="470" on="1"/>
        <pt x="477" y="426" on="1"/>
        <pt x="361" y="426" on="1"/>
        <pt x="341" y="270" on="1"/>
        <pt x="451" y="270" on="1"/>
        <pt x="451" y="226" on="1"/>
        <pt x="335" y="226" on="1"/>
        <pt x="305" y="0" on="1"/>
        <pt x="255" y="0" on="1"/>
        <pt x="285" y="226" on="1"/>
        <pt x="163" y="226" on="1"/>
        <pt x="133" y="0" on="1"/>
        <pt x="83" y="0" on="1"/>
        <pt x="113" y="226" on="1"/>
        <pt x="3" y="226" on="1"/>
      </contour>
      <contour>
        <pt x="169" y="270" on="1"/>
        <pt x="291" y="270" on="1"/>
        <pt x="311" y="426" on="1"/>
        <pt x="189" y="426" on="1"/>
      </contour>
    </TTGlyph>
    <TTGlyph name="o" xMin="30" yMin="-12" xMax="396" yMax="543">
      <contour>
        <pt x="94" y="266" on="1"/>
        <pt x="94" y="202" on="0"/>
        <pt x="112" y="115" on="0"/>
        <pt x="144" y="61" on="0"/>
        <pt x="187" y="38" on="0"/>
        <pt x="213" y="38" on="1"/>
        <pt x="238" y="38" on="0"/>
        <pt x="282" y="61" on="0"/>
        <pt x="314" y="115" on="0"/>
        <pt x="332" y="202" on="0"/>
        <pt x="332" y="266" on="1"/>
        <pt x="332" y="329" on="0"/>
        <pt x="314" y="416" on="0"/>
        <pt x="282" y="470" on="0"/>
        <pt x="238" y="493" on="0"/>
        <pt x="213" y="493" on="1"/>
        <pt x="187" y="493" on="0"/>
        <pt x="144" y="470" on="0"/>
        <pt x="112" y="416" on="0"/>
        <pt x="94" y="329" on="0"/>
      </contour>
      <contour>
        <pt x="30" y="266" on="1"/>
        <pt x="30" y="406" on="0"/>
        <pt x="125" y="543" on="0"/>
        <pt x="213" y="543" on="1"/>
        <pt x="301" y="543" on="0"/>
        <pt x="396" y="406" on="0"/>
        <pt x="396" y="266" on="1"/>
        <pt x="396" y="125" on="0"/>
        <pt x="301" y="-12" on="0"/>
        <pt x="213" y="-12" on="1"/>
        <pt x="125" y="-12" on="0"/>
        <pt x="30" y="125" on="0"/>
      </contour>
    </TTGlyph>
    <TTGlyph name="oacute" xMin="30" yMin="-12" xMax="396" yMax="739">
      <component glyphName="o" x="0" y="0" flags="0x204"/>
      <component glyphName="acute" x="131" y="0" flags="0x4"/>
    </TTGlyph>
    <TTGlyph name="obreve" xMin="30" yMin="-12" xMax="396" yMax="729">
      <component glyphName="o" x="0" y="0" flags="0x204"/>
      <component glyphName="breve" x="120" y="0" flags="0x4"/>
    </TTGlyph>
    <TTGlyph name="ocircumflex" xMin="30" yMin="-12" xMax="396" yMax="739">
      <component glyphName="o" x="0" y="0" flags="0x204"/>
      <component glyphName="circumflex" x="119" y="0" flags="0x4"/>
    </TTGlyph>
    <TTGlyph name="odieresis" xMin="30" yMin="-12" xMax="396" yMax="719">
      <component glyphName="o" x="0" y="0" flags="0x204"/>
      <component glyphName="dieresis" x="119" y="0" flags="0x4"/>
    </TTGlyph>
    <TTGlyph name="oe" xMin="38" yMin="-12" xMax="666" yMax="543">
      <contour>
        <pt x="602" y="313" on="1"/>
        <pt x="602" y="362" on="0"/>
        <pt x="587" y="431" on="0"/>
        <pt x="559" y="474" on="0"/>
        <pt x="520" y="493" on="0"/>
        <pt x="497" y="493" on="1"/>
        <pt x="451" y="493" on="0"/>
        <pt x="394" y="412" on="0"/>
        <pt x="392" y="313" on="1"/>
      </contour>
      <contour>
        <pt x="102" y="266" on="1"/>
        <pt x="102" y="202" on="0"/>
        <pt x="120" y="115" on="0"/>
        <pt x="152" y="61" on="0"/>
        <pt x="193" y="38" on="0"/>
        <pt x="217" y="38" on="1"/>
        <pt x="241" y="38" on="0"/>
        <pt x="282" y="61" on="0"/>
        <pt x="314" y="115" on="0"/>
        <pt x="332" y="202" on="0"/>
        <pt x="332" y="266" on="1"/>
        <pt x="332" y="329" on="0"/>
        <pt x="314" y="416" on="0"/>
        <pt x="282" y="470" on="0"/>
        <pt x="241" y="493" on="0"/>
        <pt x="217" y="493" on="1"/>
        <pt x="193" y="493" on="0"/>
        <pt x="152" y="470" on="0"/>
        <pt x="120" y="416" on="0"/>
        <pt x="102" y="329" on="0"/>
      </contour>
      <contour>
        <pt x="661" y="176" on="1"/>
        <pt x="656" y="85" on="0"/>
        <pt x="570" y="-12" on="0"/>
        <pt x="498" y="-12" on="1"/>
        <pt x="476" y="-12" on="0"/>
        <pt x="435" y="-2" on="0"/>
        <pt x="400" y="23" on="0"/>
        <pt x="371" y="65" on="0"/>
        <pt x="360" y="98" on="1"/>
        <pt x="358" y="98" on="1"/>
        <pt x="343" y="44" on="0"/>
        <pt x="272" y="-12" on="0"/>
        <pt x="221" y="-12" on="1"/>
        <pt x="133" y="-12" on="0"/>
        <pt x="38" y="125" on="0"/>
        <pt x="38" y="266" on="1"/>
        <pt x="38" y="406" on="0"/>
        <pt x="133" y="543" on="0"/>
        <pt x="221" y="543" on="1"/>
        <pt x="273" y="543" on="0"/>
        <pt x="349" y="489" on="0"/>
        <pt x="364" y="432" on="1"/>
        <pt x="366" y="432" on="1"/>
        <pt x="380" y="486" on="0"/>
        <pt x="449" y="543" on="0"/>
        <pt x="504" y="543" on="1"/>
        <pt x="593" y="543" on="0"/>
        <pt x="666" y="405" on="0"/>
        <pt x="666" y="263" on="1"/>
        <pt x="392" y="263" on="1"/>
        <pt x="392" y="234" on="1"/>
        <pt x="392" y="133" on="0"/>
        <pt x="452" y="38" on="0"/>
        <pt x="496" y="38" on="1"/>
        <pt x="518" y="38" on="0"/>
        <pt x="556" y="59" on="0"/>
        <pt x="584" y="95" on="0"/>
        <pt x="601" y="146" on="0"/>
        <pt x="601" y="176" on="1"/>
      </contour>
    </TTGlyph>
    <TTGlyph name="ogonek" xMin="13" yMin="-203" xMax="194" yMax="0">
      <contour>
        <pt x="154" y="0" on="1"/>
        <pt x="109" y="-40" on="0"/>
        <pt x="67" y="-96" on="0"/>
        <pt x="67" y="-120" on="1"/>
        <pt x="67" y="-166" on="0"/>
        <pt x="112" y="-166" on="1"/>
        <pt x="127" y="-166" on="0"/>
        <pt x="166" y="-156" on="0"/>
        <pt x="181" y="-147" on="1"/>
        <pt x="194" y="-174" on="1"/>
        <pt x="174" y="-187" on="0"/>
        <pt x="126" y="-203" on="0"/>
        <pt x="98" y="-203" on="1"/>
        <pt x="53" y="-203" on="0"/>
        <pt x="13" y="-159" on="0"/>
        <pt x="13" y="-131" on="1"/>
        <pt x="13" y="-97" on="0"/>
        <pt x="65" y="-30" on="0"/>
        <pt x="110" y="0" on="1"/>
      </contour>
    </TTGlyph>
    <TTGlyph name="ograve" xMin="30" yMin="-12" xMax="396" yMax="739">
      <component glyphName="o" x="0" y="0" flags="0x204"/>
      <component glyphName="grave" x="107" y="0" flags="0x4"/>
    </TTGlyph>
    <TTGlyph name="ohungarumlaut" xMin="30" yMin="-12" xMax="407" yMax="739">
      <component glyphName="o" x="0" y="0" flags="0x204"/>
      <component glyphName="hungarumlaut" x="136" y="0" flags="0x4"/>
    </TTGlyph>
    <TTGlyph name="omacron" xMin="30" yMin="-12" xMax="396" yMax="690">
      <component glyphName="o" x="0" y="0" flags="0x204"/>
      <component glyphName="macron" x="121" y="0" flags="0x4"/>
    </TTGlyph>
    <TTGlyph name="one" xMin="68" yMin="0" xMax="290" yMax="708">
      <contour>
        <pt x="230" y="542" on="1"/>
        <pt x="68" y="542" on="1"/>
        <pt x="68" y="586" on="1"/>
        <pt x="158" y="587" on="0"/>
        <pt x="241" y="652" on="0"/>
        <pt x="244" y="708" on="1"/>
        <pt x="290" y="708" on="1"/>
        <pt x="290" y="0" on="1"/>
        <pt x="230" y="0" on="1"/>
      </contour>
    </TTGlyph>
    <TTGlyph name="onehalf" xMin="36" yMin="-30" xMax="657" yMax="726">
      <contour>
        <pt x="393" y="293" on="1"/>
        <pt x="394" y="356" on="0"/>
        <pt x="458" y="428" on="0"/>
        <pt x="530" y="428" on="1"/>
        <pt x="555" y="428" on="0"/>
        <pt x="601" y="415" on="0"/>
        <pt x="635" y="387" on="0"/>
        <pt x="655" y="343" on="0"/>
        <pt x="655" y="313" on="1"/>
        <pt x="655" y="275" on="0"/>
        <pt x="627" y="216" on="0"/>
        <pt x="582" y="182" on="1"/>
        <pt x="532" y="145" on="1"/>
        <pt x="495" y="118" on="0"/>
        <pt x="457" y="71" on="0"/>
        <pt x="450" y="44" on="1"/>
        <pt x="657" y="44" on="1"/>
        <pt x="657" y="0" on="1"/>
        <pt x="396" y="0" on="1"/>
        <pt x="396" y="55" on="0"/>
        <pt x="446" y="130" on="0"/>
        <pt x="492" y="167" on="1"/>
        <pt x="541" y="206" on="1"/>
        <pt x="576" y="233" on="0"/>
        <pt x="601" y="281" on="0"/>
        <pt x="601" y="311" on="1"/>
        <pt x="601" y="349" on="0"/>
        <pt x="557" y="384" on="0"/>
        <pt x="526" y="384" on="1"/>
        <pt x="491" y="384" on="0"/>
        <pt x="449" y="338" on="0"/>
        <pt x="447" y="293" on="1"/>
      </contour>
      <contour>
        <pt x="144" y="600" on="1"/>
        <pt x="36" y="600" on="1"/>
        <pt x="36" y="636" on="1"/>
        <pt x="96" y="637" on="0"/>
        <pt x="151" y="676" on="0"/>
        <pt x="153" y="708" on="1"/>
        <pt x="198" y="708" on="1"/>
        <pt x="198" y="280" on="1"/>
        <pt x="144" y="280" on="1"/>
      </contour>
      <contour>
        <pt x="511" y="726" on="1"/>
        <pt x="561" y="726" on="1"/>
        <pt x="110" y="-30" on="1"/>
        <pt x="60" y="-30" on="1"/>
      </contour>
    </TTGlyph>
    <TTGlyph name="onequarter" xMin="36" yMin="-30" xMax="671" yMax="726">
      <contour>
        <pt x="144" y="600" on="1"/>
        <pt x="36" y="600" on="1"/>
        <pt x="36" y="636" on="1"/>
        <pt x="96" y="637" on="0"/>
        <pt x="151" y="676" on="0"/>
        <pt x="153" y="708" on="1"/>
        <pt x="198" y="708" on="1"/>
        <pt x="198" y="280" on="1"/>
        <pt x="144" y="280" on="1"/>
      </contour>
      <contour>
        <pt x="541" y="726" on="1"/>
        <pt x="591" y="726" on="1"/>
        <pt x="140" y="-30" on="1"/>
        <pt x="90" y="-30" on="1"/>
      </contour>
      <contour>
        <pt x="567" y="146" on="1"/>
        <pt x="567" y="360" on="1"/>
        <pt x="565" y="360" on="1"/>
        <pt x="425" y="146" on="1"/>
      </contour>
      <contour>
        <pt x="567" y="110" on="1"/>
        <pt x="381" y="110" on="1"/>
        <pt x="381" y="146" on="1"/>
        <pt x="557" y="428" on="1"/>
        <pt x="617" y="428" on="1"/>
        <pt x="617" y="146" on="1"/>
        <pt x="671" y="146" on="1"/>
        <pt x="671" y="110" on="1"/>
        <pt x="617" y="110" on="1"/>
        <pt x="617" y="0" on="1"/>
        <pt x="567" y="0" on="1"/>
      </contour>
    </TTGlyph>
    <TTGlyph name="onesuperior" xMin="36" yMin="280" xMax="198" yMax="708">
      <contour>
        <pt x="144" y="600" on="1"/>
        <pt x="36" y="600" on="1"/>
        <pt x="36" y="636" on="1"/>
        <pt x="96" y="637" on="0"/>
        <pt x="151" y="676" on="0"/>
        <pt x="153" y="708" on="1"/>
        <pt x="198" y="708" on="1"/>
        <pt x="198" y="280" on="1"/>
        <pt x="144" y="280" on="1"/>
      </contour>
    </TTGlyph>
    <TTGlyph name="ordfeminine" xMin="5" yMin="367" xMax="272" yMax="708">
      <contour>
        <pt x="191" y="551" on="1"/>
        <pt x="189" y="551" on="1"/>
        <pt x="186" y="543" on="0"/>
        <pt x="159" y="533" on="0"/>
        <pt x="148" y="530" on="1"/>
        <pt x="115" y="522" on="1"/>
        <pt x="59" y="508" on="0"/>
        <pt x="59" y="467" on="1"/>
        <pt x="59" y="444" on="0"/>
        <pt x="88" y="411" on="0"/>
        <pt x="111" y="411" on="1"/>
        <pt x="146" y="411" on="0"/>
        <pt x="191" y="457" on="0"/>
        <pt x="191" y="499" on="1"/>
      </contour>
      <contour>
        <pt x="15" y="602" on="1"/>
        <pt x="15" y="654" on="0"/>
        <pt x="69" y="708" on="0"/>
        <pt x="132" y="708" on="1"/>
        <pt x="194" y="708" on="0"/>
        <pt x="241" y="661" on="0"/>
        <pt x="241" y="623" on="1"/>
        <pt x="241" y="438" on="1"/>
        <pt x="241" y="411" on="0"/>
        <pt x="261" y="411" on="1"/>
        <pt x="272" y="411" on="1"/>
        <pt x="272" y="373" on="1"/>
        <pt x="258" y="367" on="0"/>
        <pt x="238" y="367" on="1"/>
        <pt x="220" y="367" on="0"/>
        <pt x="193" y="382" on="0"/>
        <pt x="193" y="407" on="1"/>
        <pt x="193" y="421" on="1"/>
        <pt x="191" y="421" on="1"/>
        <pt x="180" y="389" on="0"/>
        <pt x="131" y="367" on="0"/>
        <pt x="102" y="367" on="1"/>
        <pt x="51" y="367" on="0"/>
        <pt x="5" y="422" on="0"/>
        <pt x="5" y="461" on="1"/>
        <pt x="5" y="498" on="0"/>
        <pt x="42" y="545" on="0"/>
        <pt x="84" y="556" on="1"/>
        <pt x="158" y="575" on="1"/>
        <pt x="178" y="580" on="0"/>
        <pt x="191" y="596" on="0"/>
        <pt x="191" y="619" on="1"/>
        <pt x="191" y="642" on="0"/>
        <pt x="157" y="664" on="0"/>
        <pt x="131" y="664" on="1"/>
        <pt x="96" y="664" on="0"/>
        <pt x="65" y="629" on="0"/>
        <pt x="65" y="602" on="1"/>
      </contour>
    </TTGlyph>
    <TTGlyph name="ordmasculine" xMin="9" yMin="367" xMax="268" yMax="708">
      <contour>
        <pt x="63" y="538" on="1"/>
        <pt x="63" y="469" on="0"/>
        <pt x="107" y="411" on="0"/>
        <pt x="138" y="411" on="1"/>
        <pt x="170" y="411" on="0"/>
        <pt x="214" y="469" on="0"/>
        <pt x="214" y="538" on="1"/>
        <pt x="214" y="606" on="0"/>
        <pt x="169" y="664" on="0"/>
        <pt x="138" y="664" on="1"/>
        <pt x="107" y="664" on="0"/>
        <pt x="63" y="606" on="0"/>
      </contour>
      <contour>
        <pt x="9" y="538" on="1"/>
        <pt x="9" y="708" on="0"/>
        <pt x="138" y="708" on="1"/>
        <pt x="268" y="708" on="0"/>
        <pt x="268" y="538" on="1"/>
        <pt x="268" y="367" on="0"/>
        <pt x="138" y="367" on="1"/>
        <pt x="9" y="367" on="0"/>
      </contour>
    </TTGlyph>
    <TTGlyph name="oslash" xMin="30" yMin="-55" xMax="396" yMax="586">
      <contour>
        <pt x="63" y="-40" on="1"/>
        <pt x="95" y="36" on="1"/>
        <pt x="30" y="104" on="0"/>
        <pt x="30" y="266" on="1"/>
        <pt x="30" y="406" on="0"/>
        <pt x="125" y="543" on="0"/>
        <pt x="213" y="543" on="1"/>
        <pt x="264" y="543" on="0"/>
        <pt x="298" y="521" on="1"/>
        <pt x="325" y="586" on="1"/>
        <pt x="363" y="570" on="1"/>
        <pt x="331" y="495" on="1"/>
        <pt x="396" y="428" on="0"/>
        <pt x="396" y="266" on="1"/>
        <pt x="396" y="125" on="0"/>
        <pt x="301" y="-12" on="0"/>
        <pt x="213" y="-12" on="1"/>
        <pt x="163" y="-12" on="0"/>
        <pt x="128" y="11" on="1"/>
        <pt x="100" y="-55" on="1"/>
      </contour>
      <contour>
        <pt x="150" y="63" on="1"/>
        <pt x="164" y="49" on="0"/>
        <pt x="196" y="38" on="0"/>
        <pt x="213" y="38" on="1"/>
        <pt x="238" y="38" on="0"/>
        <pt x="282" y="61" on="0"/>
        <pt x="314" y="115" on="0"/>
        <pt x="332" y="202" on="0"/>
        <pt x="332" y="266" on="1"/>
        <pt x="332" y="377" on="0"/>
        <pt x="304" y="430" on="1"/>
      </contour>
      <contour>
        <pt x="276" y="469" on="1"/>
        <pt x="249" y="493" on="0"/>
        <pt x="213" y="493" on="1"/>
        <pt x="187" y="493" on="0"/>
        <pt x="144" y="470" on="0"/>
        <pt x="112" y="416" on="0"/>
        <pt x="94" y="329" on="0"/>
        <pt x="94" y="266" on="1"/>
        <pt x="94" y="154" on="0"/>
        <pt x="122" y="101" on="1"/>
      </contour>
    </TTGlyph>
    <TTGlyph name="otilde" xMin="30" yMin="-12" xMax="396" yMax="719">
      <component glyphName="o" x="0" y="0" flags="0x204"/>
      <component glyphName="tilde" x="119" y="0" flags="0x4"/>
    </TTGlyph>
    <TTGlyph name="p" xMin="52" yMin="-176" xMax="408" yMax="543">
      <contour>
        <pt x="344" y="265" on="1"/>
        <pt x="344" y="337" on="0"/>
        <pt x="325" y="427" on="0"/>
        <pt x="293" y="476" on="0"/>
        <pt x="252" y="493" on="0"/>
        <pt x="230" y="493" on="1"/>
        <pt x="204" y="493" on="0"/>
        <pt x="161" y="468" on="0"/>
        <pt x="146" y="446" on="1"/>
        <pt x="126" y="418" on="0"/>
        <pt x="112" y="334" on="0"/>
        <pt x="112" y="265" on="1"/>
        <pt x="112" y="191" on="0"/>
        <pt x="131" y="102" on="0"/>
        <pt x="163" y="54" on="0"/>
        <pt x="205" y="38" on="0"/>
        <pt x="228" y="38" on="1"/>
        <pt x="250" y="38" on="0"/>
        <pt x="292" y="54" on="0"/>
        <pt x="325" y="102" on="0"/>
        <pt x="344" y="191" on="0"/>
      </contour>
      <contour>
        <pt x="52" y="531" on="1"/>
        <pt x="106" y="531" on="1"/>
        <pt x="106" y="455" on="1"/>
        <pt x="108" y="455" on="1"/>
        <pt x="122" y="492" on="0"/>
        <pt x="188" y="543" on="0"/>
        <pt x="239" y="543" on="1"/>
        <pt x="329" y="543" on="0"/>
        <pt x="408" y="405" on="0"/>
        <pt x="408" y="265" on="1"/>
        <pt x="408" y="126" on="0"/>
        <pt x="326" y="-12" on="0"/>
        <pt x="238" y="-12" on="1"/>
        <pt x="187" y="-12" on="0"/>
        <pt x="124" y="38" on="0"/>
        <pt x="114" y="80" on="1"/>
        <pt x="112" y="80" on="1"/>
        <pt x="112" y="-176" on="1"/>
        <pt x="52" y="-176" on="1"/>
      </contour>
    </TTGlyph>
    <TTGlyph name="paragraph" xMin="30" yMin="-138" xMax="401" yMax="714">
      <contour>
        <pt x="194" y="334" on="1"/>
        <pt x="161" y="334" on="0"/>
        <pt x="101" y="362" on="0"/>
        <pt x="56" y="412" on="0"/>
        <pt x="30" y="478" on="0"/>
        <pt x="30" y="516" on="1"/>
        <pt x="30" y="564" on="0"/>
        <pt x="58" y="638" on="0"/>
        <pt x="108" y="688" on="0"/>
        <pt x="177" y="714" on="0"/>
        <pt x="219" y="714" on="1"/>
        <pt x="401" y="714" on="1"/>
        <pt x="401" y="-138" on="1"/>
        <pt x="351" y="-138" on="1"/>
        <pt x="351" y="670" on="1"/>
        <pt x="244" y="670" on="1"/>
        <pt x="244" y="-138" on="1"/>
        <pt x="194" y="-138" on="1"/>
      </contour>
    </TTGlyph>
</ttFont>
